<svg xmlns="http://www.w3.org/2000/svg" xmlns:xlink="http://www.w3.org/1999/xlink" width="253" zoomAndPan="magnify" viewBox="0 0 189.75 214.499994" height="286" preserveAspectRatio="xMidYMid meet" version="1.0"><defs><g/><clipPath id="0adc0252f4"><path d="M 23.40625 0 L 165.574219 0 L 165.574219 157 L 23.40625 157 Z M 23.40625 0 " clip-rule="nonzero"/></clipPath><clipPath id="2093425e82"><path d="M 23.40625 0 L 164 0 L 164 118 L 23.40625 118 Z M 23.40625 0 " clip-rule="nonzero"/></clipPath><clipPath id="89d7d978b0"><path d="M 92 38 L 165.574219 38 L 165.574219 118 L 92 118 Z M 92 38 " clip-rule="nonzero"/></clipPath></defs><g clip-path="url(#0adc0252f4)"><path fill="#37474f" d="M 90.40625 1.4375 C 92.933594 0.0195312 96.046875 0.0195312 98.570312 1.4375 C 111.058594 8.449219 148.640625 29.554688 161.132812 36.566406 C 163.660156 37.980469 165.214844 40.601562 165.214844 43.4375 C 165.214844 57.460938 165.214844 99.667969 165.214844 113.691406 C 165.214844 116.527344 163.660156 119.148438 161.132812 120.570312 C 148.644531 127.578125 111.0625 148.683594 98.570312 155.695312 C 96.042969 157.113281 92.929688 157.113281 90.40625 155.695312 C 77.917969 148.683594 40.335938 127.578125 27.84375 120.570312 C 25.320312 119.148438 23.765625 116.53125 23.765625 113.695312 C 23.765625 99.671875 23.765625 57.464844 23.765625 43.441406 C 23.765625 40.605469 25.320312 37.984375 27.847656 36.566406 C 40.332031 29.554688 77.921875 8.449219 90.40625 1.4375 Z M 90.40625 1.4375 " fill-opacity="1" fill-rule="evenodd"/></g><g clip-path="url(#2093425e82)"><path fill="#546e7a" d="M 24.894531 117.308594 C 23.90625 115.980469 23.765625 114.722656 23.765625 113.027344 C 23.765625 99.085938 23.765625 57.121094 23.765625 43.179688 C 23.765625 40.355469 25.316406 37.75 27.835938 36.34375 C 40.28125 29.371094 77.734375 8.390625 90.179688 1.414062 C 92.699219 0.00390625 96.113281 0.0351562 98.632812 1.445312 C 111.078125 8.414062 148.40625 29.21875 160.851562 36.1875 C 161.855469 36.753906 162.621094 37.4375 163.308594 38.332031 Z M 24.894531 117.308594 " fill-opacity="1" fill-rule="evenodd"/></g><path fill="#ffffff" d="M 94.492188 26.4375 C 123.253906 26.4375 146.605469 49.796875 146.605469 78.566406 C 146.605469 107.339844 123.253906 130.695312 94.492188 130.695312 C 65.726562 130.695312 42.375 107.339844 42.375 78.566406 C 42.375 49.796875 65.726562 26.4375 94.492188 26.4375 Z M 94.492188 52.503906 C 108.871094 52.503906 120.546875 64.179688 120.546875 78.566406 C 120.546875 92.949219 108.871094 104.632812 94.492188 104.632812 C 80.109375 104.632812 68.433594 92.949219 68.433594 78.566406 C 68.433594 64.179688 80.105469 52.503906 94.492188 52.503906 Z M 94.492188 52.503906 " fill-opacity="1" fill-rule="evenodd"/><g clip-path="url(#89d7d978b0)"><path fill="#455a64" d="M 163.300781 38.371094 C 165.21875 40.167969 165.183594 42.878906 165.183594 45.015625 C 165.183594 59.144531 165.0625 99.335938 165.214844 113.46875 C 165.230469 114.941406 164.742188 116.496094 164.015625 117.664062 L 92.976562 78.566406 Z M 163.300781 38.371094 " fill-opacity="1" fill-rule="evenodd"/></g><path fill="#ffffff" d="M 131.714844 63.671875 L 135.4375 63.671875 L 135.4375 93.460938 L 131.714844 93.460938 Z M 142.882812 63.671875 L 146.605469 63.671875 L 146.605469 93.460938 L 142.882812 93.460938 Z M 142.882812 63.671875 " fill-opacity="1" fill-rule="evenodd"/><path fill="#ffffff" d="M 124.269531 82.289062 L 154.050781 82.289062 L 154.050781 86.015625 L 124.269531 86.015625 Z M 124.269531 71.121094 L 154.050781 71.121094 L 154.050781 74.84375 L 124.269531 74.84375 Z M 124.269531 71.121094 " fill-opacity="1" fill-rule="evenodd"/><g fill="#eceff4" fill-opacity="1"><g transform="translate(7.671432, 195.987579)"><g><path d="M 21.625 -17.625 C 21.625 -17.289062 21.457031 -17.125 21.125 -17.125 L 19.40625 -17.125 C 19.070312 -17.125 18.90625 -17.289062 18.90625 -17.625 L 18.90625 -19.296875 C 18.882812 -19.984375 18.632812 -20.566406 18.15625 -21.046875 C 17.675781 -21.523438 17.09375 -21.765625 16.40625 -21.765625 L 8.453125 -21.765625 C 7.765625 -21.765625 7.175781 -21.519531 6.6875 -21.03125 C 6.195312 -20.539062 5.953125 -19.953125 5.953125 -19.265625 L 5.953125 -5.203125 C 5.953125 -4.515625 6.195312 -3.925781 6.6875 -3.4375 C 7.175781 -2.957031 7.765625 -2.71875 8.453125 -2.71875 L 16.40625 -2.71875 C 17.09375 -2.71875 17.675781 -2.945312 18.15625 -3.40625 C 18.632812 -3.875 18.882812 -4.453125 18.90625 -5.140625 L 18.90625 -6.84375 C 18.90625 -6.96875 18.953125 -7.082031 19.046875 -7.1875 C 19.140625 -7.289062 19.257812 -7.34375 19.40625 -7.34375 L 21.125 -7.34375 C 21.257812 -7.34375 21.375 -7.289062 21.46875 -7.1875 C 21.570312 -7.082031 21.625 -6.96875 21.625 -6.84375 L 21.625 -5.140625 C 21.625 -4.421875 21.476562 -3.753906 21.1875 -3.140625 C 20.90625 -2.523438 20.53125 -1.984375 20.0625 -1.515625 C 19.601562 -1.054688 19.054688 -0.6875 18.421875 -0.40625 C 17.796875 -0.132812 17.125 0 16.40625 0 L 8.453125 0 C 7.742188 0 7.070312 -0.132812 6.4375 -0.40625 C 5.8125 -0.6875 5.265625 -1.054688 4.796875 -1.515625 C 4.335938 -1.984375 3.96875 -2.535156 3.6875 -3.171875 C 3.414062 -3.816406 3.28125 -4.492188 3.28125 -5.203125 L 3.28125 -19.265625 C 3.28125 -19.972656 3.414062 -20.640625 3.6875 -21.265625 C 3.96875 -21.898438 4.335938 -22.457031 4.796875 -22.9375 C 5.265625 -23.414062 5.8125 -23.789062 6.4375 -24.0625 C 7.070312 -24.332031 7.742188 -24.46875 8.453125 -24.46875 L 16.40625 -24.46875 C 17.125 -24.46875 17.796875 -24.332031 18.421875 -24.0625 C 19.054688 -23.789062 19.601562 -23.421875 20.0625 -22.953125 C 20.53125 -22.492188 20.90625 -21.945312 21.1875 -21.3125 C 21.476562 -20.6875 21.625 -20.015625 21.625 -19.296875 Z M 21.625 -17.625 "/></g></g></g><g fill="#eceff4" fill-opacity="1"><g transform="translate(32.533902, 195.987579)"><g/></g></g><g fill="#eceff4" fill-opacity="1"><g transform="translate(57.360705, 195.987579)"><g><path d="M 3.25 -5.203125 L 3.25 -6.84375 C 3.25 -6.96875 3.300781 -7.082031 3.40625 -7.1875 C 3.507812 -7.289062 3.625 -7.34375 3.75 -7.34375 L 5.453125 -7.34375 C 5.597656 -7.34375 5.71875 -7.289062 5.8125 -7.1875 C 5.90625 -7.082031 5.953125 -6.96875 5.953125 -6.84375 L 5.953125 -5.203125 C 5.953125 -4.515625 6.195312 -3.925781 6.6875 -3.4375 C 7.175781 -2.957031 7.765625 -2.71875 8.453125 -2.71875 L 16.40625 -2.71875 C 17.09375 -2.71875 17.679688 -2.957031 18.171875 -3.4375 C 18.660156 -3.925781 18.90625 -4.515625 18.90625 -5.203125 L 18.90625 -8.390625 C 18.90625 -9.078125 18.660156 -9.660156 18.171875 -10.140625 C 17.679688 -10.628906 17.09375 -10.875 16.40625 -10.875 L 8.453125 -10.875 C 7.742188 -10.875 7.070312 -11.007812 6.4375 -11.28125 C 5.8125 -11.5625 5.257812 -11.929688 4.78125 -12.390625 C 4.300781 -12.859375 3.925781 -13.410156 3.65625 -14.046875 C 3.382812 -14.691406 3.25 -15.375 3.25 -16.09375 L 3.25 -19.265625 C 3.25 -19.972656 3.382812 -20.640625 3.65625 -21.265625 C 3.925781 -21.898438 4.300781 -22.457031 4.78125 -22.9375 C 5.257812 -23.414062 5.8125 -23.789062 6.4375 -24.0625 C 7.070312 -24.332031 7.742188 -24.46875 8.453125 -24.46875 L 16.40625 -24.46875 C 17.125 -24.46875 17.796875 -24.332031 18.421875 -24.0625 C 19.054688 -23.789062 19.609375 -23.414062 20.078125 -22.9375 C 20.554688 -22.457031 20.929688 -21.898438 21.203125 -21.265625 C 21.484375 -20.640625 21.625 -19.972656 21.625 -19.265625 L 21.625 -17.625 C 21.625 -17.289062 21.457031 -17.125 21.125 -17.125 L 19.40625 -17.125 C 19.070312 -17.125 18.90625 -17.289062 18.90625 -17.625 L 18.90625 -19.265625 C 18.90625 -19.953125 18.660156 -20.539062 18.171875 -21.03125 C 17.679688 -21.519531 17.09375 -21.765625 16.40625 -21.765625 L 8.453125 -21.765625 C 7.765625 -21.765625 7.175781 -21.519531 6.6875 -21.03125 C 6.195312 -20.539062 5.953125 -19.953125 5.953125 -19.265625 L 5.953125 -16.09375 C 5.953125 -15.394531 6.195312 -14.800781 6.6875 -14.3125 C 7.175781 -13.832031 7.765625 -13.59375 8.453125 -13.59375 L 16.40625 -13.59375 C 17.125 -13.59375 17.796875 -13.453125 18.421875 -13.171875 C 19.054688 -12.898438 19.609375 -12.523438 20.078125 -12.046875 C 20.554688 -11.578125 20.929688 -11.023438 21.203125 -10.390625 C 21.484375 -9.765625 21.625 -9.097656 21.625 -8.390625 L 21.625 -5.203125 C 21.625 -4.492188 21.484375 -3.816406 21.203125 -3.171875 C 20.929688 -2.535156 20.554688 -1.984375 20.078125 -1.515625 C 19.609375 -1.054688 19.054688 -0.6875 18.421875 -0.40625 C 17.796875 -0.132812 17.125 0 16.40625 0 L 8.453125 0 C 7.742188 0 7.070312 -0.132812 6.4375 -0.40625 C 5.8125 -0.6875 5.257812 -1.054688 4.78125 -1.515625 C 4.300781 -1.984375 3.925781 -2.535156 3.65625 -3.171875 C 3.382812 -3.816406 3.25 -4.492188 3.25 -5.203125 Z M 3.25 -5.203125 "/></g></g></g><g fill="#eceff4" fill-opacity="1"><g transform="translate(82.223176, 195.987579)"><g><path d="M 18.90625 -0.5 L 18.90625 -10.875 L 5.953125 -10.875 L 5.953125 -0.5 C 5.953125 -0.164062 5.785156 0 5.453125 0 L 3.78125 0 C 3.445312 0 3.28125 -0.164062 3.28125 -0.5 L 3.28125 -23.96875 C 3.28125 -24.300781 3.445312 -24.46875 3.78125 -24.46875 L 5.453125 -24.46875 C 5.785156 -24.46875 5.953125 -24.300781 5.953125 -23.96875 L 5.953125 -13.59375 L 18.90625 -13.59375 L 18.90625 -23.96875 C 18.90625 -24.300781 19.070312 -24.46875 19.40625 -24.46875 L 21.125 -24.46875 C 21.457031 -24.46875 21.625 -24.300781 21.625 -23.96875 L 21.625 -0.5 C 21.625 -0.164062 21.457031 0 21.125 0 L 19.40625 0 C 19.070312 0 18.90625 -0.164062 18.90625 -0.5 Z M 18.90625 -0.5 "/></g></g></g><g fill="#eceff4" fill-opacity="1"><g transform="translate(107.049978, 195.987579)"><g><path d="M 15.765625 -24.46875 C 15.910156 -24.46875 16.046875 -24.421875 16.171875 -24.328125 C 16.304688 -24.234375 16.394531 -24.125 16.4375 -24 L 21.40625 -11.59375 C 21.445312 -11.476562 21.484375 -11.320312 21.515625 -11.125 C 21.554688 -10.9375 21.578125 -10.769531 21.578125 -10.625 L 21.578125 -0.5 C 21.578125 -0.164062 21.410156 0 21.078125 0 L 19.40625 0 C 19.070312 0 18.90625 -0.164062 18.90625 -0.5 L 18.90625 -7.09375 L 5.953125 -7.09375 L 5.953125 -0.5 C 5.953125 -0.164062 5.785156 0 5.453125 0 L 3.75 0 C 3.414062 0 3.25 -0.164062 3.25 -0.5 L 3.25 -10.625 C 3.25 -10.769531 3.265625 -10.9375 3.296875 -11.125 C 3.335938 -11.320312 3.378906 -11.476562 3.421875 -11.59375 L 8.390625 -24 C 8.429688 -24.125 8.519531 -24.234375 8.65625 -24.328125 C 8.800781 -24.421875 8.9375 -24.46875 9.0625 -24.46875 Z M 18.90625 -9.78125 L 18.90625 -10.625 L 14.453125 -21.765625 L 10.421875 -21.765625 L 5.953125 -10.625 L 5.953125 -9.78125 Z M 18.90625 -9.78125 "/></g></g></g><g fill="#eceff4" fill-opacity="1"><g transform="translate(131.912449, 195.987579)"><g><path d="M 18.234375 -0.46875 L 13.59375 -10.875 L 5.953125 -10.875 L 5.953125 -0.5 C 5.953125 -0.164062 5.785156 0 5.453125 0 L 3.78125 0 C 3.445312 0 3.28125 -0.164062 3.28125 -0.5 L 3.28125 -23.96875 C 3.28125 -24.300781 3.445312 -24.46875 3.78125 -24.46875 L 16.40625 -24.46875 C 17.125 -24.46875 17.796875 -24.332031 18.421875 -24.0625 C 19.054688 -23.789062 19.609375 -23.414062 20.078125 -22.9375 C 20.554688 -22.457031 20.929688 -21.898438 21.203125 -21.265625 C 21.484375 -20.640625 21.625 -19.972656 21.625 -19.265625 L 21.625 -16.09375 C 21.625 -14.925781 21.269531 -13.882812 20.5625 -12.96875 C 19.863281 -12.050781 18.957031 -11.425781 17.84375 -11.09375 L 16.625 -10.734375 L 21.1875 -0.46875 C 21.257812 -0.34375 21.265625 -0.234375 21.203125 -0.140625 C 21.148438 -0.046875 21.050781 0 20.90625 0 L 18.9375 0 C 18.800781 0 18.660156 -0.046875 18.515625 -0.140625 C 18.367188 -0.234375 18.273438 -0.34375 18.234375 -0.46875 Z M 5.953125 -13.59375 L 16.40625 -13.59375 C 17.09375 -13.59375 17.679688 -13.832031 18.171875 -14.3125 C 18.660156 -14.800781 18.90625 -15.394531 18.90625 -16.09375 L 18.90625 -19.265625 C 18.90625 -19.953125 18.660156 -20.539062 18.171875 -21.03125 C 17.679688 -21.519531 17.09375 -21.765625 16.40625 -21.765625 L 5.953125 -21.765625 Z M 5.953125 -13.59375 "/></g></g></g><g fill="#eceff4" fill-opacity="1"><g transform="translate(156.77492, 195.987579)"><g><path d="M 3.25 -0.5 L 3.25 -23.96875 C 3.25 -24.113281 3.300781 -24.234375 3.40625 -24.328125 C 3.507812 -24.421875 3.625 -24.46875 3.75 -24.46875 L 16.40625 -24.46875 C 17.125 -24.46875 17.796875 -24.332031 18.421875 -24.0625 C 19.054688 -23.789062 19.609375 -23.414062 20.078125 -22.9375 C 20.554688 -22.457031 20.929688 -21.898438 21.203125 -21.265625 C 21.484375 -20.640625 21.625 -19.972656 21.625 -19.265625 L 21.625 -16.09375 C 21.625 -15.375 21.484375 -14.691406 21.203125 -14.046875 C 20.929688 -13.410156 20.554688 -12.859375 20.078125 -12.390625 C 19.609375 -11.929688 19.054688 -11.5625 18.421875 -11.28125 C 17.796875 -11.007812 17.125 -10.875 16.40625 -10.875 L 5.953125 -10.875 L 5.953125 -0.5 C 5.953125 -0.164062 5.785156 0 5.453125 0 L 3.75 0 C 3.625 0 3.507812 -0.046875 3.40625 -0.140625 C 3.300781 -0.234375 3.25 -0.351562 3.25 -0.5 Z M 5.953125 -13.59375 L 16.40625 -13.59375 C 17.09375 -13.59375 17.679688 -13.832031 18.171875 -14.3125 C 18.660156 -14.800781 18.90625 -15.394531 18.90625 -16.09375 L 18.90625 -19.265625 C 18.90625 -19.953125 18.660156 -20.539062 18.171875 -21.03125 C 17.679688 -21.519531 17.09375 -21.765625 16.40625 -21.765625 L 5.953125 -21.765625 Z M 5.953125 -13.59375 "/></g></g></g></svg>