<svg xmlns="http://www.w3.org/2000/svg" xmlns:xlink="http://www.w3.org/1999/xlink" width="161" zoomAndPan="magnify" viewBox="0 0 120.75 156.75" height="209" preserveAspectRatio="xMidYMid meet" version="1.0"><defs><g/><clipPath id="d78033f953"><path d="M 11.238281 0.0390625 L 109.285156 0.0390625 L 109.285156 106.316406 L 11.238281 106.316406 Z M 11.238281 0.0390625 " clip-rule="nonzero"/></clipPath></defs><g clip-path="url(#d78033f953)"><path fill="#2196f3" d="M 108.667969 0.761719 C 108.222656 0.277344 107.671875 0.0351562 107.015625 0.0390625 L 13.507812 0.0390625 C 13.195312 0.0351562 12.890625 0.0976562 12.601562 0.222656 C 12.3125 0.351562 12.0625 0.53125 11.851562 0.761719 C 11.636719 0.996094 11.484375 1.257812 11.382812 1.558594 C 11.285156 1.855469 11.25 2.160156 11.28125 2.472656 L 20.1875 91.039062 C 20.230469 91.472656 20.390625 91.859375 20.664062 92.203125 C 20.9375 92.542969 21.28125 92.78125 21.699219 92.921875 L 61.769531 106.207031 C 62.003906 106.28125 62.242188 106.316406 62.488281 106.316406 C 62.757812 106.316406 63.019531 106.269531 63.273438 106.175781 L 98.894531 92.890625 C 99.292969 92.742188 99.621094 92.503906 99.878906 92.171875 C 100.140625 91.835938 100.292969 91.460938 100.335938 91.039062 L 109.242188 2.472656 C 109.304688 1.816406 109.113281 1.25 108.667969 0.761719 Z M 108.667969 0.761719 " fill-opacity="1" fill-rule="nonzero"/></g><path fill="#fafafa" d="M 62.488281 84.175781 C 62.246094 84.175781 62.011719 84.136719 61.785156 84.066406 L 41.746094 77.421875 C 41.371094 77.296875 41.046875 77.085938 40.785156 76.789062 C 40.519531 76.492188 40.347656 76.148438 40.269531 75.761719 L 38.042969 64.691406 C 37.984375 64.402344 37.984375 64.113281 38.039062 63.828125 C 38.09375 63.539062 38.203125 63.269531 38.367188 63.027344 C 38.53125 62.78125 38.734375 62.578125 38.976562 62.410156 C 39.222656 62.246094 39.492188 62.136719 39.78125 62.078125 C 40.070312 62.019531 40.359375 62.015625 40.648438 62.074219 C 40.9375 62.128906 41.207031 62.238281 41.453125 62.398438 C 41.699219 62.5625 41.90625 62.765625 42.070312 63.007812 C 42.234375 63.25 42.347656 63.515625 42.40625 63.804688 L 44.378906 73.613281 L 62.445312 79.613281 L 78.320312 73.695312 L 86.558594 26.605469 L 35.773438 26.605469 C 35.476562 26.605469 35.191406 26.550781 34.921875 26.4375 C 34.648438 26.328125 34.40625 26.167969 34.199219 25.957031 C 33.988281 25.75 33.828125 25.511719 33.714844 25.242188 C 33.601562 24.96875 33.546875 24.6875 33.546875 24.394531 C 33.546875 24.097656 33.601562 23.816406 33.714844 23.546875 C 33.828125 23.273438 33.988281 23.035156 34.199219 22.828125 C 34.40625 22.621094 34.648438 22.460938 34.921875 22.347656 C 35.191406 22.234375 35.476562 22.179688 35.773438 22.179688 L 89.203125 22.179688 C 89.53125 22.179688 89.847656 22.246094 90.144531 22.386719 C 90.441406 22.523438 90.699219 22.71875 90.910156 22.96875 C 91.121094 23.21875 91.269531 23.5 91.355469 23.816406 C 91.441406 24.132812 91.457031 24.453125 91.398438 24.773438 L 82.492188 75.699219 C 82.425781 76.085938 82.265625 76.429688 82.015625 76.730469 C 81.761719 77.035156 81.453125 77.253906 81.082031 77.390625 L 63.273438 84.035156 C 63.019531 84.128906 62.757812 84.175781 62.488281 84.175781 Z M 62.488281 84.175781 " fill-opacity="1" fill-rule="nonzero"/><path fill="#fafafa" d="M 84.75 48.75 L 38 48.75 C 37.703125 48.75 37.417969 48.691406 37.148438 48.582031 C 36.875 48.46875 36.632812 48.308594 36.425781 48.101562 C 36.214844 47.894531 36.054688 47.652344 35.941406 47.382812 C 35.828125 47.109375 35.773438 46.828125 35.773438 46.535156 C 35.773438 46.242188 35.828125 45.957031 35.941406 45.6875 C 36.054688 45.417969 36.214844 45.175781 36.425781 44.96875 C 36.632812 44.761719 36.875 44.601562 37.148438 44.488281 C 37.417969 44.375 37.703125 44.320312 38 44.320312 L 84.75 44.320312 C 85.046875 44.320312 85.332031 44.375 85.601562 44.488281 C 85.875 44.601562 86.117188 44.761719 86.324219 44.96875 C 86.535156 45.175781 86.695312 45.417969 86.808594 45.6875 C 86.921875 45.957031 86.976562 46.242188 86.976562 46.535156 C 86.976562 46.828125 86.921875 47.109375 86.808594 47.382812 C 86.695312 47.652344 86.535156 47.894531 86.324219 48.101562 C 86.117188 48.308594 85.875 48.46875 85.601562 48.582031 C 85.332031 48.691406 85.046875 48.75 84.75 48.75 Z M 84.75 48.75 " fill-opacity="1" fill-rule="nonzero"/><g fill="#eceff4" fill-opacity="1"><g transform="translate(6.528225, 141.195223)"><g><path d="M 18.640625 -15.1875 C 18.640625 -14.90625 18.492188 -14.765625 18.203125 -14.765625 L 16.734375 -14.765625 C 16.441406 -14.765625 16.296875 -14.90625 16.296875 -15.1875 L 16.296875 -16.640625 C 16.273438 -17.234375 16.054688 -17.734375 15.640625 -18.140625 C 15.234375 -18.546875 14.734375 -18.75 14.140625 -18.75 L 7.28125 -18.75 C 6.6875 -18.75 6.179688 -18.539062 5.765625 -18.125 C 5.347656 -17.707031 5.140625 -17.203125 5.140625 -16.609375 L 5.140625 -4.484375 C 5.140625 -3.890625 5.347656 -3.382812 5.765625 -2.96875 C 6.179688 -2.550781 6.6875 -2.34375 7.28125 -2.34375 L 14.140625 -2.34375 C 14.734375 -2.34375 15.234375 -2.539062 15.640625 -2.9375 C 16.054688 -3.332031 16.273438 -3.828125 16.296875 -4.421875 L 16.296875 -5.90625 C 16.296875 -6.007812 16.335938 -6.101562 16.421875 -6.1875 C 16.503906 -6.28125 16.609375 -6.328125 16.734375 -6.328125 L 18.203125 -6.328125 C 18.328125 -6.328125 18.429688 -6.28125 18.515625 -6.1875 C 18.597656 -6.101562 18.640625 -6.007812 18.640625 -5.90625 L 18.640625 -4.421875 C 18.640625 -3.804688 18.515625 -3.234375 18.265625 -2.703125 C 18.015625 -2.171875 17.691406 -1.703125 17.296875 -1.296875 C 16.898438 -0.898438 16.425781 -0.582031 15.875 -0.34375 C 15.332031 -0.113281 14.753906 0 14.140625 0 L 7.28125 0 C 6.664062 0 6.085938 -0.113281 5.546875 -0.34375 C 5.003906 -0.582031 4.53125 -0.898438 4.125 -1.296875 C 3.726562 -1.703125 3.410156 -2.179688 3.171875 -2.734375 C 2.941406 -3.285156 2.828125 -3.867188 2.828125 -4.484375 L 2.828125 -16.609375 C 2.828125 -17.222656 2.941406 -17.800781 3.171875 -18.34375 C 3.410156 -18.882812 3.726562 -19.359375 4.125 -19.765625 C 4.53125 -20.179688 5.003906 -20.503906 5.546875 -20.734375 C 6.085938 -20.972656 6.664062 -21.09375 7.28125 -21.09375 L 14.140625 -21.09375 C 14.753906 -21.09375 15.332031 -20.972656 15.875 -20.734375 C 16.425781 -20.503906 16.898438 -20.1875 17.296875 -19.78125 C 17.691406 -19.382812 18.015625 -18.914062 18.265625 -18.375 C 18.515625 -17.832031 18.640625 -17.253906 18.640625 -16.640625 Z M 18.640625 -15.1875 "/></g></g></g><g fill="#eceff4" fill-opacity="1"><g transform="translate(27.95359, 141.195223)"><g><path d="M 2.796875 -4.484375 L 2.796875 -5.90625 C 2.796875 -6.007812 2.84375 -6.101562 2.9375 -6.1875 C 3.03125 -6.28125 3.128906 -6.328125 3.234375 -6.328125 L 4.703125 -6.328125 C 4.828125 -6.328125 4.929688 -6.28125 5.015625 -6.1875 C 5.097656 -6.101562 5.140625 -6.007812 5.140625 -5.90625 L 5.140625 -4.484375 C 5.140625 -3.890625 5.347656 -3.382812 5.765625 -2.96875 C 6.179688 -2.550781 6.6875 -2.34375 7.28125 -2.34375 L 14.140625 -2.34375 C 14.734375 -2.34375 15.238281 -2.550781 15.65625 -2.96875 C 16.082031 -3.382812 16.296875 -3.890625 16.296875 -4.484375 L 16.296875 -7.21875 C 16.296875 -7.820312 16.082031 -8.332031 15.65625 -8.75 C 15.238281 -9.164062 14.734375 -9.375 14.140625 -9.375 L 7.28125 -9.375 C 6.664062 -9.375 6.085938 -9.492188 5.546875 -9.734375 C 5.003906 -9.972656 4.523438 -10.289062 4.109375 -10.6875 C 3.703125 -11.082031 3.378906 -11.554688 3.140625 -12.109375 C 2.910156 -12.671875 2.796875 -13.257812 2.796875 -13.875 L 2.796875 -16.609375 C 2.796875 -17.222656 2.910156 -17.800781 3.140625 -18.34375 C 3.378906 -18.882812 3.703125 -19.359375 4.109375 -19.765625 C 4.523438 -20.179688 5.003906 -20.503906 5.546875 -20.734375 C 6.085938 -20.972656 6.664062 -21.09375 7.28125 -21.09375 L 14.140625 -21.09375 C 14.753906 -21.09375 15.332031 -20.972656 15.875 -20.734375 C 16.425781 -20.503906 16.90625 -20.179688 17.3125 -19.765625 C 17.71875 -19.359375 18.039062 -18.882812 18.28125 -18.34375 C 18.519531 -17.800781 18.640625 -17.222656 18.640625 -16.609375 L 18.640625 -15.1875 C 18.640625 -14.90625 18.492188 -14.765625 18.203125 -14.765625 L 16.734375 -14.765625 C 16.441406 -14.765625 16.296875 -14.90625 16.296875 -15.1875 L 16.296875 -16.609375 C 16.296875 -17.203125 16.082031 -17.707031 15.65625 -18.125 C 15.238281 -18.539062 14.734375 -18.75 14.140625 -18.75 L 7.28125 -18.75 C 6.6875 -18.75 6.179688 -18.539062 5.765625 -18.125 C 5.347656 -17.707031 5.140625 -17.203125 5.140625 -16.609375 L 5.140625 -13.875 C 5.140625 -13.269531 5.347656 -12.757812 5.765625 -12.34375 C 6.179688 -11.925781 6.6875 -11.71875 7.28125 -11.71875 L 14.140625 -11.71875 C 14.753906 -11.71875 15.332031 -11.597656 15.875 -11.359375 C 16.425781 -11.128906 16.90625 -10.804688 17.3125 -10.390625 C 17.71875 -9.984375 18.039062 -9.507812 18.28125 -8.96875 C 18.519531 -8.425781 18.640625 -7.84375 18.640625 -7.21875 L 18.640625 -4.484375 C 18.640625 -3.867188 18.519531 -3.285156 18.28125 -2.734375 C 18.039062 -2.179688 17.71875 -1.703125 17.3125 -1.296875 C 16.90625 -0.898438 16.425781 -0.582031 15.875 -0.34375 C 15.332031 -0.113281 14.753906 0 14.140625 0 L 7.28125 0 C 6.664062 0 6.085938 -0.113281 5.546875 -0.34375 C 5.003906 -0.582031 4.523438 -0.898438 4.109375 -1.296875 C 3.703125 -1.703125 3.378906 -2.179688 3.140625 -2.734375 C 2.910156 -3.285156 2.796875 -3.867188 2.796875 -4.484375 Z M 2.796875 -4.484375 "/></g></g></g><g fill="#eceff4" fill-opacity="1"><g transform="translate(49.378955, 141.195223)"><g><path d="M 2.796875 -4.484375 L 2.796875 -5.90625 C 2.796875 -6.007812 2.84375 -6.101562 2.9375 -6.1875 C 3.03125 -6.28125 3.128906 -6.328125 3.234375 -6.328125 L 4.703125 -6.328125 C 4.828125 -6.328125 4.929688 -6.28125 5.015625 -6.1875 C 5.097656 -6.101562 5.140625 -6.007812 5.140625 -5.90625 L 5.140625 -4.484375 C 5.140625 -3.890625 5.347656 -3.382812 5.765625 -2.96875 C 6.179688 -2.550781 6.6875 -2.34375 7.28125 -2.34375 L 14.140625 -2.34375 C 14.734375 -2.34375 15.238281 -2.550781 15.65625 -2.96875 C 16.082031 -3.382812 16.296875 -3.890625 16.296875 -4.484375 L 16.296875 -7.21875 C 16.296875 -7.820312 16.082031 -8.332031 15.65625 -8.75 C 15.238281 -9.164062 14.734375 -9.375 14.140625 -9.375 L 7.28125 -9.375 C 6.664062 -9.375 6.085938 -9.492188 5.546875 -9.734375 C 5.003906 -9.972656 4.523438 -10.289062 4.109375 -10.6875 C 3.703125 -11.082031 3.378906 -11.554688 3.140625 -12.109375 C 2.910156 -12.671875 2.796875 -13.257812 2.796875 -13.875 L 2.796875 -16.609375 C 2.796875 -17.222656 2.910156 -17.800781 3.140625 -18.34375 C 3.378906 -18.882812 3.703125 -19.359375 4.109375 -19.765625 C 4.523438 -20.179688 5.003906 -20.503906 5.546875 -20.734375 C 6.085938 -20.972656 6.664062 -21.09375 7.28125 -21.09375 L 14.140625 -21.09375 C 14.753906 -21.09375 15.332031 -20.972656 15.875 -20.734375 C 16.425781 -20.503906 16.90625 -20.179688 17.3125 -19.765625 C 17.71875 -19.359375 18.039062 -18.882812 18.28125 -18.34375 C 18.519531 -17.800781 18.640625 -17.222656 18.640625 -16.609375 L 18.640625 -15.1875 C 18.640625 -14.90625 18.492188 -14.765625 18.203125 -14.765625 L 16.734375 -14.765625 C 16.441406 -14.765625 16.296875 -14.90625 16.296875 -15.1875 L 16.296875 -16.609375 C 16.296875 -17.203125 16.082031 -17.707031 15.65625 -18.125 C 15.238281 -18.539062 14.734375 -18.75 14.140625 -18.75 L 7.28125 -18.75 C 6.6875 -18.75 6.179688 -18.539062 5.765625 -18.125 C 5.347656 -17.707031 5.140625 -17.203125 5.140625 -16.609375 L 5.140625 -13.875 C 5.140625 -13.269531 5.347656 -12.757812 5.765625 -12.34375 C 6.179688 -11.925781 6.6875 -11.71875 7.28125 -11.71875 L 14.140625 -11.71875 C 14.753906 -11.71875 15.332031 -11.597656 15.875 -11.359375 C 16.425781 -11.128906 16.90625 -10.804688 17.3125 -10.390625 C 17.71875 -9.984375 18.039062 -9.507812 18.28125 -8.96875 C 18.519531 -8.425781 18.640625 -7.84375 18.640625 -7.21875 L 18.640625 -4.484375 C 18.640625 -3.867188 18.519531 -3.285156 18.28125 -2.734375 C 18.039062 -2.179688 17.71875 -1.703125 17.3125 -1.296875 C 16.90625 -0.898438 16.425781 -0.582031 15.875 -0.34375 C 15.332031 -0.113281 14.753906 0 14.140625 0 L 7.28125 0 C 6.664062 0 6.085938 -0.113281 5.546875 -0.34375 C 5.003906 -0.582031 4.523438 -0.898438 4.109375 -1.296875 C 3.703125 -1.703125 3.378906 -2.179688 3.140625 -2.734375 C 2.910156 -3.285156 2.796875 -3.867188 2.796875 -4.484375 Z M 2.796875 -4.484375 "/></g></g></g><g fill="#eceff4" fill-opacity="1"><g transform="translate(70.80432, 141.195223)"><g/></g></g><g fill="#eceff4" fill-opacity="1"><g transform="translate(92.198948, 141.195223)"><g><path d="M 14.140625 -21.09375 C 14.753906 -21.09375 15.332031 -20.972656 15.875 -20.734375 C 16.425781 -20.503906 16.90625 -20.179688 17.3125 -19.765625 C 17.71875 -19.359375 18.039062 -18.882812 18.28125 -18.34375 C 18.519531 -17.800781 18.640625 -17.222656 18.640625 -16.609375 L 18.640625 -13.875 C 18.640625 -12.84375 18.320312 -11.925781 17.6875 -11.125 L 17.21875 -10.546875 L 17.6875 -9.96875 C 18.320312 -9.144531 18.640625 -8.226562 18.640625 -7.21875 L 18.640625 -4.484375 C 18.640625 -3.867188 18.519531 -3.285156 18.28125 -2.734375 C 18.039062 -2.179688 17.71875 -1.703125 17.3125 -1.296875 C 16.90625 -0.898438 16.425781 -0.582031 15.875 -0.34375 C 15.332031 -0.113281 14.753906 0 14.140625 0 L 7.28125 0 C 6.6875 0 6.132812 -0.101562 5.625 -0.3125 C 5.113281 -0.53125 4.65625 -0.820312 4.25 -1.1875 C 3.851562 -1.5625 3.523438 -2 3.265625 -2.5 C 3.015625 -3.007812 2.867188 -3.550781 2.828125 -4.125 L 2.828125 -5.90625 C 2.828125 -6.007812 2.867188 -6.101562 2.953125 -6.1875 C 3.035156 -6.28125 3.140625 -6.328125 3.265625 -6.328125 L 4.703125 -6.328125 C 4.828125 -6.328125 4.929688 -6.28125 5.015625 -6.1875 C 5.097656 -6.101562 5.140625 -6.007812 5.140625 -5.90625 L 5.140625 -4.421875 C 5.160156 -3.828125 5.375 -3.332031 5.78125 -2.9375 C 6.1875 -2.539062 6.6875 -2.34375 7.28125 -2.34375 L 14.140625 -2.34375 C 14.734375 -2.34375 15.238281 -2.550781 15.65625 -2.96875 C 16.082031 -3.382812 16.296875 -3.890625 16.296875 -4.484375 L 16.296875 -7.21875 C 16.296875 -7.820312 16.082031 -8.332031 15.65625 -8.75 C 15.238281 -9.164062 14.734375 -9.375 14.140625 -9.375 L 7.4375 -9.375 C 7.332031 -9.375 7.234375 -9.414062 7.140625 -9.5 C 7.054688 -9.582031 7.015625 -9.6875 7.015625 -9.8125 L 7.015625 -11.28125 C 7.015625 -11.382812 7.054688 -11.484375 7.140625 -11.578125 C 7.234375 -11.671875 7.332031 -11.71875 7.4375 -11.71875 L 14.140625 -11.71875 C 14.734375 -11.71875 15.238281 -11.925781 15.65625 -12.34375 C 16.082031 -12.757812 16.296875 -13.269531 16.296875 -13.875 L 16.296875 -16.609375 C 16.296875 -17.203125 16.082031 -17.707031 15.65625 -18.125 C 15.238281 -18.539062 14.734375 -18.75 14.140625 -18.75 L 7.28125 -18.75 C 6.6875 -18.75 6.1875 -18.546875 5.78125 -18.140625 C 5.375 -17.734375 5.160156 -17.234375 5.140625 -16.640625 L 5.140625 -15.1875 C 5.140625 -14.90625 4.992188 -14.765625 4.703125 -14.765625 L 3.265625 -14.765625 C 2.972656 -14.765625 2.828125 -14.90625 2.828125 -15.1875 L 2.828125 -16.9375 C 2.867188 -17.507812 3.015625 -18.046875 3.265625 -18.546875 C 3.523438 -19.054688 3.851562 -19.5 4.25 -19.875 C 4.65625 -20.257812 5.113281 -20.554688 5.625 -20.765625 C 6.132812 -20.984375 6.6875 -21.09375 7.28125 -21.09375 Z M 14.140625 -21.09375 "/></g></g></g></svg>