<svg xmlns="http://www.w3.org/2000/svg" xmlns:xlink="http://www.w3.org/1999/xlink" width="195" zoomAndPan="magnify" viewBox="0 0 146.25 135.749996" height="181" preserveAspectRatio="xMidYMid meet" version="1.0"><defs><g/><clipPath id="574af06e73"><path d="M 0 47 L 61 47 L 61 76.332031 L 0 76.332031 Z M 0 47 " clip-rule="nonzero"/></clipPath></defs><g clip-path="url(#574af06e73)"><path fill="#00618a" d="M 0.527344 69.753906 L 5.285156 69.753906 L 5.285156 51.054688 L 12.652344 67.363281 C 13.519531 69.328125 14.710938 70.035156 17.042969 70.035156 C 19.378906 70.035156 20.523438 69.335938 21.390625 67.363281 L 28.761719 51.054688 L 28.761719 69.761719 L 33.519531 69.761719 L 33.519531 51.085938 C 33.519531 49.265625 32.785156 48.382812 31.277344 47.929688 C 27.660156 46.804688 25.238281 47.777344 24.140625 50.207031 L 16.910156 66.300781 L 9.90625 50.199219 C 8.855469 47.769531 6.382812 46.796875 2.769531 47.921875 C 1.257812 48.375 0.527344 49.257812 0.527344 51.078125 Z M 37.476562 54.53125 L 42.234375 54.53125 L 42.234375 64.835938 C 42.1875 65.398438 42.414062 66.710938 45.019531 66.75 C 46.351562 66.773438 55.285156 66.75 55.367188 66.75 L 55.367188 54.476562 L 60.136719 54.476562 C 60.15625 54.476562 60.132812 71.210938 60.132812 71.285156 C 60.160156 75.410156 54.988281 76.308594 52.605469 76.378906 L 37.578125 76.378906 L 37.578125 73.191406 L 52.632812 73.1875 C 55.695312 72.867188 55.332031 71.351562 55.332031 70.839844 L 55.332031 69.597656 L 45.21875 69.597656 C 40.511719 69.554688 37.515625 67.511719 37.480469 65.160156 C 37.476562 64.949219 37.582031 54.628906 37.476562 54.527344 Z M 37.476562 54.53125 " fill-opacity="1" fill-rule="nonzero"/></g><path fill="#e48e00" d="M 63.804688 69.753906 L 77.488281 69.753906 C 79.089844 69.753906 80.644531 69.421875 81.882812 68.84375 C 83.941406 67.902344 84.949219 66.628906 84.949219 64.957031 L 84.949219 61.496094 C 84.949219 60.128906 83.804688 58.855469 81.5625 58.003906 C 80.371094 57.546875 78.90625 57.304688 77.488281 57.304688 L 71.722656 57.304688 C 69.800781 57.304688 68.886719 56.726562 68.65625 55.453125 C 68.613281 55.300781 68.613281 55.171875 68.613281 55.027344 L 68.613281 52.871094 C 68.613281 52.75 68.613281 52.628906 68.65625 52.476562 C 68.886719 51.503906 69.390625 51.230469 71.082031 51.070312 C 71.21875 51.070312 71.402344 51.042969 71.542969 51.042969 L 85.132812 51.042969 L 85.132812 47.882812 L 71.769531 47.882812 C 69.847656 47.882812 68.839844 48.003906 67.925781 48.277344 C 65.085938 49.160156 63.847656 50.5625 63.847656 52.992188 L 63.847656 55.757812 C 63.847656 57.882812 66.277344 59.703125 70.347656 60.128906 C 70.804688 60.160156 71.261719 60.191406 71.71875 60.191406 L 76.660156 60.191406 C 76.84375 60.191406 77.027344 60.191406 77.164062 60.222656 C 78.675781 60.34375 79.316406 60.617188 79.773438 61.160156 C 80.054688 61.441406 80.140625 61.710938 80.140625 62.003906 L 80.140625 64.769531 C 80.140625 65.101562 79.910156 65.527344 79.453125 65.890625 C 79.042969 66.257812 78.355469 66.5 77.441406 66.558594 C 77.257812 66.558594 77.121094 66.589844 76.9375 66.589844 L 63.804688 66.589844 Z M 114.632812 64.257812 C 114.632812 67.507812 117.058594 69.332031 121.957031 69.695312 C 122.414062 69.730469 122.871094 69.75 123.328125 69.753906 L 135.730469 69.753906 L 135.730469 66.597656 L 123.238281 66.597656 C 120.445312 66.597656 119.394531 65.898438 119.394531 64.226562 L 119.394531 47.890625 L 114.632812 47.890625 Z M 87.984375 64.421875 L 87.984375 53.164062 C 87.984375 50.304688 90 48.570312 93.988281 48.023438 C 94.417969 47.960938 94.84375 47.929688 95.273438 47.929688 L 104.308594 47.929688 C 104.753906 47.929688 105.195312 47.960938 105.636719 48.023438 C 109.628906 48.570312 111.644531 50.304688 111.644531 53.164062 L 111.644531 64.421875 C 111.644531 66.746094 110.789062 67.984375 108.8125 68.796875 L 113.5 73.007812 L 107.976562 73.007812 L 104.183594 69.601562 L 100.363281 69.839844 L 95.273438 69.839844 C 94.402344 69.839844 93.488281 69.71875 92.476562 69.445312 C 89.445312 68.625 87.984375 67.042969 87.984375 64.421875 Z M 93.121094 64.144531 C 93.121094 64.296875 93.167969 64.445312 93.210938 64.628906 C 93.496094 65.9375 94.726562 66.667969 96.597656 66.667969 L 100.921875 66.667969 L 96.949219 63.101562 L 102.476562 63.101562 L 105.933594 66.210938 C 106.570312 65.875 106.988281 65.355469 107.132812 64.691406 C 107.175781 64.539062 107.175781 64.386719 107.175781 64.234375 L 107.175781 53.441406 C 107.175781 53.316406 107.175781 53.160156 107.132812 53.011719 C 106.847656 51.796875 105.617188 51.097656 103.785156 51.097656 L 96.609375 51.097656 C 94.496094 51.097656 93.125 52.007812 93.125 53.441406 L 93.125 64.152344 Z M 93.121094 64.144531 " fill-opacity="1" fill-rule="nonzero"/><path fill="#00618a" d="M 139.914062 42.652344 C 136.988281 42.574219 134.753906 42.84375 132.84375 43.644531 C 132.300781 43.871094 131.433594 43.878906 131.347656 44.554688 C 131.644531 44.867188 131.691406 45.332031 131.929688 45.714844 C 132.382812 46.449219 133.15625 47.433594 133.839844 47.949219 C 134.59375 48.515625 135.363281 49.117188 136.171875 49.605469 C 137.601562 50.476562 139.203125 50.972656 140.578125 51.84375 C 141.390625 52.355469 142.199219 53 142.992188 53.582031 C 143.382812 53.867188 143.648438 54.3125 144.15625 54.492188 L 144.15625 54.410156 C 143.886719 54.070312 143.820312 53.601562 143.574219 53.25 L 142.492188 52.171875 C 141.433594 50.769531 140.09375 49.550781 138.664062 48.53125 C 137.527344 47.714844 134.980469 46.617188 134.507812 45.300781 L 134.421875 45.21875 C 135.230469 45.125 136.175781 44.835938 136.921875 44.636719 C 138.171875 44.304688 139.289062 44.390625 140.582031 44.058594 L 142.328125 43.5625 L 142.328125 43.230469 C 141.675781 42.5625 141.210938 41.679688 140.496094 41.078125 C 138.636719 39.496094 136.601562 37.921875 134.507812 36.605469 C 133.347656 35.875 131.914062 35.402344 130.683594 34.78125 C 130.269531 34.574219 129.542969 34.46875 129.269531 34.121094 C 128.621094 33.300781 128.269531 32.257812 127.773438 31.3125 C 126.726562 29.3125 125.703125 27.125 124.777344 25.019531 C 124.144531 23.582031 123.734375 22.167969 122.949219 20.878906 C 119.171875 14.695312 115.105469 10.964844 108.808594 7.300781 C 107.46875 6.519531 105.855469 6.210938 104.148438 5.808594 L 101.402344 5.644531 C 100.84375 5.410156 100.261719 4.730469 99.738281 4.398438 C 97.652344 3.085938 92.300781 0.234375 90.753906 3.980469 C 89.78125 6.347656 92.214844 8.65625 93.085938 9.859375 C 93.695312 10.699219 94.476562 11.644531 94.914062 12.589844 C 95.203125 13.214844 95.25 13.835938 95.496094 14.496094 C 96.101562 16.109375 96.628906 17.882812 97.410156 19.382812 C 97.804688 20.140625 98.242188 20.9375 98.742188 21.617188 C 99.046875 22.035156 99.574219 22.214844 99.65625 22.859375 C 99.140625 23.574219 99.113281 24.683594 98.824219 25.59375 C 97.523438 29.671875 98.011719 34.746094 99.90625 37.765625 C 100.484375 38.691406 101.851562 40.679688 103.730469 39.917969 C 105.375 39.25 105 37.1875 105.476562 35.363281 C 105.582031 34.949219 105.519531 34.648438 105.726562 34.371094 L 105.726562 34.453125 L 107.226562 37.433594 C 108.332031 39.210938 110.300781 41.066406 111.964844 42.320312 C 112.832031 42.96875 113.519531 44.09375 114.628906 44.472656 L 114.628906 44.390625 L 114.546875 44.390625 C 114.328125 44.054688 113.988281 43.914062 113.710938 43.644531 C 113.0625 43.011719 112.335938 42.21875 111.800781 41.492188 C 110.28125 39.445312 108.945312 37.203125 107.722656 34.867188 C 107.140625 33.753906 106.632812 32.523438 106.144531 31.390625 C 105.953125 30.953125 105.957031 30.292969 105.5625 30.066406 C 105.023438 30.898438 104.230469 31.570312 103.816406 32.550781 C 103.148438 34.117188 103.0625 36.03125 102.816406 38.015625 C 102.671875 38.066406 102.734375 38.03125 102.648438 38.097656 C 101.492188 37.820312 101.085938 36.632812 100.652344 35.613281 C 99.566406 33.039062 99.363281 28.890625 100.320312 25.925781 C 100.566406 25.160156 101.691406 22.742188 101.234375 22.035156 C 101.019531 21.328125 100.304688 20.910156 99.90625 20.378906 C 99.410156 19.710938 98.917969 18.832031 98.574219 18.058594 C 97.683594 16.050781 97.265625 13.796875 96.328125 11.765625 C 95.878906 10.796875 95.121094 9.8125 94.5 8.957031 C 93.808594 8.003906 93.035156 7.296875 92.503906 6.148438 C 92.3125 5.738281 92.054688 5.082031 92.335938 4.660156 C 92.394531 4.386719 92.5625 4.222656 92.835938 4.160156 C 93.316406 3.792969 94.664062 4.285156 95.164062 4.492188 C 96.496094 5.042969 97.613281 5.570312 98.742188 6.316406 C 99.285156 6.664062 99.832031 7.367188 100.488281 7.558594 L 101.234375 7.558594 C 102.40625 7.824219 103.71875 7.640625 104.8125 7.972656 C 106.746094 8.558594 108.476562 9.46875 110.054688 10.457031 C 114.847656 13.46875 118.765625 17.757812 121.449219 22.882812 C 121.878906 23.707031 122.066406 24.496094 122.445312 25.367188 C 123.214844 27.121094 124.179688 28.945312 124.941406 30.667969 C 125.703125 32.386719 126.445312 34.121094 127.519531 35.550781 C 128.085938 36.304688 130.273438 36.707031 131.265625 37.125 C 131.960938 37.417969 133.101562 37.722656 133.757812 38.117188 C 135.019531 38.875 136.238281 39.773438 137.421875 40.605469 C 138.011719 41.019531 139.824219 41.925781 139.914062 42.671875 Z M 139.914062 42.652344 " fill-opacity="1" fill-rule="nonzero"/><path fill="#00618a" d="M 102.734375 11.101562 C 102.125 11.09375 101.695312 11.167969 101.238281 11.269531 L 101.238281 11.351562 L 101.320312 11.351562 C 101.613281 11.949219 102.125 12.328125 102.484375 12.84375 L 103.316406 14.582031 L 103.402344 14.5 C 103.914062 14.136719 104.152344 13.558594 104.148438 12.675781 C 103.941406 12.460938 103.910156 12.1875 103.730469 11.929688 C 103.496094 11.585938 103.027344 11.390625 102.734375 11.101562 Z M 102.734375 11.101562 " fill-opacity="1" fill-rule="evenodd"/><path fill="#e48e00" d="M 137.96875 66.507812 C 137.96875 68.59375 139.621094 70 141.472656 70 C 143.324219 70 144.980469 68.59375 144.980469 66.507812 C 144.980469 64.421875 143.324219 63.015625 141.472656 63.015625 C 139.621094 63.015625 137.96875 64.421875 137.96875 66.507812 Z M 144.195312 66.507812 C 144.195312 68.089844 142.980469 69.273438 141.472656 69.273438 C 139.949219 69.273438 138.75 68.089844 138.75 66.507812 C 138.75 64.925781 139.949219 63.742188 141.472656 63.742188 C 142.976562 63.742188 144.195312 64.925781 144.195312 66.507812 Z M 142.417969 68.5 L 143.203125 68.5 L 142.054688 66.75 C 142.671875 66.683594 143.136719 66.386719 143.136719 65.660156 C 143.136719 64.851562 142.621094 64.515625 141.632812 64.515625 L 140.070312 64.515625 L 140.070312 68.5 L 140.742188 68.5 L 140.742188 66.777344 L 141.371094 66.777344 Z M 140.742188 66.21875 L 140.742188 65.074219 L 141.519531 65.074219 C 141.921875 65.074219 142.40625 65.148438 142.40625 65.613281 C 142.40625 66.171875 141.96875 66.21875 141.460938 66.21875 Z M 140.742188 66.21875 " fill-opacity="1" fill-rule="evenodd"/><g fill="#eceff4" fill-opacity="1"><g transform="translate(10.717365, 117.436866)"><g><path d="M 18.109375 -23.984375 C 18.179688 -24.097656 18.289062 -24.195312 18.4375 -24.28125 C 18.59375 -24.363281 18.742188 -24.40625 18.890625 -24.40625 L 21.0625 -24.40625 C 21.394531 -24.40625 21.5625 -24.238281 21.5625 -23.90625 L 21.5625 -0.5 C 21.5625 -0.164062 21.394531 0 21.0625 0 L 19.359375 0 C 19.023438 0 18.859375 -0.164062 18.859375 -0.5 L 18.859375 -21.03125 L 13.703125 -12.625 C 13.628906 -12.507812 13.515625 -12.410156 13.359375 -12.328125 C 13.203125 -12.242188 13.066406 -12.203125 12.953125 -12.203125 L 11.890625 -12.203125 C 11.742188 -12.203125 11.59375 -12.242188 11.4375 -12.328125 C 11.28125 -12.410156 11.164062 -12.507812 11.09375 -12.625 L 5.9375 -21.03125 L 5.9375 -0.5 C 5.9375 -0.164062 5.769531 0 5.4375 0 L 3.765625 0 C 3.429688 0 3.265625 -0.164062 3.265625 -0.5 L 3.265625 -23.90625 C 3.265625 -24.238281 3.429688 -24.40625 3.765625 -24.40625 L 5.9375 -24.40625 C 6.0625 -24.40625 6.195312 -24.363281 6.34375 -24.28125 C 6.5 -24.195312 6.613281 -24.097656 6.6875 -23.984375 L 12.421875 -15.4375 Z M 18.109375 -23.984375 "/></g></g></g><g fill="#eceff4" fill-opacity="1"><g transform="translate(35.510644, 117.436866)"><g><path d="M 3.59375 -17.4375 C 3.5 -17.550781 3.414062 -17.6875 3.34375 -17.84375 C 3.269531 -18 3.234375 -18.144531 3.234375 -18.28125 L 3.234375 -23.90625 C 3.234375 -24.03125 3.285156 -24.144531 3.390625 -24.25 C 3.503906 -24.351562 3.617188 -24.40625 3.734375 -24.40625 L 5.4375 -24.40625 C 5.582031 -24.40625 5.703125 -24.351562 5.796875 -24.25 C 5.890625 -24.144531 5.9375 -24.03125 5.9375 -23.90625 L 5.9375 -19.359375 C 5.9375 -19.234375 5.972656 -19.085938 6.046875 -18.921875 C 6.117188 -18.753906 6.203125 -18.613281 6.296875 -18.5 L 12.421875 -12.53125 L 18.5 -18.5 C 18.613281 -18.613281 18.703125 -18.753906 18.765625 -18.921875 C 18.828125 -19.085938 18.859375 -19.234375 18.859375 -19.359375 L 18.859375 -23.90625 C 18.859375 -24.03125 18.90625 -24.144531 19 -24.25 C 19.09375 -24.351562 19.210938 -24.40625 19.359375 -24.40625 L 21.0625 -24.40625 C 21.207031 -24.40625 21.328125 -24.351562 21.421875 -24.25 C 21.515625 -24.144531 21.5625 -24.03125 21.5625 -23.90625 L 21.5625 -18.28125 C 21.5625 -18.144531 21.523438 -18 21.453125 -17.84375 C 21.378906 -17.6875 21.296875 -17.550781 21.203125 -17.4375 L 13.765625 -10.03125 L 13.765625 -0.5 C 13.765625 -0.351562 13.710938 -0.234375 13.609375 -0.140625 C 13.503906 -0.046875 13.390625 0 13.265625 0 L 11.5625 0 C 11.226562 0 11.0625 -0.164062 11.0625 -0.5 L 11.0625 -10.03125 Z M 3.59375 -17.4375 "/></g></g></g><g fill="#eceff4" fill-opacity="1"><g transform="translate(60.268355, 117.436866)"><g><path d="M 3.234375 -5.1875 L 3.234375 -6.828125 C 3.234375 -6.953125 3.285156 -7.066406 3.390625 -7.171875 C 3.503906 -7.273438 3.617188 -7.328125 3.734375 -7.328125 L 5.4375 -7.328125 C 5.582031 -7.328125 5.703125 -7.273438 5.796875 -7.171875 C 5.890625 -7.066406 5.9375 -6.953125 5.9375 -6.828125 L 5.9375 -5.1875 C 5.9375 -4.5 6.179688 -3.910156 6.671875 -3.421875 C 7.160156 -2.941406 7.75 -2.703125 8.4375 -2.703125 L 16.359375 -2.703125 C 17.046875 -2.703125 17.632812 -2.941406 18.125 -3.421875 C 18.613281 -3.910156 18.859375 -4.5 18.859375 -5.1875 L 18.859375 -8.359375 C 18.859375 -9.046875 18.613281 -9.628906 18.125 -10.109375 C 17.632812 -10.597656 17.046875 -10.84375 16.359375 -10.84375 L 8.4375 -10.84375 C 7.71875 -10.84375 7.046875 -10.976562 6.421875 -11.25 C 5.796875 -11.53125 5.242188 -11.898438 4.765625 -12.359375 C 4.296875 -12.828125 3.921875 -13.378906 3.640625 -14.015625 C 3.367188 -14.660156 3.234375 -15.335938 3.234375 -16.046875 L 3.234375 -19.21875 C 3.234375 -19.925781 3.367188 -20.59375 3.640625 -21.21875 C 3.921875 -21.851562 4.296875 -22.40625 4.765625 -22.875 C 5.242188 -23.351562 5.796875 -23.726562 6.421875 -24 C 7.046875 -24.269531 7.71875 -24.40625 8.4375 -24.40625 L 16.359375 -24.40625 C 17.078125 -24.40625 17.75 -24.269531 18.375 -24 C 19 -23.726562 19.546875 -23.351562 20.015625 -22.875 C 20.492188 -22.40625 20.867188 -21.851562 21.140625 -21.21875 C 21.421875 -20.59375 21.5625 -19.925781 21.5625 -19.21875 L 21.5625 -17.578125 C 21.5625 -17.242188 21.394531 -17.078125 21.0625 -17.078125 L 19.359375 -17.078125 C 19.023438 -17.078125 18.859375 -17.242188 18.859375 -17.578125 L 18.859375 -19.21875 C 18.859375 -19.90625 18.613281 -20.488281 18.125 -20.96875 C 17.632812 -21.457031 17.046875 -21.703125 16.359375 -21.703125 L 8.4375 -21.703125 C 7.75 -21.703125 7.160156 -21.457031 6.671875 -20.96875 C 6.179688 -20.488281 5.9375 -19.90625 5.9375 -19.21875 L 5.9375 -16.046875 C 5.9375 -15.359375 6.179688 -14.769531 6.671875 -14.28125 C 7.160156 -13.800781 7.75 -13.5625 8.4375 -13.5625 L 16.359375 -13.5625 C 17.078125 -13.5625 17.75 -13.421875 18.375 -13.140625 C 19 -12.867188 19.546875 -12.492188 20.015625 -12.015625 C 20.492188 -11.546875 20.867188 -10.992188 21.140625 -10.359375 C 21.421875 -9.734375 21.5625 -9.066406 21.5625 -8.359375 L 21.5625 -5.1875 C 21.5625 -4.476562 21.421875 -3.800781 21.140625 -3.15625 C 20.867188 -2.519531 20.492188 -1.96875 20.015625 -1.5 C 19.546875 -1.039062 19 -0.675781 18.375 -0.40625 C 17.75 -0.132812 17.078125 0 16.359375 0 L 8.4375 0 C 7.71875 0 7.046875 -0.132812 6.421875 -0.40625 C 5.796875 -0.675781 5.242188 -1.039062 4.765625 -1.5 C 4.296875 -1.96875 3.921875 -2.519531 3.640625 -3.15625 C 3.367188 -3.800781 3.234375 -4.476562 3.234375 -5.1875 Z M 3.234375 -5.1875 "/></g></g></g><g fill="#eceff4" fill-opacity="1"><g transform="translate(85.061634, 117.436866)"><g><path d="M 11.0625 2.921875 L 11.0625 0 L 8.4375 0 C 7.71875 0 7.046875 -0.132812 6.421875 -0.40625 C 5.796875 -0.675781 5.242188 -1.039062 4.765625 -1.5 C 4.296875 -1.96875 3.921875 -2.519531 3.640625 -3.15625 C 3.367188 -3.800781 3.234375 -4.476562 3.234375 -5.1875 L 3.265625 -19.21875 C 3.265625 -19.925781 3.398438 -20.59375 3.671875 -21.21875 C 3.953125 -21.851562 4.320312 -22.40625 4.78125 -22.875 C 5.25 -23.351562 5.800781 -23.726562 6.4375 -24 C 7.082031 -24.269531 7.757812 -24.40625 8.46875 -24.40625 L 16.359375 -24.40625 C 17.078125 -24.40625 17.753906 -24.269531 18.390625 -24 C 19.035156 -23.726562 19.585938 -23.351562 20.046875 -22.875 C 20.503906 -22.40625 20.867188 -21.851562 21.140625 -21.21875 C 21.421875 -20.59375 21.5625 -19.925781 21.5625 -19.21875 L 21.5625 -5.1875 C 21.5625 -4.476562 21.421875 -3.800781 21.140625 -3.15625 C 20.867188 -2.519531 20.492188 -1.96875 20.015625 -1.5 C 19.546875 -1.039062 19 -0.675781 18.375 -0.40625 C 17.75 -0.132812 17.078125 0 16.359375 0 L 13.734375 0 L 13.734375 2.921875 C 13.734375 3.035156 13.6875 3.144531 13.59375 3.25 C 13.5 3.363281 13.378906 3.421875 13.234375 3.421875 L 11.5625 3.421875 C 11.414062 3.421875 11.296875 3.363281 11.203125 3.25 C 11.109375 3.144531 11.0625 3.035156 11.0625 2.921875 Z M 8.46875 -21.703125 C 7.78125 -21.703125 7.1875 -21.457031 6.6875 -20.96875 C 6.1875 -20.488281 5.9375 -19.90625 5.9375 -19.21875 L 5.9375 -5.1875 C 5.9375 -4.5 6.179688 -3.910156 6.671875 -3.421875 C 7.160156 -2.941406 7.75 -2.703125 8.4375 -2.703125 L 16.359375 -2.703125 C 17.046875 -2.703125 17.632812 -2.941406 18.125 -3.421875 C 18.613281 -3.910156 18.859375 -4.5 18.859375 -5.1875 L 18.859375 -19.21875 C 18.859375 -19.90625 18.613281 -20.488281 18.125 -20.96875 C 17.632812 -21.457031 17.046875 -21.703125 16.359375 -21.703125 Z M 8.46875 -21.703125 "/></g></g></g><g fill="#eceff4" fill-opacity="1"><g transform="translate(109.819344, 117.436866)"><g><path d="M 4.703125 -24.40625 L 6.40625 -24.40625 C 6.738281 -24.40625 6.90625 -24.238281 6.90625 -23.90625 L 6.90625 -2.703125 L 20.8125 -2.703125 C 20.957031 -2.703125 21.078125 -2.648438 21.171875 -2.546875 C 21.265625 -2.441406 21.3125 -2.328125 21.3125 -2.203125 L 21.3125 -0.5 C 21.3125 -0.164062 21.144531 0 20.8125 0 L 4.703125 0 C 4.578125 0 4.460938 -0.046875 4.359375 -0.140625 C 4.253906 -0.234375 4.203125 -0.351562 4.203125 -0.5 L 4.203125 -23.90625 C 4.203125 -24.050781 4.253906 -24.171875 4.359375 -24.265625 C 4.460938 -24.359375 4.578125 -24.40625 4.703125 -24.40625 Z M 4.703125 -24.40625 "/></g></g></g></svg>