<svg xmlns="http://www.w3.org/2000/svg" xmlns:xlink="http://www.w3.org/1999/xlink" width="181" zoomAndPan="magnify" viewBox="0 0 135.75 194.249992" height="259" preserveAspectRatio="xMidYMid meet" version="1.0"><defs><g/><clipPath id="6c3e88d0f5"><path d="M 0.136719 0 L 134.617188 0 L 134.617188 134.480469 L 0.136719 134.480469 Z M 0.136719 0 " clip-rule="nonzero"/></clipPath></defs><g clip-path="url(#6c3e88d0f5)"><path fill="#f03c2e" d="M 132.078125 61.25 L 73.367188 2.539062 C 72.964844 2.136719 72.527344 1.777344 72.054688 1.460938 C 71.582031 1.144531 71.082031 0.878906 70.554688 0.660156 C 70.03125 0.441406 69.488281 0.277344 68.933594 0.167969 C 68.375 0.0585938 67.8125 0 67.242188 0 C 66.675781 0 66.109375 0.0585938 65.554688 0.167969 C 64.996094 0.277344 64.453125 0.441406 63.929688 0.660156 C 63.402344 0.878906 62.902344 1.144531 62.429688 1.460938 C 61.957031 1.777344 61.519531 2.136719 61.121094 2.539062 L 48.933594 14.726562 L 64.398438 30.191406 C 67.996094 28.929688 72.113281 29.792969 74.980469 32.65625 C 75.660156 33.339844 76.234375 34.105469 76.703125 34.949219 C 77.171875 35.796875 77.511719 36.6875 77.726562 37.628906 C 77.945312 38.570312 78.027344 39.523438 77.972656 40.488281 C 77.921875 41.453125 77.738281 42.390625 77.421875 43.304688 L 92.328125 58.210938 C 95.933594 56.964844 100.09375 57.769531 102.972656 60.65625 C 103.453125 61.132812 103.878906 61.652344 104.253906 62.21875 C 104.632812 62.78125 104.949219 63.375 105.207031 64 C 105.46875 64.625 105.664062 65.269531 105.796875 65.933594 C 105.925781 66.597656 105.992188 67.269531 105.992188 67.945312 C 105.992188 68.621094 105.929688 69.292969 105.796875 69.957031 C 105.664062 70.621094 105.46875 71.265625 105.210938 71.890625 C 104.949219 72.515625 104.632812 73.109375 104.257812 73.671875 C 103.878906 74.234375 103.453125 74.757812 102.972656 75.234375 C 102.496094 75.714844 101.972656 76.140625 101.410156 76.515625 C 100.847656 76.894531 100.253906 77.210938 99.628906 77.46875 C 99.003906 77.726562 98.359375 77.921875 97.695312 78.054688 C 97.03125 78.1875 96.359375 78.253906 95.683594 78.253906 C 95.003906 78.253906 94.335938 78.1875 93.671875 78.054688 C 93.007812 77.921875 92.363281 77.726562 91.738281 77.464844 C 91.113281 77.207031 90.519531 76.890625 89.957031 76.511719 C 89.394531 76.136719 88.871094 75.707031 88.394531 75.230469 C 85.367188 72.203125 84.621094 67.75 86.148438 64.019531 L 72.246094 50.121094 L 72.246094 86.703125 C 73.261719 87.203125 74.175781 87.855469 74.980469 88.652344 C 75.457031 89.128906 75.886719 89.652344 76.261719 90.214844 C 76.636719 90.777344 76.953125 91.371094 77.214844 91.996094 C 77.472656 92.621094 77.667969 93.265625 77.800781 93.929688 C 77.933594 94.59375 77.996094 95.261719 77.996094 95.9375 C 77.996094 96.617188 77.933594 97.285156 77.800781 97.949219 C 77.667969 98.613281 77.472656 99.257812 77.214844 99.882812 C 76.953125 100.507812 76.636719 101.101562 76.261719 101.664062 C 75.886719 102.226562 75.457031 102.75 74.980469 103.226562 C 74.5 103.703125 73.980469 104.132812 73.417969 104.507812 C 72.855469 104.882812 72.261719 105.203125 71.636719 105.460938 C 71.011719 105.71875 70.367188 105.914062 69.703125 106.046875 C 69.039062 106.179688 68.367188 106.246094 67.691406 106.246094 C 67.015625 106.246094 66.34375 106.179688 65.679688 106.046875 C 65.019531 105.914062 64.375 105.71875 63.75 105.460938 C 63.125 105.203125 62.527344 104.882812 61.964844 104.507812 C 61.402344 104.132812 60.882812 103.707031 60.40625 103.226562 C 59.925781 102.75 59.5 102.226562 59.121094 101.664062 C 58.746094 101.101562 58.425781 100.507812 58.167969 99.882812 C 57.910156 99.257812 57.714844 98.613281 57.582031 97.949219 C 57.449219 97.285156 57.382812 96.617188 57.382812 95.9375 C 57.382812 95.261719 57.449219 94.59375 57.582031 93.929688 C 57.714844 93.265625 57.910156 92.621094 58.167969 91.996094 C 58.425781 91.371094 58.746094 90.777344 59.121094 90.214844 C 59.5 89.652344 59.925781 89.128906 60.40625 88.652344 C 61.402344 87.660156 62.507812 86.90625 63.78125 86.402344 L 63.78125 49.480469 C 62.550781 48.976562 61.402344 48.230469 60.40625 47.230469 C 59.679688 46.507812 59.078125 45.695312 58.597656 44.796875 C 58.117188 43.894531 57.777344 42.941406 57.578125 41.9375 C 57.382812 40.933594 57.335938 39.921875 57.4375 38.90625 C 57.542969 37.886719 57.789062 36.910156 58.1875 35.964844 L 42.929688 20.71875 L 2.671875 60.9375 C 2.269531 61.339844 1.910156 61.777344 1.59375 62.25 C 1.277344 62.722656 1.007812 63.222656 0.792969 63.746094 C 0.574219 64.273438 0.410156 64.8125 0.296875 65.371094 C 0.1875 65.929688 0.132812 66.492188 0.132812 67.0625 C 0.132812 67.628906 0.1875 68.195312 0.296875 68.753906 C 0.410156 69.308594 0.574219 69.851562 0.792969 70.378906 C 1.007812 70.902344 1.277344 71.402344 1.59375 71.875 C 1.910156 72.347656 2.269531 72.785156 2.671875 73.1875 L 61.386719 131.894531 C 61.789062 132.296875 62.226562 132.65625 62.699219 132.972656 C 63.171875 133.289062 63.671875 133.554688 64.199219 133.773438 C 64.722656 133.992188 65.265625 134.15625 65.820312 134.265625 C 66.378906 134.378906 66.941406 134.433594 67.511719 134.433594 C 68.078125 134.433594 68.644531 134.378906 69.199219 134.265625 C 69.757812 134.15625 70.300781 133.992188 70.824219 133.773438 C 71.351562 133.554688 71.851562 133.289062 72.324219 132.972656 C 72.796875 132.65625 73.234375 132.296875 73.632812 131.894531 L 132.078125 73.542969 C 132.480469 73.140625 132.839844 72.703125 133.15625 72.230469 C 133.472656 71.757812 133.742188 71.261719 133.957031 70.734375 C 134.175781 70.207031 134.339844 69.667969 134.453125 69.109375 C 134.5625 68.550781 134.617188 67.988281 134.617188 67.417969 C 134.617188 66.851562 134.5625 66.285156 134.453125 65.730469 C 134.339844 65.171875 134.175781 64.628906 133.957031 64.105469 C 133.742188 63.578125 133.472656 63.078125 133.15625 62.605469 C 132.839844 62.132812 132.480469 61.695312 132.078125 61.292969 " fill-opacity="1" fill-rule="nonzero"/></g><g fill="#eceff4" fill-opacity="1"><g transform="translate(30.239944, 175.535814)"><g><path d="M 21.09375 -13.578125 C 21.226562 -13.578125 21.34375 -13.519531 21.4375 -13.40625 C 21.539062 -13.300781 21.59375 -13.191406 21.59375 -13.078125 L 21.59375 -5.203125 C 21.59375 -4.484375 21.453125 -3.800781 21.171875 -3.15625 C 20.898438 -2.519531 20.523438 -1.96875 20.046875 -1.5 C 19.578125 -1.039062 19.023438 -0.675781 18.390625 -0.40625 C 17.765625 -0.132812 17.097656 0 16.390625 0 L 8.4375 0 C 7.726562 0 7.054688 -0.132812 6.421875 -0.40625 C 5.796875 -0.675781 5.242188 -1.039062 4.765625 -1.5 C 4.296875 -1.96875 3.921875 -2.519531 3.640625 -3.15625 C 3.367188 -3.800781 3.234375 -4.484375 3.234375 -5.203125 L 3.234375 -19.234375 C 3.234375 -19.953125 3.367188 -20.625 3.640625 -21.25 C 3.921875 -21.875 4.296875 -22.425781 4.765625 -22.90625 C 5.242188 -23.382812 5.796875 -23.757812 6.421875 -24.03125 C 7.054688 -24.300781 7.726562 -24.4375 8.4375 -24.4375 L 16.390625 -24.4375 C 17.097656 -24.4375 17.765625 -24.300781 18.390625 -24.03125 C 19.023438 -23.757812 19.570312 -23.390625 20.03125 -22.921875 C 20.5 -22.460938 20.875 -21.914062 21.15625 -21.28125 C 21.445312 -20.65625 21.59375 -19.984375 21.59375 -19.265625 L 21.59375 -17.59375 C 21.59375 -17.257812 21.425781 -17.09375 21.09375 -17.09375 L 19.375 -17.09375 C 19.039062 -17.09375 18.875 -17.257812 18.875 -17.59375 L 18.875 -19.265625 C 18.851562 -19.960938 18.601562 -20.546875 18.125 -21.015625 C 17.65625 -21.492188 17.078125 -21.734375 16.390625 -21.734375 L 8.4375 -21.734375 C 7.75 -21.734375 7.160156 -21.488281 6.671875 -21 C 6.191406 -20.507812 5.953125 -19.921875 5.953125 -19.234375 L 5.953125 -5.203125 C 5.953125 -4.515625 6.191406 -3.925781 6.671875 -3.4375 C 7.160156 -2.945312 7.75 -2.703125 8.4375 -2.703125 L 16.390625 -2.703125 C 17.078125 -2.703125 17.660156 -2.945312 18.140625 -3.4375 C 18.628906 -3.925781 18.875 -4.515625 18.875 -5.203125 L 18.875 -10.859375 L 13.03125 -10.859375 C 12.914062 -10.859375 12.804688 -10.90625 12.703125 -11 C 12.597656 -11.101562 12.546875 -11.222656 12.546875 -11.359375 L 12.546875 -13.078125 C 12.546875 -13.191406 12.597656 -13.300781 12.703125 -13.40625 C 12.804688 -13.519531 12.914062 -13.578125 13.03125 -13.578125 Z M 21.09375 -13.578125 "/></g></g></g><g fill="#eceff4" fill-opacity="1"><g transform="translate(55.028907, 175.535814)"><g><path d="M 3.734375 -0.5 L 3.734375 -2.203125 C 3.734375 -2.328125 3.78125 -2.441406 3.875 -2.546875 C 3.976562 -2.648438 4.097656 -2.703125 4.234375 -2.703125 L 11.078125 -2.703125 L 11.078125 -21.734375 L 4.234375 -21.734375 C 3.898438 -21.734375 3.734375 -21.898438 3.734375 -22.234375 L 3.734375 -23.9375 C 3.734375 -24.269531 3.898438 -24.4375 4.234375 -24.4375 L 20.59375 -24.4375 C 20.925781 -24.4375 21.09375 -24.269531 21.09375 -23.9375 L 21.09375 -22.234375 C 21.09375 -21.898438 20.925781 -21.734375 20.59375 -21.734375 L 13.78125 -21.734375 L 13.78125 -2.703125 L 20.59375 -2.703125 C 20.738281 -2.703125 20.859375 -2.648438 20.953125 -2.546875 C 21.046875 -2.441406 21.09375 -2.328125 21.09375 -2.203125 L 21.09375 -0.5 C 21.09375 -0.164062 20.925781 0 20.59375 0 L 4.234375 0 C 3.898438 0 3.734375 -0.164062 3.734375 -0.5 Z M 3.734375 -0.5 "/></g></g></g><g fill="#eceff4" fill-opacity="1"><g transform="translate(79.853485, 175.535814)"><g><path d="M 11.078125 -0.5 L 11.078125 -21.734375 L 3.78125 -21.734375 C 3.445312 -21.734375 3.28125 -21.898438 3.28125 -22.234375 L 3.28125 -23.9375 C 3.28125 -24.269531 3.445312 -24.4375 3.78125 -24.4375 L 21.09375 -24.4375 C 21.425781 -24.4375 21.59375 -24.269531 21.59375 -23.9375 L 21.59375 -22.234375 C 21.59375 -21.898438 21.425781 -21.734375 21.09375 -21.734375 L 13.78125 -21.734375 L 13.78125 -0.5 C 13.78125 -0.351562 13.726562 -0.234375 13.625 -0.140625 C 13.519531 -0.046875 13.40625 0 13.28125 0 L 11.578125 0 C 11.242188 0 11.078125 -0.164062 11.078125 -0.5 Z M 11.078125 -0.5 "/></g></g></g></svg>