<svg xmlns="http://www.w3.org/2000/svg" xmlns:xlink="http://www.w3.org/1999/xlink" width="182" zoomAndPan="magnify" viewBox="0 0 136.5 169.499993" height="226" preserveAspectRatio="xMidYMid meet" version="1.0"><defs><g/><clipPath id="a3e8e49111"><path d="M 15.253906 0.0585938 L 120.617188 0.0585938 L 120.617188 119.621094 L 15.253906 119.621094 Z M 15.253906 0.0585938 " clip-rule="nonzero"/></clipPath></defs><g clip-path="url(#a3e8e49111)"><path fill="#e44d26" d="M 24.816406 107.40625 L 15.222656 0.398438 L 120.648438 0.398438 L 111.042969 107.390625 L 67.867188 119.289062 Z M 24.816406 107.40625 " fill-opacity="1" fill-rule="nonzero"/></g><path fill="#f16529" d="M 102.820312 100.578125 L 111.03125 9.148438 L 67.933594 9.148438 L 67.933594 110.199219 Z M 102.820312 100.578125 " fill-opacity="1" fill-rule="nonzero"/><path fill="#ebebeb" d="M 67.890625 22.269531 L 34.839844 22.269531 L 38.398438 61.960938 L 67.933594 61.960938 L 67.933594 48.835938 L 50.472656 48.835938 L 49.265625 35.398438 L 67.933594 35.398438 L 67.933594 22.269531 Z M 67.933594 82.878906 L 67.878906 82.890625 L 53.179688 78.945312 L 52.246094 68.480469 L 38.988281 68.480469 L 40.839844 89.085938 L 67.875 96.515625 L 67.933594 96.5 Z M 67.933594 82.878906 " fill-opacity="1" fill-rule="nonzero"/><path fill="#ffffff" d="M 67.890625 61.960938 L 84.144531 61.960938 L 82.648438 78.976562 L 67.929688 82.925781 L 67.929688 96.578125 L 94.984375 89.125 L 98.609375 48.828125 L 67.933594 48.828125 Z M 100.636719 25.792969 L 100.949219 22.269531 L 67.882812 22.269531 L 67.882812 35.394531 L 99.761719 35.394531 L 100.023438 32.441406 Z M 100.636719 25.792969 " fill-opacity="1" fill-rule="nonzero"/><g fill="#eceff4" fill-opacity="1"><g transform="translate(6.251085, 154.173035)"><g><path d="M 15.609375 -0.40625 L 15.609375 -8.984375 L 4.921875 -8.984375 L 4.921875 -0.40625 C 4.921875 -0.132812 4.78125 0 4.5 0 L 3.125 0 C 2.84375 0 2.703125 -0.132812 2.703125 -0.40625 L 2.703125 -19.78125 C 2.703125 -20.050781 2.84375 -20.1875 3.125 -20.1875 L 4.5 -20.1875 C 4.78125 -20.1875 4.921875 -20.050781 4.921875 -19.78125 L 4.921875 -11.21875 L 15.609375 -11.21875 L 15.609375 -19.78125 C 15.609375 -20.050781 15.742188 -20.1875 16.015625 -20.1875 L 17.421875 -20.1875 C 17.703125 -20.1875 17.84375 -20.050781 17.84375 -19.78125 L 17.84375 -0.40625 C 17.84375 -0.132812 17.703125 0 17.421875 0 L 16.015625 0 C 15.742188 0 15.609375 -0.132812 15.609375 -0.40625 Z M 15.609375 -0.40625 "/></g></g></g><g fill="#eceff4" fill-opacity="1"><g transform="translate(26.737454, 154.173035)"><g><path d="M 9.15625 -0.40625 L 9.15625 -17.953125 L 3.125 -17.953125 C 2.84375 -17.953125 2.703125 -18.09375 2.703125 -18.375 L 2.703125 -19.78125 C 2.703125 -20.050781 2.84375 -20.1875 3.125 -20.1875 L 17.421875 -20.1875 C 17.703125 -20.1875 17.84375 -20.050781 17.84375 -19.78125 L 17.84375 -18.375 C 17.84375 -18.09375 17.703125 -17.953125 17.421875 -17.953125 L 11.390625 -17.953125 L 11.390625 -0.40625 C 11.390625 -0.289062 11.34375 -0.191406 11.25 -0.109375 C 11.164062 -0.0351562 11.078125 0 10.984375 0 L 9.5625 0 C 9.289062 0 9.15625 -0.132812 9.15625 -0.40625 Z M 9.15625 -0.40625 "/></g></g></g><g fill="#eceff4" fill-opacity="1"><g transform="translate(47.253257, 154.173035)"><g><path d="M 14.984375 -19.84375 C 15.046875 -19.9375 15.140625 -20.015625 15.265625 -20.078125 C 15.390625 -20.148438 15.507812 -20.1875 15.625 -20.1875 L 17.421875 -20.1875 C 17.703125 -20.1875 17.84375 -20.050781 17.84375 -19.78125 L 17.84375 -0.40625 C 17.84375 -0.132812 17.703125 0 17.421875 0 L 16.015625 0 C 15.742188 0 15.609375 -0.132812 15.609375 -0.40625 L 15.609375 -17.390625 L 11.328125 -10.453125 C 11.273438 -10.347656 11.179688 -10.257812 11.046875 -10.1875 C 10.921875 -10.125 10.8125 -10.09375 10.71875 -10.09375 L 9.828125 -10.09375 C 9.710938 -10.09375 9.585938 -10.125 9.453125 -10.1875 C 9.328125 -10.257812 9.238281 -10.347656 9.1875 -10.453125 L 4.921875 -17.390625 L 4.921875 -0.40625 C 4.921875 -0.132812 4.78125 0 4.5 0 L 3.125 0 C 2.84375 0 2.703125 -0.132812 2.703125 -0.40625 L 2.703125 -19.78125 C 2.703125 -20.050781 2.84375 -20.1875 3.125 -20.1875 L 4.921875 -20.1875 C 5.015625 -20.1875 5.125 -20.148438 5.25 -20.078125 C 5.382812 -20.015625 5.476562 -19.9375 5.53125 -19.84375 L 10.28125 -12.78125 Z M 14.984375 -19.84375 "/></g></g></g><g fill="#eceff4" fill-opacity="1"><g transform="translate(67.769059, 154.173035)"><g><path d="M 3.890625 -20.1875 L 5.296875 -20.1875 C 5.566406 -20.1875 5.703125 -20.050781 5.703125 -19.78125 L 5.703125 -2.234375 L 17.21875 -2.234375 C 17.332031 -2.234375 17.429688 -2.1875 17.515625 -2.09375 C 17.597656 -2.007812 17.640625 -1.921875 17.640625 -1.828125 L 17.640625 -0.40625 C 17.640625 -0.132812 17.5 0 17.21875 0 L 3.890625 0 C 3.785156 0 3.6875 -0.0351562 3.59375 -0.109375 C 3.507812 -0.191406 3.46875 -0.289062 3.46875 -0.40625 L 3.46875 -19.78125 C 3.46875 -19.894531 3.507812 -19.988281 3.59375 -20.0625 C 3.6875 -20.144531 3.785156 -20.1875 3.890625 -20.1875 Z M 3.890625 -20.1875 "/></g></g></g><g fill="#eceff4" fill-opacity="1"><g transform="translate(88.284861, 154.173035)"><g/></g></g><g fill="#eceff4" fill-opacity="1"><g transform="translate(108.77123, 154.173035)"><g><path d="M 13.546875 -11.21875 C 14.128906 -11.21875 14.679688 -11.101562 15.203125 -10.875 C 15.722656 -10.644531 16.175781 -10.332031 16.5625 -9.9375 C 16.957031 -9.550781 17.269531 -9.097656 17.5 -8.578125 C 17.726562 -8.054688 17.84375 -7.503906 17.84375 -6.921875 L 17.84375 -4.296875 C 17.84375 -3.710938 17.726562 -3.15625 17.5 -2.625 C 17.269531 -2.09375 16.957031 -1.632812 16.5625 -1.25 C 16.175781 -0.863281 15.722656 -0.554688 15.203125 -0.328125 C 14.679688 -0.109375 14.128906 0 13.546875 0 L 6.984375 0 C 6.410156 0 5.878906 -0.101562 5.390625 -0.3125 C 4.898438 -0.519531 4.460938 -0.796875 4.078125 -1.140625 C 3.691406 -1.492188 3.375 -1.910156 3.125 -2.390625 C 2.882812 -2.878906 2.742188 -3.394531 2.703125 -3.9375 L 2.703125 -5.65625 C 2.703125 -5.75 2.738281 -5.835938 2.8125 -5.921875 C 2.894531 -6.015625 3 -6.0625 3.125 -6.0625 L 4.5 -6.0625 C 4.625 -6.0625 4.722656 -6.015625 4.796875 -5.921875 C 4.878906 -5.835938 4.921875 -5.75 4.921875 -5.65625 L 4.921875 -4.234375 C 4.941406 -3.671875 5.144531 -3.195312 5.53125 -2.8125 C 5.925781 -2.425781 6.410156 -2.234375 6.984375 -2.234375 L 13.546875 -2.234375 C 14.109375 -2.234375 14.59375 -2.429688 15 -2.828125 C 15.40625 -3.234375 15.609375 -3.722656 15.609375 -4.296875 L 15.609375 -6.921875 C 15.609375 -7.484375 15.40625 -7.96875 15 -8.375 C 14.59375 -8.78125 14.109375 -8.984375 13.546875 -8.984375 L 3.09375 -8.984375 C 2.988281 -8.984375 2.890625 -9.019531 2.796875 -9.09375 C 2.710938 -9.175781 2.671875 -9.273438 2.671875 -9.390625 L 2.671875 -19.78125 C 2.671875 -19.875 2.710938 -19.960938 2.796875 -20.046875 C 2.890625 -20.140625 2.988281 -20.1875 3.09375 -20.1875 L 17.421875 -20.1875 C 17.546875 -20.1875 17.644531 -20.140625 17.71875 -20.046875 C 17.800781 -19.960938 17.84375 -19.875 17.84375 -19.78125 L 17.84375 -18.375 C 17.84375 -18.09375 17.703125 -17.953125 17.421875 -17.953125 L 4.921875 -17.953125 L 4.921875 -11.21875 Z M 13.546875 -11.21875 "/></g></g></g></svg>