<svg xmlns="http://www.w3.org/2000/svg" xmlns:xlink="http://www.w3.org/1999/xlink" width="180" zoomAndPan="magnify" viewBox="0 0 135 211.499994" height="282" preserveAspectRatio="xMidYMid meet" version="1.0"><defs><g/></defs><path fill="#4e7896" d="M 49.375 109.460938 C 49.375 109.460938 43.90625 112.773438 53.175781 113.71875 C 64.332031 115.136719 70.273438 114.902344 82.621094 112.539062 C 85.109375 114.054688 87.71875 115.316406 90.457031 116.320312 C 62.675781 128.144531 27.519531 115.613281 49.371094 109.460938 Z M 45.820312 94.097656 C 45.820312 94.097656 39.878906 98.585938 49.144531 99.539062 C 61.253906 100.71875 70.753906 100.953125 87.144531 97.648438 C 88.761719 99.28125 90.660156 100.460938 92.84375 101.191406 C 59.355469 111.121094 21.835938 102.140625 45.820312 94.101562 Z M 111.363281 121.042969 C 111.363281 121.042969 115.402344 124.351562 106.851562 126.953125 C 90.941406 131.6875 40.121094 133.101562 25.871094 126.953125 C 20.882812 124.828125 30.382812 121.753906 33.425781 121.28125 C 36.515625 120.574219 38.183594 120.574219 38.183594 120.574219 C 32.714844 116.789062 1.847656 128.375 22.511719 131.679688 C 79.269531 140.898438 126.054688 127.660156 111.328125 121.042969 Z M 51.945312 78.019531 C 51.945312 78.019531 26.058594 84.167969 42.679688 86.292969 C 49.804688 87.238281 63.816406 87 76.878906 86.058594 C 87.5625 85.109375 98.257812 83.226562 98.257812 83.226562 C 98.257812 83.226562 94.457031 84.878906 91.84375 86.535156 C 65.488281 93.394531 14.898438 90.316406 29.386719 83.226562 C 41.734375 77.3125 51.949219 78.027344 51.949219 78.027344 Z M 98.257812 103.785156 C 124.855469 90.070312 112.507812 76.839844 103.957031 78.492188 C 101.820312 78.964844 100.867188 79.4375 100.867188 79.4375 C 100.867188 79.4375 101.578125 78.023438 103.238281 77.546875 C 120.101562 71.636719 133.402344 95.277344 97.773438 104.492188 C 97.773438 104.492188 98.007812 104.257812 98.25 103.785156 Z M 54.566406 141.136719 C 80.210938 142.792969 119.402344 140.191406 120.347656 128.128906 C 120.347656 128.128906 118.449219 132.863281 99.210938 136.402344 C 77.363281 140.421875 50.289062 139.941406 34.378906 137.351562 C 34.378906 137.351562 37.703125 140.183594 54.566406 141.132812 Z M 54.566406 141.136719 " fill-opacity="1" fill-rule="nonzero"/><path fill="#f58219" d="M 82.148438 0.00390625 C 82.148438 0.00390625 96.875 14.898438 68.140625 37.355469 C 45.101562 55.558594 62.917969 65.960938 68.140625 77.78125 C 54.601562 65.726562 44.867188 55.085938 51.515625 45.160156 C 61.25 30.5 88.085938 23.449219 82.148438 0.00390625 Z M 74.59375 67.855469 C 81.484375 75.65625 72.695312 82.746094 72.695312 82.746094 C 72.695312 82.746094 90.269531 73.765625 82.195312 62.652344 C 74.832031 52.015625 69.125 46.8125 100.003906 29.082031 C 100.003906 29.082031 51.320312 41.140625 74.59375 67.855469 Z M 74.59375 67.855469 " fill-opacity="1" fill-rule="nonzero"/><g fill="#eceff4" fill-opacity="1"><g transform="translate(17.654704, 192.79495)"><g><path d="M 3.421875 -8.203125 C 3.421875 -8.328125 3.472656 -8.441406 3.578125 -8.546875 C 3.691406 -8.648438 3.804688 -8.703125 3.921875 -8.703125 L 5.640625 -8.703125 C 5.773438 -8.703125 5.890625 -8.648438 5.984375 -8.546875 C 6.085938 -8.441406 6.140625 -8.328125 6.140625 -8.203125 L 6.140625 -5.203125 C 6.140625 -4.515625 6.378906 -3.925781 6.859375 -3.4375 C 7.347656 -2.957031 7.9375 -2.71875 8.625 -2.71875 L 16.234375 -2.71875 C 16.921875 -2.71875 17.507812 -2.957031 18 -3.4375 C 18.488281 -3.925781 18.734375 -4.515625 18.734375 -5.203125 L 18.734375 -21.765625 L 3.953125 -21.765625 C 3.617188 -21.765625 3.453125 -21.929688 3.453125 -22.265625 L 3.453125 -23.96875 C 3.453125 -24.300781 3.617188 -24.46875 3.953125 -24.46875 L 20.9375 -24.46875 C 21.269531 -24.46875 21.4375 -24.300781 21.4375 -23.96875 L 21.4375 -5.203125 C 21.4375 -4.492188 21.300781 -3.816406 21.03125 -3.171875 C 20.757812 -2.535156 20.382812 -1.984375 19.90625 -1.515625 C 19.425781 -1.054688 18.867188 -0.6875 18.234375 -0.40625 C 17.609375 -0.132812 16.941406 0 16.234375 0 L 8.625 0 C 7.914062 0 7.242188 -0.132812 6.609375 -0.40625 C 5.984375 -0.6875 5.429688 -1.054688 4.953125 -1.515625 C 4.484375 -1.984375 4.109375 -2.535156 3.828125 -3.171875 C 3.554688 -3.816406 3.421875 -4.492188 3.421875 -5.203125 Z M 3.421875 -8.203125 "/></g></g></g><g fill="#eceff4" fill-opacity="1"><g transform="translate(42.480686, 192.79495)"><g><path d="M 15.765625 -24.46875 C 15.910156 -24.46875 16.046875 -24.421875 16.171875 -24.328125 C 16.304688 -24.234375 16.394531 -24.125 16.4375 -24 L 21.40625 -11.59375 C 21.445312 -11.476562 21.484375 -11.320312 21.515625 -11.125 C 21.554688 -10.9375 21.578125 -10.769531 21.578125 -10.625 L 21.578125 -0.5 C 21.578125 -0.164062 21.410156 0 21.078125 0 L 19.40625 0 C 19.070312 0 18.90625 -0.164062 18.90625 -0.5 L 18.90625 -7.09375 L 5.953125 -7.09375 L 5.953125 -0.5 C 5.953125 -0.164062 5.785156 0 5.453125 0 L 3.75 0 C 3.414062 0 3.25 -0.164062 3.25 -0.5 L 3.25 -10.625 C 3.25 -10.769531 3.265625 -10.9375 3.296875 -11.125 C 3.335938 -11.320312 3.378906 -11.476562 3.421875 -11.59375 L 8.390625 -24 C 8.429688 -24.125 8.519531 -24.234375 8.65625 -24.328125 C 8.800781 -24.421875 8.9375 -24.46875 9.0625 -24.46875 Z M 18.90625 -9.78125 L 18.90625 -10.625 L 14.453125 -21.765625 L 10.421875 -21.765625 L 5.953125 -10.625 L 5.953125 -9.78125 Z M 18.90625 -9.78125 "/></g></g></g><g fill="#eceff4" fill-opacity="1"><g transform="translate(67.342335, 192.79495)"><g><path d="M 8.421875 -0.46875 L 3.453125 -12.84375 C 3.410156 -12.988281 3.363281 -13.15625 3.3125 -13.34375 C 3.269531 -13.53125 3.25 -13.6875 3.25 -13.8125 L 3.25 -23.96875 C 3.25 -24.113281 3.300781 -24.234375 3.40625 -24.328125 C 3.507812 -24.421875 3.625 -24.46875 3.75 -24.46875 L 5.453125 -24.46875 C 5.785156 -24.46875 5.953125 -24.300781 5.953125 -23.96875 L 5.953125 -14.34375 C 5.953125 -14.195312 5.96875 -14.03125 6 -13.84375 C 6.039062 -13.65625 6.085938 -13.5 6.140625 -13.375 L 10.421875 -2.71875 L 14.453125 -2.71875 L 18.734375 -13.375 C 18.773438 -13.5 18.8125 -13.65625 18.84375 -13.84375 C 18.882812 -14.03125 18.90625 -14.195312 18.90625 -14.34375 L 18.90625 -23.96875 C 18.90625 -24.300781 19.070312 -24.46875 19.40625 -24.46875 L 21.125 -24.46875 C 21.457031 -24.46875 21.625 -24.300781 21.625 -23.96875 L 21.625 -13.8125 C 21.625 -13.6875 21.601562 -13.53125 21.5625 -13.34375 C 21.53125 -13.15625 21.488281 -12.988281 21.4375 -12.84375 L 16.484375 -0.46875 C 16.429688 -0.34375 16.332031 -0.234375 16.1875 -0.140625 C 16.050781 -0.046875 15.910156 0 15.765625 0 L 9.09375 0 C 8.945312 0 8.804688 -0.046875 8.671875 -0.140625 C 8.546875 -0.234375 8.460938 -0.34375 8.421875 -0.46875 Z M 8.421875 -0.46875 "/></g></g></g><g fill="#eceff4" fill-opacity="1"><g transform="translate(92.168317, 192.79495)"><g><path d="M 15.765625 -24.46875 C 15.910156 -24.46875 16.046875 -24.421875 16.171875 -24.328125 C 16.304688 -24.234375 16.394531 -24.125 16.4375 -24 L 21.40625 -11.59375 C 21.445312 -11.476562 21.484375 -11.320312 21.515625 -11.125 C 21.554688 -10.9375 21.578125 -10.769531 21.578125 -10.625 L 21.578125 -0.5 C 21.578125 -0.164062 21.410156 0 21.078125 0 L 19.40625 0 C 19.070312 0 18.90625 -0.164062 18.90625 -0.5 L 18.90625 -7.09375 L 5.953125 -7.09375 L 5.953125 -0.5 C 5.953125 -0.164062 5.785156 0 5.453125 0 L 3.75 0 C 3.414062 0 3.25 -0.164062 3.25 -0.5 L 3.25 -10.625 C 3.25 -10.769531 3.265625 -10.9375 3.296875 -11.125 C 3.335938 -11.320312 3.378906 -11.476562 3.421875 -11.59375 L 8.390625 -24 C 8.429688 -24.125 8.519531 -24.234375 8.65625 -24.328125 C 8.800781 -24.421875 8.9375 -24.46875 9.0625 -24.46875 Z M 18.90625 -9.78125 L 18.90625 -10.625 L 14.453125 -21.765625 L 10.421875 -21.765625 L 5.953125 -10.625 L 5.953125 -9.78125 Z M 18.90625 -9.78125 "/></g></g></g></svg>