<svg xmlns="http://www.w3.org/2000/svg" xmlns:xlink="http://www.w3.org/1999/xlink" width="481" zoomAndPan="magnify" viewBox="0 0 360.75 305.999988" height="408" preserveAspectRatio="xMidYMid meet" version="1.0"><defs><g/><clipPath id="225c4c6735"><path d="M 62 0.105469 L 298.011719 0.105469 L 298.011719 236 L 62 236 Z M 62 0.105469 " clip-rule="nonzero"/></clipPath><clipPath id="46e6a0dcbf"><path d="M 62 0.105469 L 181 0.105469 L 181 236 L 62 236 Z M 62 0.105469 " clip-rule="nonzero"/></clipPath></defs><g clip-path="url(#225c4c6735)"><path fill="#ffc44d" d="M 70.707031 -0.441406 C 68.347656 -0.441406 66.097656 0.570312 64.535156 2.34375 C 62.972656 4.113281 62.242188 6.46875 62.535156 8.8125 L 84.496094 184.507812 C 84.839844 187.238281 86.523438 189.621094 88.988281 190.851562 L 176.832031 234.773438 C 179.152344 235.933594 181.878906 235.933594 184.199219 234.773438 L 272.042969 190.851562 C 274.507812 189.621094 276.191406 187.238281 276.535156 184.507812 L 298.496094 8.8125 C 298.789062 6.46875 298.058594 4.113281 296.496094 2.34375 C 294.933594 0.570312 292.683594 -0.441406 290.324219 -0.441406 Z M 70.707031 -0.441406 " fill-opacity="1" fill-rule="nonzero"/></g><g clip-path="url(#46e6a0dcbf)"><path fill="#e5b045" d="M 180.515625 -0.441406 L 180.515625 235.644531 C 179.253906 235.644531 177.992188 235.351562 176.832031 234.773438 L 88.988281 190.851562 C 86.523438 189.621094 84.839844 187.238281 84.496094 184.507812 L 62.535156 8.8125 C 62.242188 6.46875 62.972656 4.113281 64.535156 2.34375 C 66.097656 0.570312 68.347656 -0.441406 70.707031 -0.441406 Z M 180.515625 -0.441406 " fill-opacity="1" fill-rule="evenodd"/></g><path fill="#cfd8dc" d="M 164.046875 32.5 C 168.59375 32.5 172.28125 36.1875 172.28125 40.734375 L 172.28125 183.484375 C 172.28125 186.421875 170.71875 189.132812 168.179688 190.609375 C 165.640625 192.082031 162.507812 192.089844 159.960938 190.636719 L 121.527344 168.671875 C 117.578125 166.417969 116.207031 161.386719 118.460938 157.4375 C 120.71875 153.488281 125.75 152.117188 129.699219 154.371094 L 155.808594 169.292969 L 155.808594 40.734375 C 155.808594 36.1875 159.496094 32.5 164.046875 32.5 Z M 164.046875 32.5 " fill-opacity="1" fill-rule="evenodd"/><path fill="#eceff1" d="M 188.753906 40.734375 C 188.753906 36.1875 192.441406 32.5 196.988281 32.5 L 251.894531 32.5 C 256.441406 32.5 260.128906 36.1875 260.128906 40.734375 C 260.128906 45.28125 256.441406 48.96875 251.894531 48.96875 L 205.226562 48.96875 L 205.226562 101.84375 L 244.617188 93.089844 C 247.183594 92.519531 249.867188 93.207031 251.839844 94.945312 C 253.816406 96.683594 254.84375 99.253906 254.605469 101.875 L 249.113281 162.269531 C 248.855469 165.109375 247.144531 167.613281 244.59375 168.890625 L 200.671875 190.851562 C 196.605469 192.886719 191.65625 191.234375 189.621094 187.167969 C 187.589844 183.097656 189.238281 178.152344 193.304688 176.117188 L 233.125 156.207031 L 237.179688 111.613281 L 198.777344 120.148438 C 196.335938 120.691406 193.785156 120.097656 191.835938 118.535156 C 189.886719 116.972656 188.753906 114.609375 188.753906 112.109375 Z M 188.753906 40.734375 " fill-opacity="1" fill-rule="evenodd"/><g fill="#eceff4" fill-opacity="1"><g transform="translate(10.353631, 281.027066)"><g><path d="M 4.671875 -11.203125 C 4.671875 -11.367188 4.742188 -11.523438 4.890625 -11.671875 C 5.035156 -11.816406 5.191406 -11.890625 5.359375 -11.890625 L 7.703125 -11.890625 C 7.890625 -11.890625 8.046875 -11.816406 8.171875 -11.671875 C 8.304688 -11.523438 8.375 -11.367188 8.375 -11.203125 L 8.375 -7.109375 C 8.375 -6.171875 8.707031 -5.367188 9.375 -4.703125 C 10.039062 -4.035156 10.847656 -3.703125 11.796875 -3.703125 L 22.171875 -3.703125 C 23.109375 -3.703125 23.910156 -4.035156 24.578125 -4.703125 C 25.242188 -5.367188 25.578125 -6.171875 25.578125 -7.109375 L 25.578125 -29.71875 L 5.40625 -29.71875 C 4.945312 -29.71875 4.71875 -29.945312 4.71875 -30.40625 L 4.71875 -32.734375 C 4.71875 -33.191406 4.945312 -33.421875 5.40625 -33.421875 L 28.59375 -33.421875 C 29.050781 -33.421875 29.28125 -33.191406 29.28125 -32.734375 L 29.28125 -7.109375 C 29.28125 -6.140625 29.09375 -5.210938 28.71875 -4.328125 C 28.34375 -3.453125 27.828125 -2.695312 27.171875 -2.0625 C 26.523438 -1.4375 25.769531 -0.9375 24.90625 -0.5625 C 24.050781 -0.1875 23.140625 0 22.171875 0 L 11.796875 0 C 10.816406 0 9.894531 -0.1875 9.03125 -0.5625 C 8.175781 -0.9375 7.421875 -1.4375 6.765625 -2.0625 C 6.117188 -2.695312 5.609375 -3.453125 5.234375 -4.328125 C 4.859375 -5.210938 4.671875 -6.140625 4.671875 -7.109375 Z M 4.671875 -11.203125 "/></g></g></g><g fill="#eceff4" fill-opacity="1"><g transform="translate(44.26016, 281.027066)"><g><path d="M 21.53125 -33.421875 C 21.726562 -33.421875 21.914062 -33.351562 22.09375 -33.21875 C 22.269531 -33.09375 22.390625 -32.945312 22.453125 -32.78125 L 29.234375 -15.828125 C 29.296875 -15.671875 29.347656 -15.460938 29.390625 -15.203125 C 29.441406 -14.941406 29.46875 -14.710938 29.46875 -14.515625 L 29.46875 -0.6875 C 29.46875 -0.226562 29.242188 0 28.796875 0 L 26.5 0 C 26.050781 0 25.828125 -0.226562 25.828125 -0.6875 L 25.828125 -9.6875 L 8.140625 -9.6875 L 8.140625 -0.6875 C 8.140625 -0.226562 7.910156 0 7.453125 0 L 5.109375 0 C 4.660156 0 4.4375 -0.226562 4.4375 -0.6875 L 4.4375 -14.515625 C 4.4375 -14.710938 4.457031 -14.941406 4.5 -15.203125 C 4.550781 -15.460938 4.609375 -15.671875 4.671875 -15.828125 L 11.453125 -32.78125 C 11.515625 -32.945312 11.640625 -33.09375 11.828125 -33.21875 C 12.023438 -33.351562 12.207031 -33.421875 12.375 -33.421875 Z M 25.828125 -13.34375 L 25.828125 -14.515625 L 19.734375 -29.71875 L 14.21875 -29.71875 L 8.140625 -14.515625 L 8.140625 -13.34375 Z M 25.828125 -13.34375 "/></g></g></g><g fill="#eceff4" fill-opacity="1"><g transform="translate(78.215406, 281.027066)"><g><path d="M 11.5 -0.640625 L 4.71875 -17.53125 C 4.65625 -17.726562 4.59375 -17.957031 4.53125 -18.21875 C 4.46875 -18.476562 4.4375 -18.691406 4.4375 -18.859375 L 4.4375 -32.734375 C 4.4375 -32.929688 4.507812 -33.09375 4.65625 -33.21875 C 4.800781 -33.351562 4.953125 -33.421875 5.109375 -33.421875 L 7.453125 -33.421875 C 7.910156 -33.421875 8.140625 -33.191406 8.140625 -32.734375 L 8.140625 -19.578125 C 8.140625 -19.390625 8.160156 -19.164062 8.203125 -18.90625 C 8.253906 -18.644531 8.3125 -18.429688 8.375 -18.265625 L 14.21875 -3.703125 L 19.734375 -3.703125 L 25.578125 -18.265625 C 25.640625 -18.429688 25.695312 -18.644531 25.75 -18.90625 C 25.800781 -19.164062 25.828125 -19.390625 25.828125 -19.578125 L 25.828125 -32.734375 C 25.828125 -33.191406 26.050781 -33.421875 26.5 -33.421875 L 28.84375 -33.421875 C 29.300781 -33.421875 29.53125 -33.191406 29.53125 -32.734375 L 29.53125 -18.859375 C 29.53125 -18.691406 29.503906 -18.476562 29.453125 -18.21875 C 29.398438 -17.957031 29.34375 -17.726562 29.28125 -17.53125 L 22.515625 -0.640625 C 22.441406 -0.472656 22.304688 -0.320312 22.109375 -0.1875 C 21.921875 -0.0625 21.726562 0 21.53125 0 L 12.421875 0 C 12.222656 0 12.035156 -0.0625 11.859375 -0.1875 C 11.679688 -0.320312 11.5625 -0.472656 11.5 -0.640625 Z M 11.5 -0.640625 "/></g></g></g><g fill="#eceff4" fill-opacity="1"><g transform="translate(112.121934, 281.027066)"><g><path d="M 21.53125 -33.421875 C 21.726562 -33.421875 21.914062 -33.351562 22.09375 -33.21875 C 22.269531 -33.09375 22.390625 -32.945312 22.453125 -32.78125 L 29.234375 -15.828125 C 29.296875 -15.671875 29.347656 -15.460938 29.390625 -15.203125 C 29.441406 -14.941406 29.46875 -14.710938 29.46875 -14.515625 L 29.46875 -0.6875 C 29.46875 -0.226562 29.242188 0 28.796875 0 L 26.5 0 C 26.050781 0 25.828125 -0.226562 25.828125 -0.6875 L 25.828125 -9.6875 L 8.140625 -9.6875 L 8.140625 -0.6875 C 8.140625 -0.226562 7.910156 0 7.453125 0 L 5.109375 0 C 4.660156 0 4.4375 -0.226562 4.4375 -0.6875 L 4.4375 -14.515625 C 4.4375 -14.710938 4.457031 -14.941406 4.5 -15.203125 C 4.550781 -15.460938 4.609375 -15.671875 4.671875 -15.828125 L 11.453125 -32.78125 C 11.515625 -32.945312 11.640625 -33.09375 11.828125 -33.21875 C 12.023438 -33.351562 12.207031 -33.421875 12.375 -33.421875 Z M 25.828125 -13.34375 L 25.828125 -14.515625 L 19.734375 -29.71875 L 14.21875 -29.71875 L 8.140625 -14.515625 L 8.140625 -13.34375 Z M 25.828125 -13.34375 "/></g></g></g><g fill="#eceff4" fill-opacity="1"><g transform="translate(146.07718, 281.027066)"><g><path d="M 4.4375 -7.109375 L 4.4375 -9.359375 C 4.4375 -9.515625 4.507812 -9.664062 4.65625 -9.8125 C 4.800781 -9.957031 4.953125 -10.03125 5.109375 -10.03125 L 7.453125 -10.03125 C 7.648438 -10.03125 7.8125 -9.957031 7.9375 -9.8125 C 8.070312 -9.664062 8.140625 -9.515625 8.140625 -9.359375 L 8.140625 -7.109375 C 8.140625 -6.171875 8.472656 -5.367188 9.140625 -4.703125 C 9.804688 -4.035156 10.609375 -3.703125 11.546875 -3.703125 L 22.40625 -3.703125 C 23.351562 -3.703125 24.160156 -4.035156 24.828125 -4.703125 C 25.492188 -5.367188 25.828125 -6.171875 25.828125 -7.109375 L 25.828125 -11.453125 C 25.828125 -12.390625 25.492188 -13.191406 24.828125 -13.859375 C 24.160156 -14.523438 23.351562 -14.859375 22.40625 -14.859375 L 11.546875 -14.859375 C 10.566406 -14.859375 9.644531 -15.046875 8.78125 -15.421875 C 7.925781 -15.796875 7.171875 -16.296875 6.515625 -16.921875 C 5.867188 -17.554688 5.359375 -18.3125 4.984375 -19.1875 C 4.617188 -20.070312 4.4375 -21 4.4375 -21.96875 L 4.4375 -26.3125 C 4.4375 -27.28125 4.617188 -28.195312 4.984375 -29.0625 C 5.359375 -29.925781 5.867188 -30.679688 6.515625 -31.328125 C 7.171875 -31.972656 7.925781 -32.484375 8.78125 -32.859375 C 9.644531 -33.234375 10.566406 -33.421875 11.546875 -33.421875 L 22.40625 -33.421875 C 23.382812 -33.421875 24.300781 -33.234375 25.15625 -32.859375 C 26.019531 -32.484375 26.773438 -31.972656 27.421875 -31.328125 C 28.078125 -30.679688 28.59375 -29.925781 28.96875 -29.0625 C 29.34375 -28.195312 29.53125 -27.28125 29.53125 -26.3125 L 29.53125 -24.0625 C 29.53125 -23.613281 29.300781 -23.390625 28.84375 -23.390625 L 26.5 -23.390625 C 26.050781 -23.390625 25.828125 -23.613281 25.828125 -24.0625 L 25.828125 -26.3125 C 25.828125 -27.25 25.492188 -28.050781 24.828125 -28.71875 C 24.160156 -29.382812 23.351562 -29.71875 22.40625 -29.71875 L 11.546875 -29.71875 C 10.609375 -29.71875 9.804688 -29.382812 9.140625 -28.71875 C 8.472656 -28.050781 8.140625 -27.25 8.140625 -26.3125 L 8.140625 -21.96875 C 8.140625 -21.03125 8.472656 -20.226562 9.140625 -19.5625 C 9.804688 -18.894531 10.609375 -18.5625 11.546875 -18.5625 L 22.40625 -18.5625 C 23.382812 -18.5625 24.300781 -18.375 25.15625 -18 C 26.019531 -17.625 26.773438 -17.113281 27.421875 -16.46875 C 28.078125 -15.820312 28.59375 -15.066406 28.96875 -14.203125 C 29.34375 -13.335938 29.53125 -12.421875 29.53125 -11.453125 L 29.53125 -7.109375 C 29.53125 -6.140625 29.34375 -5.210938 28.96875 -4.328125 C 28.59375 -3.453125 28.078125 -2.695312 27.421875 -2.0625 C 26.773438 -1.4375 26.019531 -0.9375 25.15625 -0.5625 C 24.300781 -0.1875 23.382812 0 22.40625 0 L 11.546875 0 C 10.566406 0 9.644531 -0.1875 8.78125 -0.5625 C 7.925781 -0.9375 7.171875 -1.4375 6.515625 -2.0625 C 5.867188 -2.695312 5.359375 -3.453125 4.984375 -4.328125 C 4.617188 -5.210938 4.4375 -6.140625 4.4375 -7.109375 Z M 4.4375 -7.109375 "/></g></g></g><g fill="#eceff4" fill-opacity="1"><g transform="translate(180.032426, 281.027066)"><g><path d="M 29.53125 -24.0625 C 29.53125 -23.613281 29.300781 -23.390625 28.84375 -23.390625 L 26.5 -23.390625 C 26.050781 -23.390625 25.828125 -23.613281 25.828125 -24.0625 L 25.828125 -26.359375 C 25.785156 -27.296875 25.441406 -28.085938 24.796875 -28.734375 C 24.148438 -29.390625 23.351562 -29.71875 22.40625 -29.71875 L 11.546875 -29.71875 C 10.609375 -29.71875 9.804688 -29.382812 9.140625 -28.71875 C 8.472656 -28.050781 8.140625 -27.25 8.140625 -26.3125 L 8.140625 -7.109375 C 8.140625 -6.171875 8.472656 -5.367188 9.140625 -4.703125 C 9.804688 -4.035156 10.609375 -3.703125 11.546875 -3.703125 L 22.40625 -3.703125 C 23.351562 -3.703125 24.148438 -4.019531 24.796875 -4.65625 C 25.441406 -5.289062 25.785156 -6.078125 25.828125 -7.015625 L 25.828125 -9.359375 C 25.828125 -9.515625 25.890625 -9.664062 26.015625 -9.8125 C 26.140625 -9.957031 26.300781 -10.03125 26.5 -10.03125 L 28.84375 -10.03125 C 29.039062 -10.03125 29.203125 -9.957031 29.328125 -9.8125 C 29.460938 -9.664062 29.53125 -9.515625 29.53125 -9.359375 L 29.53125 -7.015625 C 29.53125 -6.035156 29.332031 -5.125 28.9375 -4.28125 C 28.550781 -3.4375 28.039062 -2.695312 27.40625 -2.0625 C 26.769531 -1.4375 26.019531 -0.9375 25.15625 -0.5625 C 24.300781 -0.1875 23.382812 0 22.40625 0 L 11.546875 0 C 10.566406 0 9.644531 -0.1875 8.78125 -0.5625 C 7.925781 -0.9375 7.179688 -1.4375 6.546875 -2.0625 C 5.921875 -2.695312 5.421875 -3.453125 5.046875 -4.328125 C 4.671875 -5.210938 4.484375 -6.140625 4.484375 -7.109375 L 4.484375 -26.3125 C 4.484375 -27.28125 4.671875 -28.195312 5.046875 -29.0625 C 5.421875 -29.925781 5.921875 -30.679688 6.546875 -31.328125 C 7.179688 -31.972656 7.925781 -32.484375 8.78125 -32.859375 C 9.644531 -33.234375 10.566406 -33.421875 11.546875 -33.421875 L 22.40625 -33.421875 C 23.382812 -33.421875 24.300781 -33.234375 25.15625 -32.859375 C 26.019531 -32.484375 26.769531 -31.976562 27.40625 -31.34375 C 28.039062 -30.71875 28.550781 -29.972656 28.9375 -29.109375 C 29.332031 -28.242188 29.53125 -27.328125 29.53125 -26.359375 Z M 29.53125 -24.0625 "/></g></g></g><g fill="#eceff4" fill-opacity="1"><g transform="translate(213.987672, 281.027066)"><g><path d="M 24.890625 -0.640625 L 18.5625 -14.859375 L 8.140625 -14.859375 L 8.140625 -0.6875 C 8.140625 -0.226562 7.910156 0 7.453125 0 L 5.171875 0 C 4.710938 0 4.484375 -0.226562 4.484375 -0.6875 L 4.484375 -32.734375 C 4.484375 -33.191406 4.710938 -33.421875 5.171875 -33.421875 L 22.40625 -33.421875 C 23.382812 -33.421875 24.300781 -33.234375 25.15625 -32.859375 C 26.019531 -32.484375 26.773438 -31.972656 27.421875 -31.328125 C 28.078125 -30.679688 28.59375 -29.925781 28.96875 -29.0625 C 29.34375 -28.195312 29.53125 -27.28125 29.53125 -26.3125 L 29.53125 -21.96875 C 29.53125 -20.375 29.050781 -18.953125 28.09375 -17.703125 C 27.132812 -16.453125 25.890625 -15.601562 24.359375 -15.15625 L 22.703125 -14.671875 L 28.9375 -0.640625 C 29.03125 -0.472656 29.035156 -0.320312 28.953125 -0.1875 C 28.878906 -0.0625 28.742188 0 28.546875 0 L 25.875 0 C 25.675781 0 25.476562 -0.0625 25.28125 -0.1875 C 25.09375 -0.320312 24.960938 -0.472656 24.890625 -0.640625 Z M 8.140625 -18.5625 L 22.40625 -18.5625 C 23.351562 -18.5625 24.160156 -18.894531 24.828125 -19.5625 C 25.492188 -20.226562 25.828125 -21.03125 25.828125 -21.96875 L 25.828125 -26.3125 C 25.828125 -27.25 25.492188 -28.050781 24.828125 -28.71875 C 24.160156 -29.382812 23.351562 -29.71875 22.40625 -29.71875 L 8.140625 -29.71875 Z M 8.140625 -18.5625 "/></g></g></g><g fill="#eceff4" fill-opacity="1"><g transform="translate(247.942907, 281.027066)"><g><path d="M 5.109375 -0.6875 L 5.109375 -3.015625 C 5.109375 -3.179688 5.171875 -3.335938 5.296875 -3.484375 C 5.429688 -3.628906 5.597656 -3.703125 5.796875 -3.703125 L 15.15625 -3.703125 L 15.15625 -29.71875 L 5.796875 -29.71875 C 5.335938 -29.71875 5.109375 -29.945312 5.109375 -30.40625 L 5.109375 -32.734375 C 5.109375 -33.191406 5.335938 -33.421875 5.796875 -33.421875 L 28.15625 -33.421875 C 28.613281 -33.421875 28.84375 -33.191406 28.84375 -32.734375 L 28.84375 -30.40625 C 28.84375 -29.945312 28.613281 -29.71875 28.15625 -29.71875 L 18.859375 -29.71875 L 18.859375 -3.703125 L 28.15625 -3.703125 C 28.351562 -3.703125 28.515625 -3.628906 28.640625 -3.484375 C 28.773438 -3.335938 28.84375 -3.179688 28.84375 -3.015625 L 28.84375 -0.6875 C 28.84375 -0.226562 28.613281 0 28.15625 0 L 5.796875 0 C 5.335938 0 5.109375 -0.226562 5.109375 -0.6875 Z M 5.109375 -0.6875 "/></g></g></g><g fill="#eceff4" fill-opacity="1"><g transform="translate(281.898165, 281.027066)"><g><path d="M 4.4375 -0.6875 L 4.4375 -32.734375 C 4.4375 -32.929688 4.507812 -33.09375 4.65625 -33.21875 C 4.800781 -33.351562 4.953125 -33.421875 5.109375 -33.421875 L 22.40625 -33.421875 C 23.382812 -33.421875 24.300781 -33.234375 25.15625 -32.859375 C 26.019531 -32.484375 26.773438 -31.972656 27.421875 -31.328125 C 28.078125 -30.679688 28.59375 -29.925781 28.96875 -29.0625 C 29.34375 -28.195312 29.53125 -27.28125 29.53125 -26.3125 L 29.53125 -21.96875 C 29.53125 -21 29.34375 -20.070312 28.96875 -19.1875 C 28.59375 -18.3125 28.078125 -17.554688 27.421875 -16.921875 C 26.773438 -16.296875 26.019531 -15.796875 25.15625 -15.421875 C 24.300781 -15.046875 23.382812 -14.859375 22.40625 -14.859375 L 8.140625 -14.859375 L 8.140625 -0.6875 C 8.140625 -0.226562 7.910156 0 7.453125 0 L 5.109375 0 C 4.953125 0 4.800781 -0.0625 4.65625 -0.1875 C 4.507812 -0.320312 4.4375 -0.488281 4.4375 -0.6875 Z M 8.140625 -18.5625 L 22.40625 -18.5625 C 23.351562 -18.5625 24.160156 -18.894531 24.828125 -19.5625 C 25.492188 -20.226562 25.828125 -21.03125 25.828125 -21.96875 L 25.828125 -26.3125 C 25.828125 -27.25 25.492188 -28.050781 24.828125 -28.71875 C 24.160156 -29.382812 23.351562 -29.71875 22.40625 -29.71875 L 8.140625 -29.71875 Z M 8.140625 -18.5625 "/></g></g></g><g fill="#eceff4" fill-opacity="1"><g transform="translate(315.853423, 281.027066)"><g><path d="M 15.15625 -0.6875 L 15.15625 -29.71875 L 5.171875 -29.71875 C 4.710938 -29.71875 4.484375 -29.945312 4.484375 -30.40625 L 4.484375 -32.734375 C 4.484375 -33.191406 4.710938 -33.421875 5.171875 -33.421875 L 28.84375 -33.421875 C 29.300781 -33.421875 29.53125 -33.191406 29.53125 -32.734375 L 29.53125 -30.40625 C 29.53125 -29.945312 29.300781 -29.71875 28.84375 -29.71875 L 18.859375 -29.71875 L 18.859375 -0.6875 C 18.859375 -0.488281 18.785156 -0.320312 18.640625 -0.1875 C 18.492188 -0.0625 18.335938 0 18.171875 0 L 15.828125 0 C 15.378906 0 15.15625 -0.226562 15.15625 -0.6875 Z M 15.15625 -0.6875 "/></g></g></g></svg>