<svg xmlns="http://www.w3.org/2000/svg" xmlns:xlink="http://www.w3.org/1999/xlink" width="253" zoomAndPan="magnify" viewBox="0 0 189.75 209.249992" height="279" preserveAspectRatio="xMidYMid meet" version="1.0"><defs><g/><clipPath id="2252e9526d"><path d="M 27 0 L 162 0 L 162 152.453125 L 27 152.453125 Z M 27 0 " clip-rule="nonzero"/></clipPath></defs><g clip-path="url(#2252e9526d)"><path fill="#539e43" d="M 94.558594 152.433594 C 92.460938 152.433594 90.507812 151.875 88.695312 150.898438 L 70.125 139.867188 C 67.335938 138.335938 68.730469 137.777344 69.566406 137.496094 C 73.335938 136.238281 74.035156 135.960938 77.945312 133.726562 C 78.363281 133.445312 78.921875 133.589844 79.339844 133.867188 L 93.578125 142.382812 C 94.136719 142.660156 94.835938 142.660156 95.257812 142.382812 L 150.957031 110.136719 C 151.515625 109.855469 151.792969 109.296875 151.792969 108.597656 L 151.792969 44.238281 C 151.792969 43.542969 151.515625 42.984375 150.957031 42.703125 L 95.257812 10.59375 C 94.699219 10.316406 94 10.316406 93.578125 10.59375 L 37.878906 42.703125 C 37.320312 42.984375 37.039062 43.683594 37.039062 44.242188 L 37.039062 108.597656 C 37.039062 109.15625 37.320312 109.859375 37.878906 110.136719 L 53.09375 118.929688 C 61.332031 123.117188 66.496094 118.234375 66.496094 113.34375 L 66.496094 49.824219 C 66.496094 48.988281 67.195312 48.148438 68.171875 48.148438 L 75.292969 48.148438 C 76.128906 48.148438 76.96875 48.847656 76.96875 49.824219 L 76.96875 113.34375 C 76.96875 124.375 70.964844 130.796875 60.492188 130.796875 C 57.28125 130.796875 54.769531 130.796875 47.648438 127.304688 L 32.992188 118.929688 C 29.359375 116.839844 27.128906 112.929688 27.128906 108.742188 L 27.128906 44.382812 C 27.128906 40.191406 29.359375 36.285156 32.992188 34.191406 L 88.695312 1.941406 C 92.183594 -0.0117188 96.933594 -0.0117188 100.421875 1.941406 L 156.125 34.191406 C 159.753906 36.285156 161.988281 40.191406 161.988281 44.382812 L 161.988281 108.738281 C 161.988281 112.925781 159.753906 116.835938 156.125 118.925781 L 100.421875 151.175781 C 98.609375 152.015625 96.511719 152.429688 94.558594 152.429688 Z M 111.730469 108.183594 C 87.296875 108.183594 82.273438 97.007812 82.273438 87.515625 C 82.273438 86.679688 82.96875 85.839844 83.949219 85.839844 L 91.207031 85.839844 C 92.046875 85.839844 92.742188 86.398438 92.742188 87.238281 C 93.855469 94.636719 97.070312 98.269531 111.867188 98.269531 C 123.59375 98.269531 128.621094 95.613281 128.621094 89.332031 C 128.621094 85.703125 127.226562 83.046875 108.941406 81.238281 C 93.71875 79.699219 84.226562 76.347656 84.226562 64.207031 C 84.226562 52.894531 93.71875 46.195312 109.636719 46.195312 C 127.503906 46.195312 136.300781 52.335938 137.417969 65.738281 C 137.417969 66.160156 137.277344 66.574219 136.996094 66.996094 C 136.71875 67.277344 136.300781 67.554688 135.878906 67.554688 L 128.621094 67.554688 C 127.925781 67.554688 127.226562 66.996094 127.085938 66.296875 C 125.414062 58.621094 121.082031 56.109375 109.636719 56.109375 C 96.792969 56.109375 95.257812 60.574219 95.257812 63.925781 C 95.257812 67.972656 97.070312 69.230469 114.382812 71.464844 C 131.554688 73.699219 139.652344 76.90625 139.652344 88.910156 C 139.511719 101.195312 129.457031 108.183594 111.730469 108.183594 Z M 111.730469 108.183594 " fill-opacity="1" fill-rule="nonzero"/></g><g fill="#eceff4" fill-opacity="1"><g transform="translate(7.780328, 190.945371)"><g><path d="M 18.875 -0.5 L 18.875 -10.71875 L 5.953125 -21.40625 L 5.953125 -0.5 C 5.953125 -0.164062 5.785156 0 5.453125 0 L 3.734375 0 C 3.617188 0 3.503906 -0.046875 3.390625 -0.140625 C 3.285156 -0.234375 3.234375 -0.351562 3.234375 -0.5 L 3.234375 -23.9375 C 3.234375 -24.082031 3.285156 -24.203125 3.390625 -24.296875 C 3.503906 -24.390625 3.617188 -24.4375 3.734375 -24.4375 L 6.125 -24.4375 C 6.457031 -24.4375 6.753906 -24.332031 7.015625 -24.125 L 18.875 -14.328125 L 18.875 -23.9375 C 18.875 -24.269531 19.039062 -24.4375 19.375 -24.4375 L 21.09375 -24.4375 C 21.425781 -24.4375 21.59375 -24.269531 21.59375 -23.9375 L 21.59375 -0.5 C 21.59375 -0.164062 21.425781 0 21.09375 0 L 19.375 0 C 19.039062 0 18.875 -0.164062 18.875 -0.5 Z M 18.875 -0.5 "/></g></g></g><g fill="#eceff4" fill-opacity="1"><g transform="translate(32.611752, 190.945371)"><g><path d="M 8.4375 0 C 7.726562 0 7.054688 -0.132812 6.421875 -0.40625 C 5.796875 -0.675781 5.25 -1.039062 4.78125 -1.5 C 4.320312 -1.96875 3.957031 -2.519531 3.6875 -3.15625 C 3.414062 -3.800781 3.28125 -4.484375 3.28125 -5.203125 L 3.28125 -19.234375 C 3.28125 -19.953125 3.414062 -20.625 3.6875 -21.25 C 3.957031 -21.875 4.320312 -22.425781 4.78125 -22.90625 C 5.25 -23.382812 5.796875 -23.757812 6.421875 -24.03125 C 7.054688 -24.300781 7.726562 -24.4375 8.4375 -24.4375 L 16.390625 -24.4375 C 17.097656 -24.4375 17.765625 -24.300781 18.390625 -24.03125 C 19.023438 -23.757812 19.578125 -23.382812 20.046875 -22.90625 C 20.523438 -22.425781 20.898438 -21.875 21.171875 -21.25 C 21.453125 -20.625 21.59375 -19.953125 21.59375 -19.234375 L 21.59375 -5.203125 C 21.59375 -4.484375 21.453125 -3.800781 21.171875 -3.15625 C 20.898438 -2.519531 20.523438 -1.96875 20.046875 -1.5 C 19.578125 -1.039062 19.023438 -0.675781 18.390625 -0.40625 C 17.765625 -0.132812 17.097656 0 16.390625 0 Z M 8.4375 -21.734375 C 7.75 -21.734375 7.160156 -21.488281 6.671875 -21 C 6.191406 -20.507812 5.953125 -19.921875 5.953125 -19.234375 L 5.953125 -5.203125 C 5.953125 -4.515625 6.191406 -3.925781 6.671875 -3.4375 C 7.160156 -2.945312 7.75 -2.703125 8.4375 -2.703125 L 16.390625 -2.703125 C 17.078125 -2.703125 17.660156 -2.945312 18.140625 -3.4375 C 18.628906 -3.925781 18.875 -4.515625 18.875 -5.203125 L 18.875 -19.234375 C 18.875 -19.921875 18.628906 -20.507812 18.140625 -21 C 17.660156 -21.488281 17.078125 -21.734375 16.390625 -21.734375 Z M 8.4375 -21.734375 "/></g></g></g><g fill="#eceff4" fill-opacity="1"><g transform="translate(57.443175, 190.945371)"><g><path d="M 3.234375 -0.5 L 3.234375 -23.9375 C 3.234375 -24.0625 3.285156 -24.175781 3.390625 -24.28125 C 3.503906 -24.382812 3.617188 -24.4375 3.734375 -24.4375 L 16.390625 -24.4375 C 17.097656 -24.4375 17.765625 -24.300781 18.390625 -24.03125 C 19.023438 -23.757812 19.578125 -23.382812 20.046875 -22.90625 C 20.523438 -22.425781 20.898438 -21.875 21.171875 -21.25 C 21.453125 -20.625 21.59375 -19.953125 21.59375 -19.234375 L 21.59375 -5.203125 C 21.59375 -4.484375 21.453125 -3.800781 21.171875 -3.15625 C 20.898438 -2.519531 20.523438 -1.96875 20.046875 -1.5 C 19.578125 -1.039062 19.023438 -0.675781 18.390625 -0.40625 C 17.765625 -0.132812 17.097656 0 16.390625 0 L 3.734375 0 C 3.617188 0 3.503906 -0.046875 3.390625 -0.140625 C 3.285156 -0.234375 3.234375 -0.351562 3.234375 -0.5 Z M 5.953125 -2.703125 L 16.390625 -2.703125 C 17.078125 -2.703125 17.660156 -2.945312 18.140625 -3.4375 C 18.628906 -3.925781 18.875 -4.515625 18.875 -5.203125 L 18.875 -19.234375 C 18.875 -19.921875 18.628906 -20.507812 18.140625 -21 C 17.660156 -21.488281 17.078125 -21.734375 16.390625 -21.734375 L 5.953125 -21.734375 Z M 5.953125 -2.703125 "/></g></g></g><g fill="#eceff4" fill-opacity="1"><g transform="translate(82.274599, 190.945371)"><g><path d="M 3.8125 -0.5 L 3.8125 -23.9375 C 3.8125 -24.269531 3.976562 -24.4375 4.3125 -24.4375 L 20.90625 -24.4375 C 21.238281 -24.4375 21.40625 -24.269531 21.40625 -23.9375 L 21.40625 -22.234375 C 21.40625 -21.898438 21.238281 -21.734375 20.90625 -21.734375 L 6.484375 -21.734375 L 6.484375 -13.578125 L 18.984375 -13.578125 C 19.109375 -13.578125 19.222656 -13.519531 19.328125 -13.40625 C 19.429688 -13.300781 19.484375 -13.191406 19.484375 -13.078125 L 19.484375 -11.359375 C 19.484375 -11.222656 19.429688 -11.101562 19.328125 -11 C 19.222656 -10.90625 19.109375 -10.859375 18.984375 -10.859375 L 6.484375 -10.859375 L 6.484375 -2.703125 L 20.90625 -2.703125 C 21.050781 -2.703125 21.171875 -2.648438 21.265625 -2.546875 C 21.359375 -2.441406 21.40625 -2.328125 21.40625 -2.203125 L 21.40625 -0.5 C 21.40625 -0.164062 21.238281 0 20.90625 0 L 4.3125 0 C 3.976562 0 3.8125 -0.164062 3.8125 -0.5 Z M 3.8125 -0.5 "/></g></g></g><g fill="#eceff4" fill-opacity="1"><g transform="translate(107.070398, 190.945371)"><g/></g></g><g fill="#eceff4" fill-opacity="1"><g transform="translate(131.866198, 190.945371)"><g><path d="M 3.421875 -8.1875 C 3.421875 -8.3125 3.472656 -8.425781 3.578125 -8.53125 C 3.679688 -8.632812 3.796875 -8.6875 3.921875 -8.6875 L 5.625 -8.6875 C 5.769531 -8.6875 5.890625 -8.632812 5.984375 -8.53125 C 6.078125 -8.425781 6.125 -8.3125 6.125 -8.1875 L 6.125 -5.203125 C 6.125 -4.515625 6.367188 -3.925781 6.859375 -3.4375 C 7.347656 -2.945312 7.9375 -2.703125 8.625 -2.703125 L 16.203125 -2.703125 C 16.898438 -2.703125 17.488281 -2.945312 17.96875 -3.4375 C 18.457031 -3.925781 18.703125 -4.515625 18.703125 -5.203125 L 18.703125 -21.734375 L 3.953125 -21.734375 C 3.617188 -21.734375 3.453125 -21.898438 3.453125 -22.234375 L 3.453125 -23.9375 C 3.453125 -24.269531 3.617188 -24.4375 3.953125 -24.4375 L 20.90625 -24.4375 C 21.238281 -24.4375 21.40625 -24.269531 21.40625 -23.9375 L 21.40625 -5.203125 C 21.40625 -4.484375 21.269531 -3.800781 21 -3.15625 C 20.726562 -2.519531 20.351562 -1.96875 19.875 -1.5 C 19.40625 -1.039062 18.851562 -0.675781 18.21875 -0.40625 C 17.59375 -0.132812 16.921875 0 16.203125 0 L 8.625 0 C 7.90625 0 7.234375 -0.132812 6.609375 -0.40625 C 5.984375 -0.675781 5.429688 -1.039062 4.953125 -1.5 C 4.472656 -1.96875 4.097656 -2.519531 3.828125 -3.15625 C 3.554688 -3.800781 3.421875 -4.484375 3.421875 -5.203125 Z M 3.421875 -8.1875 "/></g></g></g><g fill="#eceff4" fill-opacity="1"><g transform="translate(156.661997, 190.945371)"><g><path d="M 3.234375 -5.203125 L 3.234375 -6.84375 C 3.234375 -6.957031 3.285156 -7.066406 3.390625 -7.171875 C 3.503906 -7.285156 3.617188 -7.34375 3.734375 -7.34375 L 5.453125 -7.34375 C 5.597656 -7.34375 5.71875 -7.285156 5.8125 -7.171875 C 5.90625 -7.066406 5.953125 -6.957031 5.953125 -6.84375 L 5.953125 -5.203125 C 5.953125 -4.515625 6.191406 -3.925781 6.671875 -3.4375 C 7.160156 -2.945312 7.75 -2.703125 8.4375 -2.703125 L 16.390625 -2.703125 C 17.078125 -2.703125 17.660156 -2.945312 18.140625 -3.4375 C 18.628906 -3.925781 18.875 -4.515625 18.875 -5.203125 L 18.875 -8.375 C 18.875 -9.0625 18.628906 -9.644531 18.140625 -10.125 C 17.660156 -10.613281 17.078125 -10.859375 16.390625 -10.859375 L 8.4375 -10.859375 C 7.726562 -10.859375 7.054688 -10.992188 6.421875 -11.265625 C 5.796875 -11.546875 5.242188 -11.914062 4.765625 -12.375 C 4.296875 -12.84375 3.921875 -13.394531 3.640625 -14.03125 C 3.367188 -14.675781 3.234375 -15.351562 3.234375 -16.0625 L 3.234375 -19.234375 C 3.234375 -19.953125 3.367188 -20.625 3.640625 -21.25 C 3.921875 -21.875 4.296875 -22.425781 4.765625 -22.90625 C 5.242188 -23.382812 5.796875 -23.757812 6.421875 -24.03125 C 7.054688 -24.300781 7.726562 -24.4375 8.4375 -24.4375 L 16.390625 -24.4375 C 17.097656 -24.4375 17.765625 -24.300781 18.390625 -24.03125 C 19.023438 -23.757812 19.578125 -23.382812 20.046875 -22.90625 C 20.523438 -22.425781 20.898438 -21.875 21.171875 -21.25 C 21.453125 -20.625 21.59375 -19.953125 21.59375 -19.234375 L 21.59375 -17.59375 C 21.59375 -17.257812 21.425781 -17.09375 21.09375 -17.09375 L 19.375 -17.09375 C 19.039062 -17.09375 18.875 -17.257812 18.875 -17.59375 L 18.875 -19.234375 C 18.875 -19.921875 18.628906 -20.507812 18.140625 -21 C 17.660156 -21.488281 17.078125 -21.734375 16.390625 -21.734375 L 8.4375 -21.734375 C 7.75 -21.734375 7.160156 -21.488281 6.671875 -21 C 6.191406 -20.507812 5.953125 -19.921875 5.953125 -19.234375 L 5.953125 -16.0625 C 5.953125 -15.375 6.191406 -14.785156 6.671875 -14.296875 C 7.160156 -13.816406 7.75 -13.578125 8.4375 -13.578125 L 16.390625 -13.578125 C 17.097656 -13.578125 17.765625 -13.4375 18.390625 -13.15625 C 19.023438 -12.882812 19.578125 -12.507812 20.046875 -12.03125 C 20.523438 -11.5625 20.898438 -11.007812 21.171875 -10.375 C 21.453125 -9.75 21.59375 -9.082031 21.59375 -8.375 L 21.59375 -5.203125 C 21.59375 -4.484375 21.453125 -3.800781 21.171875 -3.15625 C 20.898438 -2.519531 20.523438 -1.96875 20.046875 -1.5 C 19.578125 -1.039062 19.023438 -0.675781 18.390625 -0.40625 C 17.765625 -0.132812 17.097656 0 16.390625 0 L 8.4375 0 C 7.726562 0 7.054688 -0.132812 6.421875 -0.40625 C 5.796875 -0.675781 5.242188 -1.039062 4.765625 -1.5 C 4.296875 -1.96875 3.921875 -2.519531 3.640625 -3.15625 C 3.367188 -3.800781 3.234375 -4.484375 3.234375 -5.203125 Z M 3.234375 -5.203125 "/></g></g></g></svg>