<svg xmlns="http://www.w3.org/2000/svg" xmlns:xlink="http://www.w3.org/1999/xlink" width="180" zoomAndPan="magnify" viewBox="0 0 135 129.750003" height="173" preserveAspectRatio="xMidYMid meet" version="1.0"><defs><g/><clipPath id="a243c3043c"><path d="M 0.128906 0 L 134.871094 0 L 134.871094 69.617188 L 0.128906 69.617188 Z M 0.128906 0 " clip-rule="nonzero"/></clipPath><clipPath id="f01211e08e"><path d="M 0.128906 34.820312 C 0.128906 54 30.292969 69.546875 67.5 69.546875 C 104.703125 69.546875 134.867188 54 134.867188 34.820312 C 134.867188 15.636719 104.703125 0.0898438 67.5 0.0898438 C 30.292969 0.0898438 0.128906 15.640625 0.128906 34.820312 " clip-rule="nonzero"/></clipPath><clipPath id="23de41fa3c"><path d="M 0.128906 34.820312 C 0.128906 54 30.292969 69.546875 67.5 69.546875 C 104.703125 69.546875 134.867188 54 134.867188 34.820312 C 134.867188 15.636719 104.703125 0.0898438 67.5 0.0898438 C 30.292969 0.0898438 0.128906 15.640625 0.128906 34.820312 " clip-rule="nonzero"/></clipPath><radialGradient gradientTransform="matrix(1.010098, 0, 0, 0.989902, 40.57809, 12.298187)" gradientUnits="userSpaceOnUse" r="87.580457" cx="0" id="2adb4f6e49" cy="0" fx="0" fy="0"><stop stop-opacity="1" stop-color="rgb(68.199158%, 69.799805%, 83.499146%)" offset="0"/><stop stop-opacity="1" stop-color="rgb(68.199158%, 69.799805%, 83.499146%)" offset="0.25"/><stop stop-opacity="1" stop-color="rgb(68.164062%, 69.764709%, 83.473206%)" offset="0.296875"/><stop stop-opacity="1" stop-color="rgb(67.956543%, 69.555664%, 83.317566%)" offset="0.300781"/><stop stop-opacity="1" stop-color="rgb(67.608643%, 69.20929%, 83.059692%)" offset="0.304688"/><stop stop-opacity="1" stop-color="rgb(67.260742%, 68.861389%, 82.800293%)" offset="0.308594"/><stop stop-opacity="1" stop-color="rgb(66.914368%, 68.513489%, 82.542419%)" offset="0.3125"/><stop stop-opacity="1" stop-color="rgb(66.566467%, 68.167114%, 82.28302%)" offset="0.316406"/><stop stop-opacity="1" stop-color="rgb(66.220093%, 67.819214%, 82.025146%)" offset="0.320312"/><stop stop-opacity="1" stop-color="rgb(65.872192%, 67.472839%, 81.765747%)" offset="0.324219"/><stop stop-opacity="1" stop-color="rgb(65.525818%, 67.124939%, 81.506348%)" offset="0.328125"/><stop stop-opacity="1" stop-color="rgb(65.177917%, 66.778564%, 81.248474%)" offset="0.332031"/><stop stop-opacity="1" stop-color="rgb(64.831543%, 66.430664%, 80.989075%)" offset="0.335938"/><stop stop-opacity="1" stop-color="rgb(64.483643%, 66.08429%, 80.731201%)" offset="0.339844"/><stop stop-opacity="1" stop-color="rgb(64.135742%, 65.736389%, 80.471802%)" offset="0.34375"/><stop stop-opacity="1" stop-color="rgb(63.789368%, 65.388489%, 80.213928%)" offset="0.347656"/><stop stop-opacity="1" stop-color="rgb(63.441467%, 65.042114%, 79.954529%)" offset="0.351562"/><stop stop-opacity="1" stop-color="rgb(63.095093%, 64.694214%, 79.696655%)" offset="0.355469"/><stop stop-opacity="1" stop-color="rgb(62.747192%, 64.347839%, 79.437256%)" offset="0.359375"/><stop stop-opacity="1" stop-color="rgb(62.400818%, 63.999939%, 79.179382%)" offset="0.363281"/><stop stop-opacity="1" stop-color="rgb(62.052917%, 63.653564%, 78.919983%)" offset="0.367188"/><stop stop-opacity="1" stop-color="rgb(61.706543%, 63.305664%, 78.662109%)" offset="0.371094"/><stop stop-opacity="1" stop-color="rgb(61.358643%, 62.95929%, 78.40271%)" offset="0.375"/><stop stop-opacity="1" stop-color="rgb(61.010742%, 62.611389%, 78.144836%)" offset="0.378906"/><stop stop-opacity="1" stop-color="rgb(60.664368%, 62.263489%, 77.885437%)" offset="0.382812"/><stop stop-opacity="1" stop-color="rgb(60.316467%, 61.917114%, 77.627563%)" offset="0.386719"/><stop stop-opacity="1" stop-color="rgb(59.970093%, 61.569214%, 77.368164%)" offset="0.390625"/><stop stop-opacity="1" stop-color="rgb(59.622192%, 61.222839%, 77.108765%)" offset="0.394531"/><stop stop-opacity="1" stop-color="rgb(59.275818%, 60.874939%, 76.850891%)" offset="0.398438"/><stop stop-opacity="1" stop-color="rgb(58.927917%, 60.528564%, 76.591492%)" offset="0.402344"/><stop stop-opacity="1" stop-color="rgb(58.581543%, 60.180664%, 76.333618%)" offset="0.40625"/><stop stop-opacity="1" stop-color="rgb(58.233643%, 59.83429%, 76.074219%)" offset="0.410156"/><stop stop-opacity="1" stop-color="rgb(57.885742%, 59.486389%, 75.816345%)" offset="0.414062"/><stop stop-opacity="1" stop-color="rgb(57.539368%, 59.138489%, 75.556946%)" offset="0.417969"/><stop stop-opacity="1" stop-color="rgb(57.191467%, 58.792114%, 75.299072%)" offset="0.421875"/><stop stop-opacity="1" stop-color="rgb(56.845093%, 58.444214%, 75.039673%)" offset="0.425781"/><stop stop-opacity="1" stop-color="rgb(56.497192%, 58.097839%, 74.781799%)" offset="0.429688"/><stop stop-opacity="1" stop-color="rgb(56.150818%, 57.749939%, 74.5224%)" offset="0.433594"/><stop stop-opacity="1" stop-color="rgb(55.802917%, 57.403564%, 74.264526%)" offset="0.4375"/><stop stop-opacity="1" stop-color="rgb(55.456543%, 57.055664%, 74.005127%)" offset="0.441406"/><stop stop-opacity="1" stop-color="rgb(55.108643%, 56.70929%, 73.747253%)" offset="0.445312"/><stop stop-opacity="1" stop-color="rgb(54.760742%, 56.361389%, 73.487854%)" offset="0.449219"/><stop stop-opacity="1" stop-color="rgb(54.414368%, 56.013489%, 73.22998%)" offset="0.453125"/><stop stop-opacity="1" stop-color="rgb(54.066467%, 55.667114%, 72.970581%)" offset="0.457031"/><stop stop-opacity="1" stop-color="rgb(53.720093%, 55.319214%, 72.711182%)" offset="0.460938"/><stop stop-opacity="1" stop-color="rgb(53.372192%, 54.972839%, 72.453308%)" offset="0.464844"/><stop stop-opacity="1" stop-color="rgb(53.025818%, 54.624939%, 72.193909%)" offset="0.46875"/><stop stop-opacity="1" stop-color="rgb(52.677917%, 54.278564%, 71.936035%)" offset="0.472656"/><stop stop-opacity="1" stop-color="rgb(52.331543%, 53.930664%, 71.676636%)" offset="0.476562"/><stop stop-opacity="1" stop-color="rgb(51.983643%, 53.58429%, 71.418762%)" offset="0.480469"/><stop stop-opacity="1" stop-color="rgb(51.635742%, 53.236389%, 71.159363%)" offset="0.484375"/><stop stop-opacity="1" stop-color="rgb(51.289368%, 52.888489%, 70.901489%)" offset="0.488281"/><stop stop-opacity="1" stop-color="rgb(50.941467%, 52.542114%, 70.64209%)" offset="0.492188"/><stop stop-opacity="1" stop-color="rgb(50.595093%, 52.194214%, 70.384216%)" offset="0.496094"/><stop stop-opacity="1" stop-color="rgb(50.247192%, 51.847839%, 70.124817%)" offset="0.5"/><stop stop-opacity="1" stop-color="rgb(49.900818%, 51.499939%, 69.866943%)" offset="0.503906"/><stop stop-opacity="1" stop-color="rgb(49.552917%, 51.153564%, 69.607544%)" offset="0.507812"/><stop stop-opacity="1" stop-color="rgb(49.206543%, 50.805664%, 69.34967%)" offset="0.511719"/><stop stop-opacity="1" stop-color="rgb(48.858643%, 50.45929%, 69.090271%)" offset="0.515625"/><stop stop-opacity="1" stop-color="rgb(48.510742%, 50.111389%, 68.832397%)" offset="0.519531"/><stop stop-opacity="1" stop-color="rgb(48.164368%, 49.763489%, 68.572998%)" offset="0.523438"/><stop stop-opacity="1" stop-color="rgb(47.816467%, 49.417114%, 68.313599%)" offset="0.527344"/><stop stop-opacity="1" stop-color="rgb(47.470093%, 49.069214%, 68.055725%)" offset="0.53125"/><stop stop-opacity="1" stop-color="rgb(47.122192%, 48.722839%, 67.796326%)" offset="0.535156"/><stop stop-opacity="1" stop-color="rgb(46.775818%, 48.374939%, 67.538452%)" offset="0.539062"/><stop stop-opacity="1" stop-color="rgb(46.427917%, 48.028564%, 67.279053%)" offset="0.542969"/><stop stop-opacity="1" stop-color="rgb(46.081543%, 47.680664%, 67.021179%)" offset="0.546875"/><stop stop-opacity="1" stop-color="rgb(45.733643%, 47.33429%, 66.76178%)" offset="0.550781"/><stop stop-opacity="1" stop-color="rgb(45.385742%, 46.986389%, 66.503906%)" offset="0.554688"/><stop stop-opacity="1" stop-color="rgb(45.039368%, 46.638489%, 66.244507%)" offset="0.558594"/><stop stop-opacity="1" stop-color="rgb(44.691467%, 46.292114%, 65.986633%)" offset="0.5625"/><stop stop-opacity="1" stop-color="rgb(44.345093%, 45.944214%, 65.727234%)" offset="0.566406"/><stop stop-opacity="1" stop-color="rgb(43.997192%, 45.597839%, 65.46936%)" offset="0.570312"/><stop stop-opacity="1" stop-color="rgb(43.650818%, 45.249939%, 65.209961%)" offset="0.574219"/><stop stop-opacity="1" stop-color="rgb(43.302917%, 44.903564%, 64.952087%)" offset="0.578125"/><stop stop-opacity="1" stop-color="rgb(42.956543%, 44.555664%, 64.692688%)" offset="0.582031"/><stop stop-opacity="1" stop-color="rgb(42.608643%, 44.20929%, 64.434814%)" offset="0.585938"/><stop stop-opacity="1" stop-color="rgb(42.260742%, 43.861389%, 64.175415%)" offset="0.589844"/><stop stop-opacity="1" stop-color="rgb(41.914368%, 43.513489%, 63.916016%)" offset="0.59375"/><stop stop-opacity="1" stop-color="rgb(41.566467%, 43.167114%, 63.658142%)" offset="0.597656"/><stop stop-opacity="1" stop-color="rgb(41.220093%, 42.819214%, 63.398743%)" offset="0.601562"/><stop stop-opacity="1" stop-color="rgb(40.872192%, 42.472839%, 63.140869%)" offset="0.605469"/><stop stop-opacity="1" stop-color="rgb(40.525818%, 42.124939%, 62.88147%)" offset="0.609375"/><stop stop-opacity="1" stop-color="rgb(40.177917%, 41.778564%, 62.623596%)" offset="0.613281"/><stop stop-opacity="1" stop-color="rgb(39.831543%, 41.430664%, 62.364197%)" offset="0.617188"/><stop stop-opacity="1" stop-color="rgb(39.483643%, 41.08429%, 62.106323%)" offset="0.621094"/><stop stop-opacity="1" stop-color="rgb(39.135742%, 40.736389%, 61.846924%)" offset="0.625"/><stop stop-opacity="1" stop-color="rgb(38.789368%, 40.388489%, 61.58905%)" offset="0.628906"/><stop stop-opacity="1" stop-color="rgb(38.441467%, 40.042114%, 61.329651%)" offset="0.632812"/><stop stop-opacity="1" stop-color="rgb(38.095093%, 39.694214%, 61.071777%)" offset="0.636719"/><stop stop-opacity="1" stop-color="rgb(37.747192%, 39.347839%, 60.812378%)" offset="0.640625"/><stop stop-opacity="1" stop-color="rgb(37.400818%, 38.999939%, 60.554504%)" offset="0.644531"/><stop stop-opacity="1" stop-color="rgb(37.052917%, 38.653564%, 60.295105%)" offset="0.648438"/><stop stop-opacity="1" stop-color="rgb(36.706543%, 38.305664%, 60.037231%)" offset="0.652344"/><stop stop-opacity="1" stop-color="rgb(36.358643%, 37.95929%, 59.777832%)" offset="0.65625"/><stop stop-opacity="1" stop-color="rgb(36.010742%, 37.611389%, 59.518433%)" offset="0.660156"/><stop stop-opacity="1" stop-color="rgb(35.664368%, 37.263489%, 59.260559%)" offset="0.664062"/><stop stop-opacity="1" stop-color="rgb(35.316467%, 36.917114%, 59.00116%)" offset="0.667969"/><stop stop-opacity="1" stop-color="rgb(34.970093%, 36.569214%, 58.743286%)" offset="0.671875"/><stop stop-opacity="1" stop-color="rgb(34.622192%, 36.222839%, 58.483887%)" offset="0.675781"/><stop stop-opacity="1" stop-color="rgb(34.275818%, 35.874939%, 58.226013%)" offset="0.679688"/><stop stop-opacity="1" stop-color="rgb(33.927917%, 35.528564%, 57.966614%)" offset="0.683594"/><stop stop-opacity="1" stop-color="rgb(33.581543%, 35.180664%, 57.70874%)" offset="0.6875"/><stop stop-opacity="1" stop-color="rgb(33.233643%, 34.83429%, 57.449341%)" offset="0.691406"/><stop stop-opacity="1" stop-color="rgb(32.885742%, 34.486389%, 57.191467%)" offset="0.695312"/><stop stop-opacity="1" stop-color="rgb(32.539368%, 34.138489%, 56.932068%)" offset="0.699219"/><stop stop-opacity="1" stop-color="rgb(32.191467%, 33.792114%, 56.674194%)" offset="0.703125"/><stop stop-opacity="1" stop-color="rgb(31.845093%, 33.444214%, 56.414795%)" offset="0.707031"/><stop stop-opacity="1" stop-color="rgb(31.497192%, 33.097839%, 56.156921%)" offset="0.710938"/><stop stop-opacity="1" stop-color="rgb(31.150818%, 32.749939%, 55.897522%)" offset="0.714844"/><stop stop-opacity="1" stop-color="rgb(30.802917%, 32.403564%, 55.639648%)" offset="0.71875"/><stop stop-opacity="1" stop-color="rgb(30.456543%, 32.055664%, 55.380249%)" offset="0.722656"/><stop stop-opacity="1" stop-color="rgb(30.108643%, 31.70929%, 55.122375%)" offset="0.726562"/><stop stop-opacity="1" stop-color="rgb(29.760742%, 31.361389%, 54.862976%)" offset="0.730469"/><stop stop-opacity="1" stop-color="rgb(29.414368%, 31.013489%, 54.603577%)" offset="0.734375"/><stop stop-opacity="1" stop-color="rgb(29.066467%, 30.667114%, 54.345703%)" offset="0.738281"/><stop stop-opacity="1" stop-color="rgb(28.720093%, 30.319214%, 54.086304%)" offset="0.742188"/><stop stop-opacity="1" stop-color="rgb(28.372192%, 29.972839%, 53.82843%)" offset="0.746094"/><stop stop-opacity="1" stop-color="rgb(28.199768%, 29.798889%, 53.69873%)" offset="1"/></radialGradient></defs><g clip-path="url(#a243c3043c)"><g clip-path="url(#f01211e08e)"><g clip-path="url(#23de41fa3c)"><path fill="url(#2adb4f6e49)" d="M 0.128906 0.0898438 L 0.128906 69.546875 L 134.867188 69.546875 L 134.867188 0.0898438 Z M 0.128906 0.0898438 " fill-rule="nonzero"/></g></g></g><path fill="#777bb3" d="M 67.5 66.96875 C 103.25 66.96875 132.234375 52.574219 132.234375 34.820312 C 132.234375 17.0625 103.25 2.667969 67.5 2.667969 C 31.746094 2.667969 2.761719 17.0625 2.761719 34.820312 C 2.761719 52.574219 31.746094 66.96875 67.5 66.96875 " fill-opacity="1" fill-rule="nonzero"/><path fill="#000000" d="M 36.730469 38.804688 C 39.671875 38.804688 41.863281 38.273438 43.253906 37.226562 C 44.628906 36.1875 45.574219 34.394531 46.074219 31.886719 C 46.539062 29.546875 46.359375 27.910156 45.546875 27.027344 C 44.71875 26.128906 42.921875 25.671875 40.214844 25.671875 L 35.515625 25.671875 L 32.910156 38.804688 Z M 21.363281 54.984375 C 21.148438 54.984375 20.941406 54.886719 20.800781 54.722656 C 20.65625 54.546875 20.605469 54.351562 20.648438 54.128906 L 27.550781 19.324219 C 27.582031 19.15625 27.667969 19.019531 27.804688 18.910156 C 27.9375 18.800781 28.09375 18.746094 28.269531 18.746094 L 43.144531 18.746094 C 47.820312 18.746094 51.300781 19.988281 53.488281 22.445312 C 55.6875 24.910156 56.367188 28.359375 55.503906 32.695312 C 55.15625 34.460938 54.554688 36.097656 53.71875 37.566406 C 52.878906 39.039062 51.773438 40.398438 50.425781 41.609375 C 48.8125 43.089844 46.988281 44.160156 45.007812 44.792969 C 43.058594 45.414062 40.554688 45.730469 37.5625 45.730469 L 31.539062 45.730469 L 29.820312 54.402344 C 29.785156 54.570312 29.703125 54.710938 29.566406 54.820312 C 29.433594 54.929688 29.277344 54.984375 29.101562 54.984375 Z M 21.363281 54.984375 " fill-opacity="1" fill-rule="nonzero"/><path fill="#ffffff" d="M 36.117188 26.386719 L 40.214844 26.386719 C 43.484375 26.386719 44.621094 27.089844 45.007812 27.507812 C 45.648438 28.207031 45.769531 29.671875 45.355469 31.75 C 44.894531 34.082031 44.035156 35.730469 42.808594 36.65625 C 41.550781 37.605469 39.503906 38.085938 36.730469 38.085938 L 33.800781 38.085938 L 36.121094 26.386719 Z M 43.144531 18.027344 L 28.269531 18.027344 C 27.917969 18.027344 27.609375 18.136719 27.339844 18.355469 C 27.070312 18.574219 26.898438 18.851562 26.832031 19.1875 L 19.929688 53.996094 C 19.890625 54.203125 19.894531 54.414062 19.949219 54.621094 C 20.003906 54.828125 20.097656 55.015625 20.238281 55.179688 C 20.375 55.34375 20.546875 55.472656 20.742188 55.5625 C 20.941406 55.65625 21.148438 55.699219 21.367188 55.699219 L 29.101562 55.699219 C 29.453125 55.699219 29.761719 55.59375 30.03125 55.375 C 30.300781 55.15625 30.46875 54.878906 30.539062 54.542969 L 32.144531 46.449219 L 37.5625 46.449219 C 40.628906 46.449219 43.210938 46.121094 45.234375 45.472656 C 47.316406 44.8125 49.230469 43.6875 50.925781 42.136719 C 52.328125 40.871094 53.484375 39.453125 54.355469 37.917969 C 55.226562 36.382812 55.859375 34.671875 56.222656 32.832031 C 57.128906 28.269531 56.394531 24.617188 54.039062 21.976562 C 51.707031 19.359375 48.042969 18.03125 43.144531 18.03125 M 32.027344 39.523438 L 36.730469 39.523438 C 39.851562 39.523438 42.175781 38.945312 43.699219 37.796875 C 45.226562 36.644531 46.257812 34.722656 46.792969 32.027344 C 47.304688 29.441406 47.070312 27.613281 46.09375 26.550781 C 45.117188 25.488281 43.15625 24.957031 40.214844 24.957031 L 34.914062 24.957031 L 32.027344 39.523438 M 43.144531 19.464844 C 47.621094 19.464844 50.886719 20.613281 52.9375 22.917969 C 54.992188 25.21875 55.609375 28.433594 54.789062 32.558594 C 54.453125 34.257812 53.882812 35.8125 53.078125 37.21875 C 52.277344 38.628906 51.226562 39.914062 49.929688 41.082031 C 48.386719 42.5 46.671875 43.511719 44.78125 44.113281 C 42.894531 44.714844 40.488281 45.015625 37.566406 45.015625 L 30.9375 45.015625 L 29.101562 54.269531 L 21.367188 54.269531 L 28.269531 19.464844 L 43.148438 19.464844 " fill-opacity="1" fill-rule="nonzero"/><path fill="#000000" d="M 73.242188 45.730469 C 73.027344 45.730469 72.820312 45.632812 72.679688 45.46875 C 72.542969 45.304688 72.484375 45.085938 72.527344 44.875 L 75.578125 29.476562 C 75.871094 28.011719 75.796875 26.960938 75.378906 26.515625 C 75.121094 26.246094 74.347656 25.789062 72.0625 25.789062 L 66.53125 25.789062 L 62.691406 45.148438 C 62.660156 45.316406 62.574219 45.457031 62.4375 45.566406 C 62.304688 45.675781 62.148438 45.730469 61.972656 45.730469 L 54.300781 45.730469 C 54.191406 45.730469 54.085938 45.707031 53.988281 45.660156 C 53.886719 45.613281 53.804688 45.550781 53.734375 45.46875 C 53.664062 45.386719 53.617188 45.292969 53.589844 45.1875 C 53.5625 45.085938 53.558594 44.980469 53.582031 44.875 L 60.484375 10.070312 C 60.515625 9.902344 60.601562 9.765625 60.738281 9.65625 C 60.871094 9.546875 61.027344 9.492188 61.203125 9.492188 L 68.875 9.492188 C 68.984375 9.492188 69.089844 9.515625 69.1875 9.5625 C 69.289062 9.605469 69.371094 9.671875 69.441406 9.753906 C 69.511719 9.835938 69.558594 9.929688 69.585938 10.03125 C 69.613281 10.136719 69.613281 10.242188 69.59375 10.34375 L 67.929688 18.746094 L 73.878906 18.746094 C 78.414062 18.746094 81.488281 19.527344 83.277344 21.140625 C 85.105469 22.785156 85.671875 25.414062 84.96875 28.953125 L 81.757812 45.148438 C 81.726562 45.316406 81.640625 45.457031 81.507812 45.566406 C 81.371094 45.675781 81.214844 45.730469 81.042969 45.730469 Z M 73.242188 45.730469 " fill-opacity="1" fill-rule="nonzero"/><path fill="#ffffff" d="M 68.878906 8.777344 L 61.203125 8.777344 C 60.851562 8.777344 60.542969 8.886719 60.273438 9.101562 C 60 9.320312 59.832031 9.597656 59.765625 9.933594 L 52.863281 44.738281 C 52.824219 44.949219 52.828125 45.15625 52.882812 45.367188 C 52.9375 45.574219 53.03125 45.757812 53.171875 45.925781 C 53.308594 46.089844 53.476562 46.21875 53.675781 46.308594 C 53.875 46.398438 54.082031 46.445312 54.300781 46.445312 L 61.976562 46.445312 C 62.324219 46.445312 62.632812 46.335938 62.90625 46.117188 C 63.175781 45.898438 63.34375 45.621094 63.410156 45.285156 L 67.132812 26.507812 L 72.0625 26.507812 C 74.34375 26.507812 74.824219 26.984375 74.84375 27.003906 C 74.980469 27.148438 75.164062 27.824219 74.863281 29.339844 L 71.808594 44.738281 C 71.769531 44.949219 71.773438 45.15625 71.828125 45.367188 C 71.882812 45.574219 71.976562 45.757812 72.117188 45.925781 C 72.253906 46.089844 72.421875 46.21875 72.621094 46.308594 C 72.820312 46.398438 73.027344 46.445312 73.246094 46.445312 L 81.042969 46.445312 C 81.390625 46.445312 81.703125 46.335938 81.972656 46.117188 C 82.242188 45.898438 82.410156 45.621094 82.476562 45.285156 L 85.6875 29.089844 C 86.441406 25.289062 85.796875 22.4375 83.773438 20.613281 C 81.839844 18.875 78.605469 18.027344 73.878906 18.027344 L 68.816406 18.027344 L 70.3125 10.480469 C 70.355469 10.273438 70.347656 10.0625 70.296875 9.855469 C 70.242188 9.648438 70.144531 9.460938 70.007812 9.296875 C 69.867188 9.132812 69.699219 9.003906 69.5 8.914062 C 69.304688 8.820312 69.097656 8.777344 68.878906 8.777344 M 68.878906 10.207031 L 67.042969 19.460938 L 73.882812 19.460938 C 78.183594 19.460938 81.152344 20.199219 82.785156 21.667969 C 84.417969 23.136719 84.90625 25.523438 84.253906 28.816406 L 81.042969 45.011719 L 73.246094 45.011719 L 76.296875 29.613281 C 76.644531 27.863281 76.519531 26.667969 75.914062 26.03125 C 75.3125 25.390625 74.027344 25.074219 72.0625 25.074219 L 65.929688 25.074219 L 61.976562 45.011719 L 54.300781 45.011719 L 61.203125 10.207031 L 68.878906 10.207031 " fill-opacity="1" fill-rule="nonzero"/><path fill="#000000" d="M 97.117188 38.804688 C 100.054688 38.804688 102.25 38.273438 103.636719 37.226562 C 105.011719 36.1875 105.960938 34.394531 106.457031 31.886719 C 106.921875 29.546875 106.746094 27.910156 105.933594 27.027344 C 105.101562 26.128906 103.308594 25.671875 100.597656 25.671875 L 95.902344 25.671875 L 93.296875 38.804688 Z M 81.75 54.980469 C 81.53125 54.980469 81.324219 54.886719 81.1875 54.722656 C 81.039062 54.546875 80.988281 54.351562 81.03125 54.128906 L 87.933594 19.324219 C 87.96875 19.15625 88.050781 19.019531 88.1875 18.910156 C 88.324219 18.800781 88.476562 18.746094 88.652344 18.746094 L 103.527344 18.746094 C 108.203125 18.746094 111.683594 19.988281 113.871094 22.445312 C 116.070312 24.910156 116.75 28.359375 115.890625 32.691406 C 115.539062 34.457031 114.9375 36.097656 114.101562 37.566406 C 113.261719 39.035156 112.15625 40.394531 110.808594 41.609375 C 109.195312 43.089844 107.371094 44.160156 105.390625 44.792969 C 103.441406 45.414062 100.9375 45.730469 97.949219 45.730469 L 91.917969 45.730469 L 90.199219 54.402344 C 90.167969 54.570312 90.082031 54.710938 89.945312 54.820312 C 89.8125 54.929688 89.65625 54.984375 89.480469 54.984375 L 81.746094 54.984375 Z M 81.75 54.980469 " fill-opacity="1" fill-rule="nonzero"/><path fill="#ffffff" d="M 96.503906 26.386719 L 100.597656 26.386719 C 103.871094 26.386719 105.003906 27.089844 105.390625 27.507812 C 106.03125 28.207031 106.152344 29.671875 105.742188 31.75 C 105.277344 34.078125 104.421875 35.730469 103.191406 36.65625 C 101.933594 37.605469 99.890625 38.085938 97.117188 38.085938 L 94.183594 38.085938 Z M 103.527344 18.027344 L 88.652344 18.027344 C 88.300781 18.027344 87.992188 18.136719 87.722656 18.355469 C 87.453125 18.574219 87.285156 18.851562 87.21875 19.1875 L 80.3125 53.996094 C 80.273438 54.203125 80.277344 54.414062 80.332031 54.621094 C 80.386719 54.828125 80.480469 55.015625 80.621094 55.179688 C 80.761719 55.34375 80.929688 55.472656 81.125 55.5625 C 81.324219 55.65625 81.53125 55.699219 81.75 55.699219 L 89.484375 55.699219 C 89.835938 55.699219 90.144531 55.59375 90.414062 55.375 C 90.683594 55.15625 90.855469 54.878906 90.921875 54.542969 L 92.527344 46.449219 L 97.945312 46.449219 C 101.011719 46.449219 103.59375 46.121094 105.617188 45.472656 C 107.699219 44.8125 109.613281 43.6875 111.308594 42.132812 C 112.710938 40.871094 113.863281 39.453125 114.738281 37.917969 C 115.613281 36.382812 116.242188 34.671875 116.609375 32.832031 C 117.511719 28.269531 116.777344 24.617188 114.421875 21.972656 C 112.089844 19.359375 108.425781 18.03125 103.527344 18.03125 M 92.410156 39.523438 L 97.117188 39.523438 C 100.234375 39.523438 102.558594 38.945312 104.085938 37.796875 C 105.609375 36.644531 106.640625 34.722656 107.175781 32.027344 C 107.6875 29.441406 107.453125 27.613281 106.476562 26.550781 C 105.5 25.488281 103.539062 24.957031 100.597656 24.957031 L 95.296875 24.957031 L 92.410156 39.523438 M 103.527344 19.464844 C 108.003906 19.464844 111.269531 20.613281 113.320312 22.917969 C 115.375 25.21875 115.992188 28.433594 115.171875 32.558594 C 114.835938 34.257812 114.265625 35.8125 113.464844 37.21875 C 112.660156 38.628906 111.609375 39.914062 110.3125 41.082031 C 108.769531 42.5 107.054688 43.511719 105.164062 44.113281 C 103.277344 44.714844 100.871094 45.015625 97.949219 45.015625 L 91.320312 45.015625 L 89.484375 54.269531 L 81.75 54.269531 L 88.652344 19.464844 L 103.527344 19.464844 " fill-opacity="1" fill-rule="nonzero"/><g fill="#eceff4" fill-opacity="1"><g transform="translate(30.064377, 111.576091)"><g><path d="M 3.25 -0.5 L 3.25 -23.984375 C 3.25 -24.128906 3.300781 -24.25 3.40625 -24.34375 C 3.507812 -24.4375 3.625 -24.484375 3.75 -24.484375 L 16.421875 -24.484375 C 17.128906 -24.484375 17.796875 -24.34375 18.421875 -24.0625 C 19.054688 -23.789062 19.613281 -23.414062 20.09375 -22.9375 C 20.570312 -22.46875 20.945312 -21.914062 21.21875 -21.28125 C 21.488281 -20.65625 21.625 -19.984375 21.625 -19.265625 L 21.625 -16.09375 C 21.625 -15.382812 21.488281 -14.707031 21.21875 -14.0625 C 20.945312 -13.414062 20.570312 -12.859375 20.09375 -12.390625 C 19.613281 -11.929688 19.054688 -11.566406 18.421875 -11.296875 C 17.796875 -11.023438 17.128906 -10.890625 16.421875 -10.890625 L 5.953125 -10.890625 L 5.953125 -0.5 C 5.953125 -0.164062 5.785156 0 5.453125 0 L 3.75 0 C 3.625 0 3.507812 -0.046875 3.40625 -0.140625 C 3.300781 -0.234375 3.25 -0.351562 3.25 -0.5 Z M 5.953125 -13.59375 L 16.421875 -13.59375 C 17.109375 -13.59375 17.695312 -13.835938 18.1875 -14.328125 C 18.675781 -14.816406 18.921875 -15.40625 18.921875 -16.09375 L 18.921875 -19.265625 C 18.921875 -19.960938 18.675781 -20.550781 18.1875 -21.03125 C 17.695312 -21.519531 17.109375 -21.765625 16.421875 -21.765625 L 5.953125 -21.765625 Z M 5.953125 -13.59375 "/></g></g></g><g fill="#eceff4" fill-opacity="1"><g transform="translate(54.93688, 111.576091)"><g><path d="M 18.921875 -0.5 L 18.921875 -10.890625 L 5.953125 -10.890625 L 5.953125 -0.5 C 5.953125 -0.164062 5.785156 0 5.453125 0 L 3.78125 0 C 3.445312 0 3.28125 -0.164062 3.28125 -0.5 L 3.28125 -23.984375 C 3.28125 -24.316406 3.445312 -24.484375 3.78125 -24.484375 L 5.453125 -24.484375 C 5.785156 -24.484375 5.953125 -24.316406 5.953125 -23.984375 L 5.953125 -13.59375 L 18.921875 -13.59375 L 18.921875 -23.984375 C 18.921875 -24.316406 19.082031 -24.484375 19.40625 -24.484375 L 21.125 -24.484375 C 21.457031 -24.484375 21.625 -24.316406 21.625 -23.984375 L 21.625 -0.5 C 21.625 -0.164062 21.457031 0 21.125 0 L 19.40625 0 C 19.082031 0 18.921875 -0.164062 18.921875 -0.5 Z M 18.921875 -0.5 "/></g></g></g><g fill="#eceff4" fill-opacity="1"><g transform="translate(79.7737, 111.576091)"><g><path d="M 3.25 -0.5 L 3.25 -23.984375 C 3.25 -24.128906 3.300781 -24.25 3.40625 -24.34375 C 3.507812 -24.4375 3.625 -24.484375 3.75 -24.484375 L 16.421875 -24.484375 C 17.128906 -24.484375 17.796875 -24.34375 18.421875 -24.0625 C 19.054688 -23.789062 19.613281 -23.414062 20.09375 -22.9375 C 20.570312 -22.46875 20.945312 -21.914062 21.21875 -21.28125 C 21.488281 -20.65625 21.625 -19.984375 21.625 -19.265625 L 21.625 -16.09375 C 21.625 -15.382812 21.488281 -14.707031 21.21875 -14.0625 C 20.945312 -13.414062 20.570312 -12.859375 20.09375 -12.390625 C 19.613281 -11.929688 19.054688 -11.566406 18.421875 -11.296875 C 17.796875 -11.023438 17.128906 -10.890625 16.421875 -10.890625 L 5.953125 -10.890625 L 5.953125 -0.5 C 5.953125 -0.164062 5.785156 0 5.453125 0 L 3.75 0 C 3.625 0 3.507812 -0.046875 3.40625 -0.140625 C 3.300781 -0.234375 3.25 -0.351562 3.25 -0.5 Z M 5.953125 -13.59375 L 16.421875 -13.59375 C 17.109375 -13.59375 17.695312 -13.835938 18.1875 -14.328125 C 18.675781 -14.816406 18.921875 -15.40625 18.921875 -16.09375 L 18.921875 -19.265625 C 18.921875 -19.960938 18.675781 -20.550781 18.1875 -21.03125 C 17.695312 -21.519531 17.109375 -21.765625 16.421875 -21.765625 L 5.953125 -21.765625 Z M 5.953125 -13.59375 "/></g></g></g></svg>