<svg xmlns="http://www.w3.org/2000/svg" xmlns:xlink="http://www.w3.org/1999/xlink" width="220" zoomAndPan="magnify" viewBox="0 0 165 192.749996" height="257" preserveAspectRatio="xMidYMid meet" version="1.0"><defs><g/><clipPath id="d1509cf1a6"><path d="M 14.828125 0 L 115 0 L 115 101 L 14.828125 101 Z M 14.828125 0 " clip-rule="nonzero"/></clipPath><clipPath id="f3e1963227"><path d="M 81.777344 -0.015625 C 47.5625 -0.015625 49.699219 14.820312 49.699219 14.820312 L 49.738281 30.191406 L 82.382812 30.191406 L 82.382812 34.804688 L 36.769531 34.804688 C 36.769531 34.804688 14.878906 32.320312 14.878906 66.835938 C 14.875 101.355469 33.984375 100.132812 33.984375 100.132812 L 45.386719 100.132812 L 45.386719 84.113281 C 45.386719 84.113281 44.773438 65.007812 64.191406 65.007812 L 96.574219 65.007812 C 96.574219 65.007812 114.761719 65.300781 114.761719 47.425781 L 114.761719 17.871094 C 114.761719 17.871094 117.527344 -0.015625 81.777344 -0.015625 Z M 63.773438 10.320312 C 67.019531 10.320312 69.644531 12.945312 69.644531 16.191406 C 69.644531 19.441406 67.019531 22.066406 63.773438 22.066406 C 60.523438 22.066406 57.898438 19.441406 57.898438 16.191406 C 57.898438 12.945312 60.523438 10.320312 63.773438 10.320312 Z M 63.773438 10.320312 " clip-rule="nonzero"/></clipPath><linearGradient x1="0.00416835" gradientTransform="matrix(99.935413, 0, 0, 100.152477, 14.876988, -0.014631)" y1="-0.0040573" x2="1.027757" gradientUnits="userSpaceOnUse" y2="1.01158" id="aad3b3218d"><stop stop-opacity="1" stop-color="rgb(21.998596%, 49.398804%, 72.198486%)" offset="0"/><stop stop-opacity="1" stop-color="rgb(21.99707%, 49.383545%, 72.171021%)" offset="0.125"/><stop stop-opacity="1" stop-color="rgb(21.986389%, 49.269104%, 71.974182%)" offset="0.140625"/><stop stop-opacity="1" stop-color="rgb(21.966553%, 49.072266%, 71.633911%)" offset="0.15625"/><stop stop-opacity="1" stop-color="rgb(21.948242%, 48.875427%, 71.29364%)" offset="0.171875"/><stop stop-opacity="1" stop-color="rgb(21.928406%, 48.678589%, 70.953369%)" offset="0.1875"/><stop stop-opacity="1" stop-color="rgb(21.910095%, 48.48175%, 70.611572%)" offset="0.203125"/><stop stop-opacity="1" stop-color="rgb(21.890259%, 48.286438%, 70.271301%)" offset="0.21875"/><stop stop-opacity="1" stop-color="rgb(21.870422%, 48.0896%, 69.93103%)" offset="0.234375"/><stop stop-opacity="1" stop-color="rgb(21.852112%, 47.892761%, 69.590759%)" offset="0.25"/><stop stop-opacity="1" stop-color="rgb(21.832275%, 47.695923%, 69.250488%)" offset="0.265625"/><stop stop-opacity="1" stop-color="rgb(21.813965%, 47.499084%, 68.908691%)" offset="0.28125"/><stop stop-opacity="1" stop-color="rgb(21.794128%, 47.302246%, 68.56842%)" offset="0.296875"/><stop stop-opacity="1" stop-color="rgb(21.775818%, 47.105408%, 68.228149%)" offset="0.3125"/><stop stop-opacity="1" stop-color="rgb(21.755981%, 46.908569%, 67.887878%)" offset="0.328125"/><stop stop-opacity="1" stop-color="rgb(21.736145%, 46.711731%, 67.546082%)" offset="0.34375"/><stop stop-opacity="1" stop-color="rgb(21.717834%, 46.514893%, 67.205811%)" offset="0.359375"/><stop stop-opacity="1" stop-color="rgb(21.697998%, 46.31958%, 66.86554%)" offset="0.375"/><stop stop-opacity="1" stop-color="rgb(21.679688%, 46.122742%, 66.525269%)" offset="0.390625"/><stop stop-opacity="1" stop-color="rgb(21.659851%, 45.925903%, 66.184998%)" offset="0.40625"/><stop stop-opacity="1" stop-color="rgb(21.641541%, 45.729065%, 65.843201%)" offset="0.421875"/><stop stop-opacity="1" stop-color="rgb(21.621704%, 45.532227%, 65.50293%)" offset="0.4375"/><stop stop-opacity="1" stop-color="rgb(21.601868%, 45.335388%, 65.162659%)" offset="0.453125"/><stop stop-opacity="1" stop-color="rgb(21.583557%, 45.13855%, 64.822388%)" offset="0.46875"/><stop stop-opacity="1" stop-color="rgb(21.563721%, 44.941711%, 64.482117%)" offset="0.484375"/><stop stop-opacity="1" stop-color="rgb(21.54541%, 44.744873%, 64.14032%)" offset="0.494335"/><stop stop-opacity="1" stop-color="rgb(21.536255%, 44.647217%, 63.970947%)" offset="0.5"/><stop stop-opacity="1" stop-color="rgb(21.525574%, 44.548035%, 63.800049%)" offset="0.505665"/><stop stop-opacity="1" stop-color="rgb(21.516418%, 44.450378%, 63.630676%)" offset="0.515625"/><stop stop-opacity="1" stop-color="rgb(21.505737%, 44.352722%, 63.459778%)" offset="0.53125"/><stop stop-opacity="1" stop-color="rgb(21.487427%, 44.155884%, 63.119507%)" offset="0.546875"/><stop stop-opacity="1" stop-color="rgb(21.46759%, 43.959045%, 62.77771%)" offset="0.5625"/><stop stop-opacity="1" stop-color="rgb(21.44928%, 43.762207%, 62.437439%)" offset="0.578125"/><stop stop-opacity="1" stop-color="rgb(21.429443%, 43.565369%, 62.097168%)" offset="0.59375"/><stop stop-opacity="1" stop-color="rgb(21.411133%, 43.36853%, 61.756897%)" offset="0.609375"/><stop stop-opacity="1" stop-color="rgb(21.391296%, 43.171692%, 61.416626%)" offset="0.625"/><stop stop-opacity="1" stop-color="rgb(21.37146%, 42.974854%, 61.074829%)" offset="0.640625"/><stop stop-opacity="1" stop-color="rgb(21.353149%, 42.778015%, 60.734558%)" offset="0.65625"/><stop stop-opacity="1" stop-color="rgb(21.333313%, 42.582703%, 60.394287%)" offset="0.671875"/><stop stop-opacity="1" stop-color="rgb(21.315002%, 42.385864%, 60.054016%)" offset="0.6875"/><stop stop-opacity="1" stop-color="rgb(21.295166%, 42.189026%, 59.713745%)" offset="0.703125"/><stop stop-opacity="1" stop-color="rgb(21.276855%, 41.992188%, 59.371948%)" offset="0.71875"/><stop stop-opacity="1" stop-color="rgb(21.257019%, 41.795349%, 59.031677%)" offset="0.734375"/><stop stop-opacity="1" stop-color="rgb(21.237183%, 41.598511%, 58.691406%)" offset="0.75"/><stop stop-opacity="1" stop-color="rgb(21.218872%, 41.401672%, 58.351135%)" offset="0.765625"/><stop stop-opacity="1" stop-color="rgb(21.203613%, 41.25061%, 58.09021%)" offset="0.78125"/><stop stop-opacity="1" stop-color="rgb(21.199036%, 41.19873%, 57.998657%)" offset="0.8125"/><stop stop-opacity="1" stop-color="rgb(21.199036%, 41.19873%, 57.998657%)" offset="0.875"/><stop stop-opacity="1" stop-color="rgb(21.199036%, 41.19873%, 57.998657%)" offset="1"/></linearGradient><clipPath id="668d3da963"><path d="M 49 33 L 149.652344 33 L 149.652344 134.074219 L 49 134.074219 Z M 49 33 " clip-rule="nonzero"/></clipPath><clipPath id="c2da35e787"><path d="M 82.746094 134.039062 C 116.957031 134.039062 114.820312 119.203125 114.820312 119.203125 L 114.785156 103.832031 L 82.136719 103.832031 L 82.136719 99.21875 L 127.75 99.21875 C 127.75 99.21875 149.644531 101.699219 149.644531 67.1875 C 149.644531 32.667969 130.535156 33.890625 130.535156 33.890625 L 119.132812 33.890625 L 119.132812 49.910156 C 119.132812 49.910156 119.746094 69.015625 100.332031 69.015625 L 67.945312 69.015625 C 67.945312 69.015625 49.753906 68.722656 49.753906 86.597656 L 49.753906 116.152344 C 49.753906 116.152344 46.992188 134.039062 82.746094 134.039062 Z M 100.746094 123.703125 C 97.5 123.703125 94.875 121.074219 94.875 117.828125 C 94.875 114.578125 97.5 111.957031 100.746094 111.957031 C 103.996094 111.957031 106.621094 114.578125 106.621094 117.828125 C 106.621094 121.074219 103.996094 123.703125 100.746094 123.703125 Z M 100.746094 123.703125 " clip-rule="nonzero"/></clipPath><linearGradient x1="-0.0326454" gradientTransform="matrix(99.938445, 0, 0, 100.152981, 49.70534, 33.886195)" y1="-0.00636596" x2="1.013978" gradientUnits="userSpaceOnUse" y2="0.985247" id="267187b7c4"><stop stop-opacity="1" stop-color="rgb(100%, 87.799072%, 32.199097%)" offset="0"/><stop stop-opacity="1" stop-color="rgb(100%, 87.799072%, 32.199097%)" offset="0.125"/><stop stop-opacity="1" stop-color="rgb(100%, 87.799072%, 32.199097%)" offset="0.1875"/><stop stop-opacity="1" stop-color="rgb(100%, 87.759399%, 32.15332%)" offset="0.21875"/><stop stop-opacity="1" stop-color="rgb(100%, 87.590027%, 31.959534%)" offset="0.234375"/><stop stop-opacity="1" stop-color="rgb(100%, 87.332153%, 31.661987%)" offset="0.25"/><stop stop-opacity="1" stop-color="rgb(100%, 87.07428%, 31.365967%)" offset="0.265625"/><stop stop-opacity="1" stop-color="rgb(100%, 86.816406%, 31.06842%)" offset="0.28125"/><stop stop-opacity="1" stop-color="rgb(100%, 86.558533%, 30.7724%)" offset="0.296875"/><stop stop-opacity="1" stop-color="rgb(100%, 86.300659%, 30.474854%)" offset="0.3125"/><stop stop-opacity="1" stop-color="rgb(100%, 86.04126%, 30.177307%)" offset="0.328125"/><stop stop-opacity="1" stop-color="rgb(100%, 85.783386%, 29.881287%)" offset="0.34375"/><stop stop-opacity="1" stop-color="rgb(100%, 85.525513%, 29.58374%)" offset="0.359375"/><stop stop-opacity="1" stop-color="rgb(100%, 85.267639%, 29.28772%)" offset="0.375"/><stop stop-opacity="1" stop-color="rgb(100%, 85.009766%, 28.990173%)" offset="0.390625"/><stop stop-opacity="1" stop-color="rgb(100%, 84.751892%, 28.694153%)" offset="0.40625"/><stop stop-opacity="1" stop-color="rgb(100%, 84.494019%, 28.396606%)" offset="0.421875"/><stop stop-opacity="1" stop-color="rgb(100%, 84.236145%, 28.100586%)" offset="0.4375"/><stop stop-opacity="1" stop-color="rgb(100%, 83.978271%, 27.80304%)" offset="0.453125"/><stop stop-opacity="1" stop-color="rgb(100%, 83.720398%, 27.505493%)" offset="0.46875"/><stop stop-opacity="1" stop-color="rgb(100%, 83.460999%, 27.209473%)" offset="0.482837"/><stop stop-opacity="1" stop-color="rgb(100%, 83.332825%, 27.061462%)" offset="0.484375"/><stop stop-opacity="1" stop-color="rgb(100%, 83.203125%, 26.911926%)" offset="0.5"/><stop stop-opacity="1" stop-color="rgb(100%, 82.945251%, 26.615906%)" offset="0.515625"/><stop stop-opacity="1" stop-color="rgb(100%, 82.687378%, 26.318359%)" offset="0.517163"/><stop stop-opacity="1" stop-color="rgb(100%, 82.559204%, 26.170349%)" offset="0.53125"/><stop stop-opacity="1" stop-color="rgb(100%, 82.429504%, 26.022339%)" offset="0.546875"/><stop stop-opacity="1" stop-color="rgb(100%, 82.171631%, 25.724792%)" offset="0.5625"/><stop stop-opacity="1" stop-color="rgb(100%, 81.913757%, 25.428772%)" offset="0.578125"/><stop stop-opacity="1" stop-color="rgb(100%, 81.655884%, 25.131226%)" offset="0.59375"/><stop stop-opacity="1" stop-color="rgb(100%, 81.39801%, 24.835205%)" offset="0.609375"/><stop stop-opacity="1" stop-color="rgb(100%, 81.138611%, 24.537659%)" offset="0.625"/><stop stop-opacity="1" stop-color="rgb(100%, 80.880737%, 24.240112%)" offset="0.640625"/><stop stop-opacity="1" stop-color="rgb(100%, 80.622864%, 23.944092%)" offset="0.65625"/><stop stop-opacity="1" stop-color="rgb(100%, 80.36499%, 23.646545%)" offset="0.671875"/><stop stop-opacity="1" stop-color="rgb(100%, 80.107117%, 23.350525%)" offset="0.6875"/><stop stop-opacity="1" stop-color="rgb(100%, 79.849243%, 23.052979%)" offset="0.703125"/><stop stop-opacity="1" stop-color="rgb(100%, 79.59137%, 22.756958%)" offset="0.71875"/><stop stop-opacity="1" stop-color="rgb(100%, 79.333496%, 22.459412%)" offset="0.734375"/><stop stop-opacity="1" stop-color="rgb(100%, 79.075623%, 22.163391%)" offset="0.75"/><stop stop-opacity="1" stop-color="rgb(100%, 78.816223%, 21.865845%)" offset="0.765625"/><stop stop-opacity="1" stop-color="rgb(100%, 78.55835%, 21.568298%)" offset="0.78125"/><stop stop-opacity="1" stop-color="rgb(100%, 78.300476%, 21.272278%)" offset="0.796875"/><stop stop-opacity="1" stop-color="rgb(100%, 78.042603%, 20.974731%)" offset="0.8125"/><stop stop-opacity="1" stop-color="rgb(100%, 77.784729%, 20.678711%)" offset="0.828125"/><stop stop-opacity="1" stop-color="rgb(100%, 77.526855%, 20.381165%)" offset="0.84375"/><stop stop-opacity="1" stop-color="rgb(100%, 77.268982%, 20.085144%)" offset="0.859375"/><stop stop-opacity="1" stop-color="rgb(100%, 77.011108%, 19.787598%)" offset="0.875"/><stop stop-opacity="1" stop-color="rgb(100%, 76.753235%, 19.491577%)" offset="0.890625"/><stop stop-opacity="1" stop-color="rgb(100%, 76.560974%, 19.270325%)" offset="0.90625"/><stop stop-opacity="1" stop-color="rgb(100%, 76.499939%, 19.198608%)" offset="0.9375"/><stop stop-opacity="1" stop-color="rgb(100%, 76.499939%, 19.198608%)" offset="1"/></linearGradient></defs><g clip-path="url(#d1509cf1a6)"><g clip-path="url(#f3e1963227)"><path fill="url(#aad3b3218d)" d="M 14.875 0 L 14.875 101.355469 L 117.527344 101.355469 L 117.527344 0 Z M 14.875 0 " fill-rule="nonzero"/></g></g><g clip-path="url(#668d3da963)"><g clip-path="url(#c2da35e787)"><path fill="url(#267187b7c4)" d="M 46.992188 32.667969 L 46.992188 134.039062 L 149.644531 134.039062 L 149.644531 32.667969 Z M 46.992188 32.667969 " fill-rule="nonzero"/></g></g><g fill="#eceff4" fill-opacity="1"><g transform="translate(7.690189, 174.467995)"><g><path d="M 3.25 -0.5 L 3.25 -24 C 3.25 -24.144531 3.300781 -24.265625 3.40625 -24.359375 C 3.519531 -24.453125 3.632812 -24.5 3.75 -24.5 L 16.4375 -24.5 C 17.144531 -24.5 17.8125 -24.363281 18.4375 -24.09375 C 19.070312 -23.820312 19.628906 -23.445312 20.109375 -22.96875 C 20.585938 -22.488281 20.960938 -21.929688 21.234375 -21.296875 C 21.503906 -20.671875 21.640625 -20 21.640625 -19.28125 L 21.640625 -16.109375 C 21.640625 -15.390625 21.503906 -14.707031 21.234375 -14.0625 C 20.960938 -13.425781 20.585938 -12.875 20.109375 -12.40625 C 19.628906 -11.945312 19.070312 -11.578125 18.4375 -11.296875 C 17.8125 -11.023438 17.144531 -10.890625 16.4375 -10.890625 L 5.96875 -10.890625 L 5.96875 -0.5 C 5.96875 -0.164062 5.800781 0 5.46875 0 L 3.75 0 C 3.632812 0 3.519531 -0.046875 3.40625 -0.140625 C 3.300781 -0.234375 3.25 -0.351562 3.25 -0.5 Z M 5.96875 -13.609375 L 16.4375 -13.609375 C 17.125 -13.609375 17.710938 -13.851562 18.203125 -14.34375 C 18.691406 -14.832031 18.9375 -15.421875 18.9375 -16.109375 L 18.9375 -19.28125 C 18.9375 -19.976562 18.691406 -20.566406 18.203125 -21.046875 C 17.710938 -21.535156 17.125 -21.78125 16.4375 -21.78125 L 5.96875 -21.78125 Z M 5.96875 -13.609375 "/></g></g></g><g fill="#eceff4" fill-opacity="1"><g transform="translate(32.578334, 174.467995)"><g><path d="M 3.609375 -17.5 C 3.515625 -17.625 3.429688 -17.757812 3.359375 -17.90625 C 3.285156 -18.0625 3.25 -18.210938 3.25 -18.359375 L 3.25 -24 C 3.25 -24.125 3.300781 -24.238281 3.40625 -24.34375 C 3.519531 -24.445312 3.632812 -24.5 3.75 -24.5 L 5.46875 -24.5 C 5.601562 -24.5 5.71875 -24.445312 5.8125 -24.34375 C 5.914062 -24.238281 5.96875 -24.125 5.96875 -24 L 5.96875 -19.4375 C 5.96875 -19.3125 6 -19.164062 6.0625 -19 C 6.132812 -18.832031 6.222656 -18.691406 6.328125 -18.578125 L 12.46875 -12.578125 L 18.578125 -18.578125 C 18.691406 -18.691406 18.78125 -18.832031 18.84375 -19 C 18.90625 -19.164062 18.9375 -19.3125 18.9375 -19.4375 L 18.9375 -24 C 18.9375 -24.125 18.984375 -24.238281 19.078125 -24.34375 C 19.171875 -24.445312 19.289062 -24.5 19.4375 -24.5 L 21.140625 -24.5 C 21.285156 -24.5 21.40625 -24.445312 21.5 -24.34375 C 21.59375 -24.238281 21.640625 -24.125 21.640625 -24 L 21.640625 -18.359375 C 21.640625 -18.210938 21.601562 -18.0625 21.53125 -17.90625 C 21.46875 -17.757812 21.382812 -17.625 21.28125 -17.5 L 13.828125 -10.078125 L 13.828125 -0.5 C 13.828125 -0.351562 13.769531 -0.234375 13.65625 -0.140625 C 13.550781 -0.046875 13.441406 0 13.328125 0 L 11.609375 0 C 11.273438 0 11.109375 -0.164062 11.109375 -0.5 L 11.109375 -10.078125 Z M 3.609375 -17.5 "/></g></g></g><g fill="#eceff4" fill-opacity="1"><g transform="translate(57.430773, 174.467995)"><g><path d="M 11.109375 -0.5 L 11.109375 -21.78125 L 3.78125 -21.78125 C 3.445312 -21.78125 3.28125 -21.945312 3.28125 -22.28125 L 3.28125 -24 C 3.28125 -24.332031 3.445312 -24.5 3.78125 -24.5 L 21.140625 -24.5 C 21.472656 -24.5 21.640625 -24.332031 21.640625 -24 L 21.640625 -22.28125 C 21.640625 -21.945312 21.472656 -21.78125 21.140625 -21.78125 L 13.828125 -21.78125 L 13.828125 -0.5 C 13.828125 -0.351562 13.769531 -0.234375 13.65625 -0.140625 C 13.550781 -0.046875 13.441406 0 13.328125 0 L 11.609375 0 C 11.273438 0 11.109375 -0.164062 11.109375 -0.5 Z M 11.109375 -0.5 "/></g></g></g><g fill="#eceff4" fill-opacity="1"><g transform="translate(82.318919, 174.467995)"><g><path d="M 18.9375 -0.5 L 18.9375 -10.890625 L 5.96875 -10.890625 L 5.96875 -0.5 C 5.96875 -0.164062 5.800781 0 5.46875 0 L 3.78125 0 C 3.445312 0 3.28125 -0.164062 3.28125 -0.5 L 3.28125 -24 C 3.28125 -24.332031 3.445312 -24.5 3.78125 -24.5 L 5.46875 -24.5 C 5.800781 -24.5 5.96875 -24.332031 5.96875 -24 L 5.96875 -13.609375 L 18.9375 -13.609375 L 18.9375 -24 C 18.9375 -24.332031 19.101562 -24.5 19.4375 -24.5 L 21.140625 -24.5 C 21.472656 -24.5 21.640625 -24.332031 21.640625 -24 L 21.640625 -0.5 C 21.640625 -0.164062 21.472656 0 21.140625 0 L 19.4375 0 C 19.101562 0 18.9375 -0.164062 18.9375 -0.5 Z M 18.9375 -0.5 "/></g></g></g><g fill="#eceff4" fill-opacity="1"><g transform="translate(107.171358, 174.467995)"><g><path d="M 8.46875 0 C 7.75 0 7.070312 -0.132812 6.4375 -0.40625 C 5.8125 -0.6875 5.265625 -1.054688 4.796875 -1.515625 C 4.335938 -1.984375 3.96875 -2.535156 3.6875 -3.171875 C 3.414062 -3.816406 3.28125 -4.5 3.28125 -5.21875 L 3.28125 -19.28125 C 3.28125 -20 3.414062 -20.671875 3.6875 -21.296875 C 3.96875 -21.929688 4.335938 -22.488281 4.796875 -22.96875 C 5.265625 -23.445312 5.8125 -23.820312 6.4375 -24.09375 C 7.070312 -24.363281 7.75 -24.5 8.46875 -24.5 L 16.4375 -24.5 C 17.144531 -24.5 17.8125 -24.363281 18.4375 -24.09375 C 19.070312 -23.820312 19.628906 -23.445312 20.109375 -22.96875 C 20.585938 -22.488281 20.960938 -21.929688 21.234375 -21.296875 C 21.503906 -20.671875 21.640625 -20 21.640625 -19.28125 L 21.640625 -5.21875 C 21.640625 -4.5 21.503906 -3.816406 21.234375 -3.171875 C 20.960938 -2.535156 20.585938 -1.984375 20.109375 -1.515625 C 19.628906 -1.054688 19.070312 -0.6875 18.4375 -0.40625 C 17.8125 -0.132812 17.144531 0 16.4375 0 Z M 8.46875 -21.78125 C 7.769531 -21.78125 7.175781 -21.535156 6.6875 -21.046875 C 6.207031 -20.566406 5.96875 -19.976562 5.96875 -19.28125 L 5.96875 -5.21875 C 5.96875 -4.519531 6.207031 -3.925781 6.6875 -3.4375 C 7.175781 -2.957031 7.769531 -2.71875 8.46875 -2.71875 L 16.4375 -2.71875 C 17.125 -2.71875 17.710938 -2.957031 18.203125 -3.4375 C 18.691406 -3.925781 18.9375 -4.519531 18.9375 -5.21875 L 18.9375 -19.28125 C 18.9375 -19.976562 18.691406 -20.566406 18.203125 -21.046875 C 17.710938 -21.535156 17.125 -21.78125 16.4375 -21.78125 Z M 8.46875 -21.78125 "/></g></g></g><g fill="#eceff4" fill-opacity="1"><g transform="translate(132.059504, 174.467995)"><g><path d="M 18.9375 -0.5 L 18.9375 -10.75 L 5.96875 -21.46875 L 5.96875 -0.5 C 5.96875 -0.164062 5.800781 0 5.46875 0 L 3.75 0 C 3.632812 0 3.519531 -0.046875 3.40625 -0.140625 C 3.300781 -0.234375 3.25 -0.351562 3.25 -0.5 L 3.25 -24 C 3.25 -24.144531 3.300781 -24.265625 3.40625 -24.359375 C 3.519531 -24.453125 3.632812 -24.5 3.75 -24.5 L 6.140625 -24.5 C 6.472656 -24.5 6.769531 -24.394531 7.03125 -24.1875 L 18.9375 -14.359375 L 18.9375 -24 C 18.9375 -24.332031 19.101562 -24.5 19.4375 -24.5 L 21.140625 -24.5 C 21.472656 -24.5 21.640625 -24.332031 21.640625 -24 L 21.640625 -0.5 C 21.640625 -0.164062 21.472656 0 21.140625 0 L 19.4375 0 C 19.101562 0 18.9375 -0.164062 18.9375 -0.5 Z M 18.9375 -0.5 "/></g></g></g></svg>