<svg xmlns="http://www.w3.org/2000/svg" xmlns:xlink="http://www.w3.org/1999/xlink" width="286" zoomAndPan="magnify" viewBox="0 0 214.5 193.499995" height="258" preserveAspectRatio="xMidYMid meet" version="1.0"><defs><g/><clipPath id="67a2c7697f"><path d="M 34.210938 2 L 180 2 L 180 132 L 34.210938 132 Z M 34.210938 2 " clip-rule="nonzero"/></clipPath></defs><g clip-path="url(#67a2c7697f)"><path fill="#00d8ff" d="M 154.050781 44.59375 C 152.542969 44.078125 150.980469 43.585938 149.363281 43.121094 C 149.632812 42.042969 149.875 40.980469 150.09375 39.933594 C 153.636719 22.757812 151.320312 8.921875 143.398438 4.367188 C 135.800781 0 123.382812 4.554688 110.835938 15.441406 C 109.632812 16.488281 108.421875 17.597656 107.214844 18.757812 C 106.40625 17.988281 105.605469 17.246094 104.804688 16.535156 C 91.65625 4.894531 78.480469 -0.0117188 70.566406 4.554688 C 62.980469 8.9375 60.730469 21.945312 63.925781 38.222656 C 64.234375 39.792969 64.59375 41.398438 65 43.03125 C 63.136719 43.5625 61.335938 44.125 59.613281 44.722656 C 44.199219 50.082031 34.359375 58.480469 34.359375 67.195312 C 34.359375 76.191406 44.925781 85.222656 60.976562 90.695312 C 62.246094 91.125 63.558594 91.535156 64.914062 91.917969 C 64.472656 93.683594 64.09375 95.414062 63.769531 97.105469 C 60.726562 113.097656 63.105469 125.796875 70.671875 130.148438 C 78.488281 134.644531 91.605469 130.023438 104.378906 118.890625 C 105.390625 118.011719 106.402344 117.074219 107.414062 116.097656 C 108.734375 117.359375 110.046875 118.554688 111.347656 119.679688 C 123.722656 130.296875 135.945312 134.585938 143.5 130.222656 C 151.308594 125.714844 153.851562 112.066406 150.554688 95.46875 C 150.304688 94.199219 150.007812 92.90625 149.683594 91.589844 C 150.605469 91.320312 151.507812 91.035156 152.390625 90.746094 C 169.082031 85.226562 179.9375 76.316406 179.9375 67.195312 C 179.9375 58.449219 169.773438 49.992188 154.050781 44.59375 Z M 150.433594 84.859375 C 149.636719 85.117188 148.820312 85.375 147.988281 85.617188 C 146.144531 79.804688 143.660156 73.617188 140.613281 67.222656 C 143.519531 60.984375 145.90625 54.878906 147.699219 49.097656 C 149.1875 49.527344 150.632812 49.980469 152.027344 50.460938 C 165.496094 55.085938 173.714844 61.925781 173.714844 67.195312 C 173.714844 72.804688 164.84375 80.09375 150.433594 84.859375 Z M 144.453125 96.671875 C 145.914062 104.011719 146.117188 110.648438 145.152344 115.839844 C 144.285156 120.5 142.539062 123.609375 140.386719 124.851562 C 135.796875 127.5 125.988281 124.058594 115.410156 114.976562 C 114.191406 113.933594 112.96875 112.820312 111.746094 111.648438 C 115.847656 107.171875 119.949219 101.96875 123.949219 96.191406 C 130.984375 95.574219 137.632812 94.550781 143.667969 93.160156 C 143.960938 94.359375 144.222656 95.527344 144.453125 96.671875 Z M 83.992188 124.390625 C 79.507812 125.972656 75.9375 126.019531 73.78125 124.777344 C 69.1875 122.132812 67.28125 111.9375 69.882812 98.261719 C 70.183594 96.695312 70.535156 95.085938 70.945312 93.441406 C 76.910156 94.753906 83.511719 95.703125 90.5625 96.269531 C 94.59375 101.925781 98.8125 107.121094 103.058594 111.667969 C 102.132812 112.566406 101.207031 113.417969 100.285156 114.214844 C 94.636719 119.144531 88.980469 122.640625 83.992188 124.390625 Z M 62.992188 84.824219 C 55.894531 82.402344 50.03125 79.261719 46.011719 75.824219 C 42.402344 72.742188 40.578125 69.679688 40.578125 67.195312 C 40.578125 61.910156 48.480469 55.164062 61.664062 50.578125 C 63.261719 50.023438 64.9375 49.5 66.675781 49.007812 C 68.496094 54.917969 70.886719 61.097656 73.769531 67.34375 C 70.847656 73.683594 68.425781 79.964844 66.585938 85.945312 C 65.347656 85.589844 64.144531 85.214844 62.992188 84.824219 Z M 70.03125 37.03125 C 67.296875 23.085938 69.113281 12.566406 73.683594 9.925781 C 78.554688 7.113281 89.324219 11.121094 100.671875 21.175781 C 101.398438 21.816406 102.128906 22.488281 102.863281 23.1875 C 98.628906 27.714844 94.449219 32.871094 90.457031 38.492188 C 83.609375 39.125 77.058594 40.144531 71.03125 41.503906 C 70.652344 39.984375 70.316406 38.492188 70.03125 37.03125 Z M 132.824219 52.496094 C 131.382812 50.015625 129.90625 47.59375 128.398438 45.234375 C 133.042969 45.820312 137.492188 46.597656 141.671875 47.550781 C 140.421875 51.558594 138.855469 55.753906 137.015625 60.054688 C 135.695312 57.550781 134.296875 55.03125 132.824219 52.496094 Z M 107.214844 27.617188 C 110.085938 30.71875 112.960938 34.179688 115.785156 37.933594 C 112.9375 37.800781 110.054688 37.730469 107.148438 37.730469 C 104.269531 37.730469 101.410156 37.796875 98.578125 37.929688 C 101.402344 34.210938 104.304688 30.753906 107.214844 27.617188 Z M 81.445312 52.539062 C 80.007812 55.027344 78.636719 57.535156 77.335938 60.050781 C 75.523438 55.765625 73.976562 51.550781 72.710938 47.484375 C 76.863281 46.558594 81.292969 45.796875 85.90625 45.222656 C 84.378906 47.601562 82.886719 50.042969 81.445312 52.539062 Z M 86.039062 89.605469 C 81.273438 89.078125 76.777344 88.359375 72.625 87.457031 C 73.910156 83.316406 75.492188 79.015625 77.34375 74.636719 C 78.644531 77.148438 80.023438 79.65625 81.46875 82.152344 C 82.945312 84.695312 84.472656 87.179688 86.039062 89.605469 Z M 107.386719 107.207031 C 104.441406 104.035156 101.5 100.523438 98.628906 96.753906 C 101.414062 96.859375 104.257812 96.917969 107.148438 96.917969 C 110.117188 96.917969 113.050781 96.847656 115.933594 96.722656 C 113.101562 100.5625 110.234375 104.082031 107.386719 107.207031 Z M 137.070312 74.414062 C 139.015625 78.839844 140.660156 83.117188 141.960938 87.1875 C 137.742188 88.148438 133.179688 88.917969 128.382812 89.496094 C 129.894531 87.109375 131.382812 84.640625 132.851562 82.105469 C 134.335938 79.542969 135.738281 76.972656 137.070312 74.414062 Z M 127.460938 79.011719 C 125.183594 82.945312 122.847656 86.703125 120.476562 90.246094 C 116.160156 90.550781 111.695312 90.710938 107.148438 90.710938 C 102.613281 90.710938 98.207031 90.574219 93.964844 90.296875 C 91.496094 86.707031 89.113281 82.941406 86.851562 79.042969 C 84.597656 75.160156 82.519531 71.238281 80.640625 67.34375 C 82.519531 63.441406 84.589844 59.515625 86.832031 55.636719 C 89.082031 51.75 91.445312 48 93.890625 44.429688 C 98.21875 44.101562 102.660156 43.933594 107.148438 43.933594 C 111.65625 43.933594 116.097656 44.105469 120.425781 44.433594 C 122.835938 47.976562 125.183594 51.714844 127.441406 55.605469 C 129.722656 59.539062 131.820312 63.433594 133.714844 67.257812 C 131.828125 71.144531 129.734375 75.078125 127.460938 79.011719 Z M 140.289062 9.738281 C 145.167969 12.542969 147.0625 23.851562 143.996094 38.679688 C 143.804688 39.625 143.582031 40.589844 143.34375 41.566406 C 137.304688 40.175781 130.746094 39.144531 123.882812 38.5 C 119.878906 32.820312 115.734375 27.652344 111.570312 23.179688 C 112.691406 22.109375 113.8125 21.085938 114.921875 20.117188 C 125.667969 10.789062 135.71875 7.105469 140.289062 9.738281 Z M 107.148438 54.226562 C 114.324219 54.226562 120.148438 60.03125 120.148438 67.195312 C 120.148438 74.351562 114.324219 80.160156 107.148438 80.160156 C 99.972656 80.160156 94.148438 74.351562 94.148438 67.195312 C 94.148438 60.03125 99.972656 54.226562 107.148438 54.226562 Z M 107.148438 54.226562 " fill-opacity="1" fill-rule="nonzero"/></g><g fill="#eceff4" fill-opacity="1"><g transform="translate(7.600652, 174.981673)"><g><path d="M 18.234375 -0.46875 L 13.59375 -10.875 L 5.953125 -10.875 L 5.953125 -0.5 C 5.953125 -0.164062 5.785156 0 5.453125 0 L 3.78125 0 C 3.445312 0 3.28125 -0.164062 3.28125 -0.5 L 3.28125 -23.96875 C 3.28125 -24.300781 3.445312 -24.46875 3.78125 -24.46875 L 16.40625 -24.46875 C 17.125 -24.46875 17.796875 -24.332031 18.421875 -24.0625 C 19.054688 -23.789062 19.609375 -23.414062 20.078125 -22.9375 C 20.554688 -22.457031 20.929688 -21.898438 21.203125 -21.265625 C 21.484375 -20.640625 21.625 -19.972656 21.625 -19.265625 L 21.625 -16.09375 C 21.625 -14.925781 21.269531 -13.882812 20.5625 -12.96875 C 19.863281 -12.050781 18.957031 -11.425781 17.84375 -11.09375 L 16.625 -10.734375 L 21.1875 -0.46875 C 21.257812 -0.34375 21.265625 -0.234375 21.203125 -0.140625 C 21.148438 -0.046875 21.050781 0 20.90625 0 L 18.9375 0 C 18.800781 0 18.660156 -0.046875 18.515625 -0.140625 C 18.367188 -0.234375 18.273438 -0.34375 18.234375 -0.46875 Z M 5.953125 -13.59375 L 16.40625 -13.59375 C 17.09375 -13.59375 17.679688 -13.832031 18.171875 -14.3125 C 18.660156 -14.800781 18.90625 -15.394531 18.90625 -16.09375 L 18.90625 -19.265625 C 18.90625 -19.953125 18.660156 -20.539062 18.171875 -21.03125 C 17.679688 -21.519531 17.09375 -21.765625 16.40625 -21.765625 L 5.953125 -21.765625 Z M 5.953125 -13.59375 "/></g></g></g><g fill="#eceff4" fill-opacity="1"><g transform="translate(32.456849, 174.981673)"><g><path d="M 3.8125 -0.5 L 3.8125 -23.96875 C 3.8125 -24.300781 3.976562 -24.46875 4.3125 -24.46875 L 20.9375 -24.46875 C 21.269531 -24.46875 21.4375 -24.300781 21.4375 -23.96875 L 21.4375 -22.265625 C 21.4375 -21.929688 21.269531 -21.765625 20.9375 -21.765625 L 6.5 -21.765625 L 6.5 -13.59375 L 19.015625 -13.59375 C 19.128906 -13.59375 19.238281 -13.535156 19.34375 -13.421875 C 19.457031 -13.316406 19.515625 -13.207031 19.515625 -13.09375 L 19.515625 -11.375 C 19.515625 -11.238281 19.457031 -11.117188 19.34375 -11.015625 C 19.238281 -10.921875 19.128906 -10.875 19.015625 -10.875 L 6.5 -10.875 L 6.5 -2.71875 L 20.9375 -2.71875 C 21.082031 -2.71875 21.203125 -2.660156 21.296875 -2.546875 C 21.390625 -2.441406 21.4375 -2.332031 21.4375 -2.21875 L 21.4375 -0.5 C 21.4375 -0.164062 21.269531 0 20.9375 0 L 4.3125 0 C 3.976562 0 3.8125 -0.164062 3.8125 -0.5 Z M 3.8125 -0.5 "/></g></g></g><g fill="#eceff4" fill-opacity="1"><g transform="translate(57.277387, 174.981673)"><g><path d="M 15.765625 -24.46875 C 15.910156 -24.46875 16.046875 -24.421875 16.171875 -24.328125 C 16.304688 -24.234375 16.394531 -24.125 16.4375 -24 L 21.40625 -11.59375 C 21.445312 -11.476562 21.484375 -11.320312 21.515625 -11.125 C 21.554688 -10.9375 21.578125 -10.769531 21.578125 -10.625 L 21.578125 -0.5 C 21.578125 -0.164062 21.410156 0 21.078125 0 L 19.40625 0 C 19.070312 0 18.90625 -0.164062 18.90625 -0.5 L 18.90625 -7.09375 L 5.953125 -7.09375 L 5.953125 -0.5 C 5.953125 -0.164062 5.785156 0 5.453125 0 L 3.75 0 C 3.414062 0 3.25 -0.164062 3.25 -0.5 L 3.25 -10.625 C 3.25 -10.769531 3.265625 -10.9375 3.296875 -11.125 C 3.335938 -11.320312 3.378906 -11.476562 3.421875 -11.59375 L 8.390625 -24 C 8.429688 -24.125 8.519531 -24.234375 8.65625 -24.328125 C 8.800781 -24.421875 8.9375 -24.46875 9.0625 -24.46875 Z M 18.90625 -9.78125 L 18.90625 -10.625 L 14.453125 -21.765625 L 10.421875 -21.765625 L 5.953125 -10.625 L 5.953125 -9.78125 Z M 18.90625 -9.78125 "/></g></g></g><g fill="#eceff4" fill-opacity="1"><g transform="translate(82.133585, 174.981673)"><g><path d="M 21.625 -17.625 C 21.625 -17.289062 21.457031 -17.125 21.125 -17.125 L 19.40625 -17.125 C 19.070312 -17.125 18.90625 -17.289062 18.90625 -17.625 L 18.90625 -19.296875 C 18.882812 -19.984375 18.632812 -20.566406 18.15625 -21.046875 C 17.675781 -21.523438 17.09375 -21.765625 16.40625 -21.765625 L 8.453125 -21.765625 C 7.765625 -21.765625 7.175781 -21.519531 6.6875 -21.03125 C 6.195312 -20.539062 5.953125 -19.953125 5.953125 -19.265625 L 5.953125 -5.203125 C 5.953125 -4.515625 6.195312 -3.925781 6.6875 -3.4375 C 7.175781 -2.957031 7.765625 -2.71875 8.453125 -2.71875 L 16.40625 -2.71875 C 17.09375 -2.71875 17.675781 -2.945312 18.15625 -3.40625 C 18.632812 -3.875 18.882812 -4.453125 18.90625 -5.140625 L 18.90625 -6.84375 C 18.90625 -6.96875 18.953125 -7.082031 19.046875 -7.1875 C 19.140625 -7.289062 19.257812 -7.34375 19.40625 -7.34375 L 21.125 -7.34375 C 21.257812 -7.34375 21.375 -7.289062 21.46875 -7.1875 C 21.570312 -7.082031 21.625 -6.96875 21.625 -6.84375 L 21.625 -5.140625 C 21.625 -4.421875 21.476562 -3.753906 21.1875 -3.140625 C 20.90625 -2.523438 20.53125 -1.984375 20.0625 -1.515625 C 19.601562 -1.054688 19.054688 -0.6875 18.421875 -0.40625 C 17.796875 -0.132812 17.125 0 16.40625 0 L 8.453125 0 C 7.742188 0 7.070312 -0.132812 6.4375 -0.40625 C 5.8125 -0.6875 5.265625 -1.054688 4.796875 -1.515625 C 4.335938 -1.984375 3.96875 -2.535156 3.6875 -3.171875 C 3.414062 -3.816406 3.28125 -4.492188 3.28125 -5.203125 L 3.28125 -19.265625 C 3.28125 -19.972656 3.414062 -20.640625 3.6875 -21.265625 C 3.96875 -21.898438 4.335938 -22.457031 4.796875 -22.9375 C 5.265625 -23.414062 5.8125 -23.789062 6.4375 -24.0625 C 7.070312 -24.332031 7.742188 -24.46875 8.453125 -24.46875 L 16.40625 -24.46875 C 17.125 -24.46875 17.796875 -24.332031 18.421875 -24.0625 C 19.054688 -23.789062 19.601562 -23.421875 20.0625 -22.953125 C 20.53125 -22.492188 20.90625 -21.945312 21.1875 -21.3125 C 21.476562 -20.6875 21.625 -20.015625 21.625 -19.296875 Z M 21.625 -17.625 "/></g></g></g><g fill="#eceff4" fill-opacity="1"><g transform="translate(106.989782, 174.981673)"><g><path d="M 11.09375 -0.5 L 11.09375 -21.765625 L 3.78125 -21.765625 C 3.445312 -21.765625 3.28125 -21.929688 3.28125 -22.265625 L 3.28125 -23.96875 C 3.28125 -24.300781 3.445312 -24.46875 3.78125 -24.46875 L 21.125 -24.46875 C 21.457031 -24.46875 21.625 -24.300781 21.625 -23.96875 L 21.625 -22.265625 C 21.625 -21.929688 21.457031 -21.765625 21.125 -21.765625 L 13.8125 -21.765625 L 13.8125 -0.5 C 13.8125 -0.351562 13.753906 -0.234375 13.640625 -0.140625 C 13.535156 -0.046875 13.425781 0 13.3125 0 L 11.59375 0 C 11.257812 0 11.09375 -0.164062 11.09375 -0.5 Z M 11.09375 -0.5 "/></g></g></g><g fill="#eceff4" fill-opacity="1"><g transform="translate(131.84598, 174.981673)"><g/></g></g><g fill="#eceff4" fill-opacity="1"><g transform="translate(156.666518, 174.981673)"><g><path d="M 3.421875 -8.203125 C 3.421875 -8.328125 3.472656 -8.441406 3.578125 -8.546875 C 3.691406 -8.648438 3.804688 -8.703125 3.921875 -8.703125 L 5.640625 -8.703125 C 5.773438 -8.703125 5.890625 -8.648438 5.984375 -8.546875 C 6.085938 -8.441406 6.140625 -8.328125 6.140625 -8.203125 L 6.140625 -5.203125 C 6.140625 -4.515625 6.378906 -3.925781 6.859375 -3.4375 C 7.347656 -2.957031 7.9375 -2.71875 8.625 -2.71875 L 16.234375 -2.71875 C 16.921875 -2.71875 17.507812 -2.957031 18 -3.4375 C 18.488281 -3.925781 18.734375 -4.515625 18.734375 -5.203125 L 18.734375 -21.765625 L 3.953125 -21.765625 C 3.617188 -21.765625 3.453125 -21.929688 3.453125 -22.265625 L 3.453125 -23.96875 C 3.453125 -24.300781 3.617188 -24.46875 3.953125 -24.46875 L 20.9375 -24.46875 C 21.269531 -24.46875 21.4375 -24.300781 21.4375 -23.96875 L 21.4375 -5.203125 C 21.4375 -4.492188 21.300781 -3.816406 21.03125 -3.171875 C 20.757812 -2.535156 20.382812 -1.984375 19.90625 -1.515625 C 19.425781 -1.054688 18.867188 -0.6875 18.234375 -0.40625 C 17.609375 -0.132812 16.941406 0 16.234375 0 L 8.625 0 C 7.914062 0 7.242188 -0.132812 6.609375 -0.40625 C 5.984375 -0.6875 5.429688 -1.054688 4.953125 -1.515625 C 4.484375 -1.984375 4.109375 -2.535156 3.828125 -3.171875 C 3.554688 -3.816406 3.421875 -4.492188 3.421875 -5.203125 Z M 3.421875 -8.203125 "/></g></g></g><g fill="#eceff4" fill-opacity="1"><g transform="translate(181.487055, 174.981673)"><g><path d="M 3.25 -5.203125 L 3.25 -6.84375 C 3.25 -6.96875 3.300781 -7.082031 3.40625 -7.1875 C 3.507812 -7.289062 3.625 -7.34375 3.75 -7.34375 L 5.453125 -7.34375 C 5.597656 -7.34375 5.71875 -7.289062 5.8125 -7.1875 C 5.90625 -7.082031 5.953125 -6.96875 5.953125 -6.84375 L 5.953125 -5.203125 C 5.953125 -4.515625 6.195312 -3.925781 6.6875 -3.4375 C 7.175781 -2.957031 7.765625 -2.71875 8.453125 -2.71875 L 16.40625 -2.71875 C 17.09375 -2.71875 17.679688 -2.957031 18.171875 -3.4375 C 18.660156 -3.925781 18.90625 -4.515625 18.90625 -5.203125 L 18.90625 -8.390625 C 18.90625 -9.078125 18.660156 -9.660156 18.171875 -10.140625 C 17.679688 -10.628906 17.09375 -10.875 16.40625 -10.875 L 8.453125 -10.875 C 7.742188 -10.875 7.070312 -11.007812 6.4375 -11.28125 C 5.8125 -11.5625 5.257812 -11.929688 4.78125 -12.390625 C 4.300781 -12.859375 3.925781 -13.410156 3.65625 -14.046875 C 3.382812 -14.691406 3.25 -15.375 3.25 -16.09375 L 3.25 -19.265625 C 3.25 -19.972656 3.382812 -20.640625 3.65625 -21.265625 C 3.925781 -21.898438 4.300781 -22.457031 4.78125 -22.9375 C 5.257812 -23.414062 5.8125 -23.789062 6.4375 -24.0625 C 7.070312 -24.332031 7.742188 -24.46875 8.453125 -24.46875 L 16.40625 -24.46875 C 17.125 -24.46875 17.796875 -24.332031 18.421875 -24.0625 C 19.054688 -23.789062 19.609375 -23.414062 20.078125 -22.9375 C 20.554688 -22.457031 20.929688 -21.898438 21.203125 -21.265625 C 21.484375 -20.640625 21.625 -19.972656 21.625 -19.265625 L 21.625 -17.625 C 21.625 -17.289062 21.457031 -17.125 21.125 -17.125 L 19.40625 -17.125 C 19.070312 -17.125 18.90625 -17.289062 18.90625 -17.625 L 18.90625 -19.265625 C 18.90625 -19.953125 18.660156 -20.539062 18.171875 -21.03125 C 17.679688 -21.519531 17.09375 -21.765625 16.40625 -21.765625 L 8.453125 -21.765625 C 7.765625 -21.765625 7.175781 -21.519531 6.6875 -21.03125 C 6.195312 -20.539062 5.953125 -19.953125 5.953125 -19.265625 L 5.953125 -16.09375 C 5.953125 -15.394531 6.195312 -14.800781 6.6875 -14.3125 C 7.175781 -13.832031 7.765625 -13.59375 8.453125 -13.59375 L 16.40625 -13.59375 C 17.125 -13.59375 17.796875 -13.453125 18.421875 -13.171875 C 19.054688 -12.898438 19.609375 -12.523438 20.078125 -12.046875 C 20.554688 -11.578125 20.929688 -11.023438 21.203125 -10.390625 C 21.484375 -9.765625 21.625 -9.097656 21.625 -8.390625 L 21.625 -5.203125 C 21.625 -4.492188 21.484375 -3.816406 21.203125 -3.171875 C 20.929688 -2.535156 20.554688 -1.984375 20.078125 -1.515625 C 19.609375 -1.054688 19.054688 -0.6875 18.421875 -0.40625 C 17.796875 -0.132812 17.125 0 16.40625 0 L 8.453125 0 C 7.742188 0 7.070312 -0.132812 6.4375 -0.40625 C 5.8125 -0.6875 5.257812 -1.054688 4.78125 -1.515625 C 4.300781 -1.984375 3.925781 -2.535156 3.65625 -3.171875 C 3.382812 -3.816406 3.25 -4.492188 3.25 -5.203125 Z M 3.25 -5.203125 "/></g></g></g></svg>