<svg xmlns="http://www.w3.org/2000/svg" xmlns:xlink="http://www.w3.org/1999/xlink" width="320" zoomAndPan="magnify" viewBox="0 0 240 231" height="308" preserveAspectRatio="xMidYMid meet" version="1.0"><defs><g/><clipPath id="732ab7f8e0"><path d="M 33.523438 0 L 206.023438 0 L 206.023438 172.5 L 33.523438 172.5 Z M 33.523438 0 " clip-rule="nonzero"/></clipPath></defs><g clip-path="url(#732ab7f8e0)"><path fill="#007acc" d="M 33.523438 172.5 L 206.023438 172.5 L 206.023438 0 L 33.523438 0 Z M 33.523438 172.5 " fill-opacity="1" fill-rule="nonzero"/></g><path fill="#ffffff" d="M 71.660156 86.816406 L 71.609375 93.882812 L 94.058594 93.882812 L 94.058594 157.683594 L 109.941406 157.683594 L 109.941406 93.882812 L 132.394531 93.882812 L 132.394531 86.957031 C 132.394531 83.125 132.3125 79.917969 132.203125 79.835938 C 132.121094 79.726562 118.457031 79.671875 101.890625 79.699219 L 71.742188 79.78125 Z M 71.660156 86.816406 " fill-opacity="1" fill-rule="nonzero"/><path fill="#ffffff" d="M 172.714844 79.585938 C 177.09375 80.675781 180.4375 82.625 183.503906 85.796875 C 185.085938 87.496094 187.445312 90.589844 187.632812 91.332031 C 187.6875 91.554688 180.1875 96.585938 175.640625 99.410156 C 175.476562 99.519531 174.824219 98.804688 174.082031 97.710938 C 171.867188 94.476562 169.535156 93.082031 165.976562 92.839844 C 160.75 92.484375 157.378906 95.21875 157.40625 99.792969 C 157.40625 101.136719 157.601562 101.929688 158.148438 103.023438 C 159.300781 105.40625 161.4375 106.828125 168.140625 109.734375 C 180.492188 115.042969 185.773438 118.546875 189.0625 123.53125 C 192.726562 129.09375 193.550781 137.960938 191.058594 144.554688 C 188.320312 151.734375 181.527344 156.605469 171.972656 158.222656 C 169.015625 158.742188 162.007812 158.660156 158.828125 158.085938 C 151.902344 156.855469 145.332031 153.429688 141.28125 148.941406 C 139.691406 147.191406 136.597656 142.617188 136.785156 142.285156 C 136.875 142.179688 137.582031 141.738281 138.378906 141.273438 C 139.144531 140.835938 142.050781 139.164062 144.785156 137.574219 L 149.738281 134.703125 L 150.78125 136.234375 C 152.230469 138.453125 155.410156 141.492188 157.324219 142.507812 C 162.832031 145.40625 170.382812 144.996094 174.109375 141.660156 C 175.699219 140.203125 176.355469 138.699219 176.355469 136.484375 C 176.355469 134.484375 176.113281 133.605469 175.066406 132.105469 C 173.726562 130.183594 170.992188 128.566406 163.214844 125.203125 C 154.3125 121.371094 150.480469 118.984375 146.976562 115.203125 C 144.945312 113.015625 143.035156 109.511719 142.238281 106.578125 C 141.578125 104.148438 141.417969 98.042969 141.933594 95.574219 C 143.773438 86.976562 150.261719 80.980469 159.621094 79.203125 C 162.660156 78.628906 169.730469 78.84375 172.714844 79.585938 Z M 172.714844 79.585938 " fill-opacity="1" fill-rule="nonzero"/><g fill="#eceff4" fill-opacity="1"><g transform="translate(7.604876, 212.799126)"><g><path d="M 11.125 -0.5 L 11.125 -21.8125 L 3.796875 -21.8125 C 3.460938 -21.8125 3.296875 -21.976562 3.296875 -22.3125 L 3.296875 -24.03125 C 3.296875 -24.363281 3.460938 -24.53125 3.796875 -24.53125 L 21.171875 -24.53125 C 21.503906 -24.53125 21.671875 -24.363281 21.671875 -24.03125 L 21.671875 -22.3125 C 21.671875 -21.976562 21.503906 -21.8125 21.171875 -21.8125 L 13.84375 -21.8125 L 13.84375 -0.5 C 13.84375 -0.351562 13.785156 -0.234375 13.671875 -0.140625 C 13.566406 -0.046875 13.457031 0 13.34375 0 L 11.625 0 C 11.289062 0 11.125 -0.164062 11.125 -0.5 Z M 11.125 -0.5 "/></g></g></g><g fill="#eceff4" fill-opacity="1"><g transform="translate(32.5253, 212.799126)"><g><path d="M 3.609375 -17.53125 C 3.515625 -17.644531 3.429688 -17.78125 3.359375 -17.9375 C 3.285156 -18.09375 3.25 -18.242188 3.25 -18.390625 L 3.25 -24.03125 C 3.25 -24.15625 3.300781 -24.269531 3.40625 -24.375 C 3.519531 -24.476562 3.632812 -24.53125 3.75 -24.53125 L 5.46875 -24.53125 C 5.613281 -24.53125 5.734375 -24.476562 5.828125 -24.375 C 5.921875 -24.269531 5.96875 -24.15625 5.96875 -24.03125 L 5.96875 -19.453125 C 5.96875 -19.335938 6.003906 -19.195312 6.078125 -19.03125 C 6.148438 -18.863281 6.234375 -18.71875 6.328125 -18.59375 L 12.484375 -12.59375 L 18.59375 -18.59375 C 18.71875 -18.71875 18.804688 -18.863281 18.859375 -19.03125 C 18.921875 -19.195312 18.953125 -19.335938 18.953125 -19.453125 L 18.953125 -24.03125 C 18.953125 -24.15625 19 -24.269531 19.09375 -24.375 C 19.1875 -24.476562 19.304688 -24.53125 19.453125 -24.53125 L 21.171875 -24.53125 C 21.316406 -24.53125 21.4375 -24.476562 21.53125 -24.375 C 21.625 -24.269531 21.671875 -24.15625 21.671875 -24.03125 L 21.671875 -18.390625 C 21.671875 -18.242188 21.632812 -18.09375 21.5625 -17.9375 C 21.488281 -17.78125 21.40625 -17.644531 21.3125 -17.53125 L 13.84375 -10.078125 L 13.84375 -0.5 C 13.84375 -0.351562 13.785156 -0.234375 13.671875 -0.140625 C 13.566406 -0.046875 13.457031 0 13.34375 0 L 11.625 0 C 11.289062 0 11.125 -0.164062 11.125 -0.5 L 11.125 -10.078125 Z M 3.609375 -17.53125 "/></g></g></g><g fill="#eceff4" fill-opacity="1"><g transform="translate(57.409973, 212.799126)"><g><path d="M 3.25 -0.5 L 3.25 -24.03125 C 3.25 -24.175781 3.300781 -24.296875 3.40625 -24.390625 C 3.519531 -24.484375 3.632812 -24.53125 3.75 -24.53125 L 16.453125 -24.53125 C 17.171875 -24.53125 17.84375 -24.394531 18.46875 -24.125 C 19.101562 -23.851562 19.65625 -23.476562 20.125 -23 C 20.601562 -22.519531 20.976562 -21.960938 21.25 -21.328125 C 21.53125 -20.703125 21.671875 -20.03125 21.671875 -19.3125 L 21.671875 -16.125 C 21.671875 -15.414062 21.53125 -14.738281 21.25 -14.09375 C 20.976562 -13.445312 20.601562 -12.890625 20.125 -12.421875 C 19.65625 -11.960938 19.101562 -11.59375 18.46875 -11.3125 C 17.84375 -11.039062 17.171875 -10.90625 16.453125 -10.90625 L 5.96875 -10.90625 L 5.96875 -0.5 C 5.96875 -0.164062 5.800781 0 5.46875 0 L 3.75 0 C 3.632812 0 3.519531 -0.046875 3.40625 -0.140625 C 3.300781 -0.234375 3.25 -0.351562 3.25 -0.5 Z M 5.96875 -13.625 L 16.453125 -13.625 C 17.140625 -13.625 17.726562 -13.867188 18.21875 -14.359375 C 18.707031 -14.847656 18.953125 -15.4375 18.953125 -16.125 L 18.953125 -19.3125 C 18.953125 -20 18.707031 -20.585938 18.21875 -21.078125 C 17.726562 -21.566406 17.140625 -21.8125 16.453125 -21.8125 L 5.96875 -21.8125 Z M 5.96875 -13.625 "/></g></g></g><g fill="#eceff4" fill-opacity="1"><g transform="translate(82.330397, 212.799126)"><g><path d="M 3.828125 -0.5 L 3.828125 -24.03125 C 3.828125 -24.363281 3.992188 -24.53125 4.328125 -24.53125 L 21 -24.53125 C 21.332031 -24.53125 21.5 -24.363281 21.5 -24.03125 L 21.5 -22.3125 C 21.5 -21.976562 21.332031 -21.8125 21 -21.8125 L 6.515625 -21.8125 L 6.515625 -13.625 L 19.0625 -13.625 C 19.175781 -13.625 19.285156 -13.570312 19.390625 -13.46875 C 19.503906 -13.363281 19.5625 -13.25 19.5625 -13.125 L 19.5625 -11.40625 C 19.5625 -11.257812 19.503906 -11.140625 19.390625 -11.046875 C 19.285156 -10.953125 19.175781 -10.90625 19.0625 -10.90625 L 6.515625 -10.90625 L 6.515625 -2.71875 L 21 -2.71875 C 21.132812 -2.71875 21.25 -2.660156 21.34375 -2.546875 C 21.445312 -2.441406 21.5 -2.332031 21.5 -2.21875 L 21.5 -0.5 C 21.5 -0.164062 21.332031 0 21 0 L 4.328125 0 C 3.992188 0 3.828125 -0.164062 3.828125 -0.5 Z M 3.828125 -0.5 "/></g></g></g><g fill="#eceff4" fill-opacity="1"><g transform="translate(107.21507, 212.799126)"><g><path d="M 21.671875 -17.671875 C 21.671875 -17.335938 21.503906 -17.171875 21.171875 -17.171875 L 19.453125 -17.171875 C 19.117188 -17.171875 18.953125 -17.335938 18.953125 -17.671875 L 18.953125 -19.34375 C 18.929688 -20.039062 18.679688 -20.625 18.203125 -21.09375 C 17.722656 -21.570312 17.140625 -21.8125 16.453125 -21.8125 L 8.46875 -21.8125 C 7.78125 -21.8125 7.191406 -21.566406 6.703125 -21.078125 C 6.210938 -20.585938 5.96875 -20 5.96875 -19.3125 L 5.96875 -5.21875 C 5.96875 -4.53125 6.210938 -3.941406 6.703125 -3.453125 C 7.191406 -2.960938 7.78125 -2.71875 8.46875 -2.71875 L 16.453125 -2.71875 C 17.140625 -2.71875 17.722656 -2.945312 18.203125 -3.40625 C 18.679688 -3.875 18.929688 -4.457031 18.953125 -5.15625 L 18.953125 -6.859375 C 18.953125 -6.984375 19 -7.097656 19.09375 -7.203125 C 19.1875 -7.316406 19.304688 -7.375 19.453125 -7.375 L 21.171875 -7.375 C 21.316406 -7.375 21.4375 -7.316406 21.53125 -7.203125 C 21.625 -7.097656 21.671875 -6.984375 21.671875 -6.859375 L 21.671875 -5.15625 C 21.671875 -4.4375 21.523438 -3.765625 21.234375 -3.140625 C 20.953125 -2.523438 20.578125 -1.984375 20.109375 -1.515625 C 19.648438 -1.054688 19.101562 -0.6875 18.46875 -0.40625 C 17.84375 -0.132812 17.171875 0 16.453125 0 L 8.46875 0 C 7.757812 0 7.085938 -0.132812 6.453125 -0.40625 C 5.828125 -0.6875 5.28125 -1.054688 4.8125 -1.515625 C 4.34375 -1.984375 3.972656 -2.539062 3.703125 -3.1875 C 3.429688 -3.832031 3.296875 -4.507812 3.296875 -5.21875 L 3.296875 -19.3125 C 3.296875 -20.03125 3.429688 -20.703125 3.703125 -21.328125 C 3.972656 -21.960938 4.34375 -22.519531 4.8125 -23 C 5.28125 -23.476562 5.828125 -23.851562 6.453125 -24.125 C 7.085938 -24.394531 7.757812 -24.53125 8.46875 -24.53125 L 16.453125 -24.53125 C 17.171875 -24.53125 17.84375 -24.394531 18.46875 -24.125 C 19.101562 -23.851562 19.648438 -23.484375 20.109375 -23.015625 C 20.578125 -22.546875 20.953125 -21.992188 21.234375 -21.359375 C 21.523438 -20.734375 21.671875 -20.0625 21.671875 -19.34375 Z M 21.671875 -17.671875 "/></g></g></g><g fill="#eceff4" fill-opacity="1"><g transform="translate(132.135494, 212.799126)"><g><path d="M 18.28125 -0.46875 L 13.625 -10.90625 L 5.96875 -10.90625 L 5.96875 -0.5 C 5.96875 -0.164062 5.800781 0 5.46875 0 L 3.796875 0 C 3.460938 0 3.296875 -0.164062 3.296875 -0.5 L 3.296875 -24.03125 C 3.296875 -24.363281 3.460938 -24.53125 3.796875 -24.53125 L 16.453125 -24.53125 C 17.171875 -24.53125 17.84375 -24.394531 18.46875 -24.125 C 19.101562 -23.851562 19.65625 -23.476562 20.125 -23 C 20.601562 -22.519531 20.976562 -21.960938 21.25 -21.328125 C 21.53125 -20.703125 21.671875 -20.03125 21.671875 -19.3125 L 21.671875 -16.125 C 21.671875 -14.957031 21.316406 -13.914062 20.609375 -13 C 19.910156 -12.082031 19.003906 -11.457031 17.890625 -11.125 L 16.671875 -10.765625 L 21.25 -0.46875 C 21.320312 -0.34375 21.328125 -0.234375 21.265625 -0.140625 C 21.203125 -0.046875 21.097656 0 20.953125 0 L 18.984375 0 C 18.847656 0 18.707031 -0.046875 18.5625 -0.140625 C 18.414062 -0.234375 18.320312 -0.34375 18.28125 -0.46875 Z M 5.96875 -13.625 L 16.453125 -13.625 C 17.140625 -13.625 17.726562 -13.867188 18.21875 -14.359375 C 18.707031 -14.847656 18.953125 -15.4375 18.953125 -16.125 L 18.953125 -19.3125 C 18.953125 -20 18.707031 -20.585938 18.21875 -21.078125 C 17.726562 -21.566406 17.140625 -21.8125 16.453125 -21.8125 L 5.96875 -21.8125 Z M 5.96875 -13.625 "/></g></g></g><g fill="#eceff4" fill-opacity="1"><g transform="translate(157.055919, 212.799126)"><g><path d="M 3.75 -0.5 L 3.75 -2.21875 C 3.75 -2.332031 3.796875 -2.441406 3.890625 -2.546875 C 3.992188 -2.660156 4.113281 -2.71875 4.25 -2.71875 L 11.125 -2.71875 L 11.125 -21.8125 L 4.25 -21.8125 C 3.914062 -21.8125 3.75 -21.976562 3.75 -22.3125 L 3.75 -24.03125 C 3.75 -24.363281 3.914062 -24.53125 4.25 -24.53125 L 20.671875 -24.53125 C 21.003906 -24.53125 21.171875 -24.363281 21.171875 -24.03125 L 21.171875 -22.3125 C 21.171875 -21.976562 21.003906 -21.8125 20.671875 -21.8125 L 13.84375 -21.8125 L 13.84375 -2.71875 L 20.671875 -2.71875 C 20.816406 -2.71875 20.9375 -2.660156 21.03125 -2.546875 C 21.125 -2.441406 21.171875 -2.332031 21.171875 -2.21875 L 21.171875 -0.5 C 21.171875 -0.164062 21.003906 0 20.671875 0 L 4.25 0 C 3.914062 0 3.75 -0.164062 3.75 -0.5 Z M 3.75 -0.5 "/></g></g></g><g fill="#eceff4" fill-opacity="1"><g transform="translate(181.976343, 212.799126)"><g><path d="M 3.25 -0.5 L 3.25 -24.03125 C 3.25 -24.175781 3.300781 -24.296875 3.40625 -24.390625 C 3.519531 -24.484375 3.632812 -24.53125 3.75 -24.53125 L 16.453125 -24.53125 C 17.171875 -24.53125 17.84375 -24.394531 18.46875 -24.125 C 19.101562 -23.851562 19.65625 -23.476562 20.125 -23 C 20.601562 -22.519531 20.976562 -21.960938 21.25 -21.328125 C 21.53125 -20.703125 21.671875 -20.03125 21.671875 -19.3125 L 21.671875 -16.125 C 21.671875 -15.414062 21.53125 -14.738281 21.25 -14.09375 C 20.976562 -13.445312 20.601562 -12.890625 20.125 -12.421875 C 19.65625 -11.960938 19.101562 -11.59375 18.46875 -11.3125 C 17.84375 -11.039062 17.171875 -10.90625 16.453125 -10.90625 L 5.96875 -10.90625 L 5.96875 -0.5 C 5.96875 -0.164062 5.800781 0 5.46875 0 L 3.75 0 C 3.632812 0 3.519531 -0.046875 3.40625 -0.140625 C 3.300781 -0.234375 3.25 -0.351562 3.25 -0.5 Z M 5.96875 -13.625 L 16.453125 -13.625 C 17.140625 -13.625 17.726562 -13.867188 18.21875 -14.359375 C 18.707031 -14.847656 18.953125 -15.4375 18.953125 -16.125 L 18.953125 -19.3125 C 18.953125 -20 18.707031 -20.585938 18.21875 -21.078125 C 17.726562 -21.566406 17.140625 -21.8125 16.453125 -21.8125 L 5.96875 -21.8125 Z M 5.96875 -13.625 "/></g></g></g><g fill="#eceff4" fill-opacity="1"><g transform="translate(206.896768, 212.799126)"><g><path d="M 11.125 -0.5 L 11.125 -21.8125 L 3.796875 -21.8125 C 3.460938 -21.8125 3.296875 -21.976562 3.296875 -22.3125 L 3.296875 -24.03125 C 3.296875 -24.363281 3.460938 -24.53125 3.796875 -24.53125 L 21.171875 -24.53125 C 21.503906 -24.53125 21.671875 -24.363281 21.671875 -24.03125 L 21.671875 -22.3125 C 21.671875 -21.976562 21.503906 -21.8125 21.171875 -21.8125 L 13.84375 -21.8125 L 13.84375 -0.5 C 13.84375 -0.351562 13.785156 -0.234375 13.671875 -0.140625 C 13.566406 -0.046875 13.457031 0 13.34375 0 L 11.625 0 C 11.289062 0 11.125 -0.164062 11.125 -0.5 Z M 11.125 -0.5 "/></g></g></g></svg>