<svg xmlns="http://www.w3.org/2000/svg" xmlns:xlink="http://www.w3.org/1999/xlink" width="515" zoomAndPan="magnify" viewBox="0 0 386.25 122.249994" height="163" preserveAspectRatio="xMidYMid meet" version="1.0"><defs><g/><clipPath id="6614a7ee64"><path d="M 0.804688 2.867188 L 119.328125 2.867188 L 119.328125 121.390625 L 0.804688 121.390625 Z M 0.804688 2.867188 " clip-rule="nonzero"/></clipPath></defs><g clip-path="url(#6614a7ee64)"><path fill="#000000" d="M 108.8125 2.867188 L 11.207031 2.867188 C 10.523438 2.867188 9.84375 2.933594 9.167969 3.070312 C 8.496094 3.203125 7.839844 3.402344 7.207031 3.664062 C 6.574219 3.925781 5.96875 4.246094 5.398438 4.628906 C 4.828125 5.007812 4.300781 5.441406 3.8125 5.925781 C 3.328125 6.410156 2.894531 6.941406 2.511719 7.511719 C 2.128906 8.082031 1.804688 8.683594 1.542969 9.316406 C 1.277344 9.949219 1.078125 10.605469 0.945312 11.277344 C 0.808594 11.949219 0.742188 12.628906 0.738281 13.316406 L 0.738281 93.386719 C 0.742188 94.070312 0.808594 94.75 0.945312 95.425781 C 1.078125 96.097656 1.277344 96.75 1.542969 97.382812 C 1.804688 98.019531 2.128906 98.621094 2.511719 99.191406 C 2.894531 99.761719 3.328125 100.289062 3.8125 100.773438 C 4.300781 101.257812 4.828125 101.691406 5.398438 102.074219 C 5.96875 102.453125 6.574219 102.773438 7.207031 103.039062 C 7.839844 103.300781 8.496094 103.496094 9.167969 103.632812 C 9.84375 103.765625 10.523438 103.832031 11.207031 103.832031 L 44.132812 103.832031 L 40.839844 117 L 33.660156 117 L 33.660156 121.390625 L 86.339844 121.390625 L 86.339844 117 L 79.269531 117 L 75.980469 103.832031 L 108.902344 103.832031 C 109.585938 103.832031 110.265625 103.761719 110.9375 103.628906 C 111.609375 103.492188 112.265625 103.292969 112.898438 103.03125 C 113.53125 102.769531 114.132812 102.445312 114.703125 102.066406 C 115.269531 101.683594 115.796875 101.25 116.285156 100.765625 C 116.769531 100.28125 117.199219 99.753906 117.582031 99.183594 C 117.964844 98.613281 118.285156 98.011719 118.546875 97.378906 C 118.8125 96.746094 119.011719 96.09375 119.144531 95.421875 C 119.28125 94.75 119.347656 94.070312 119.351562 93.386719 L 119.351562 13.316406 C 119.347656 12.625 119.28125 11.945312 119.144531 11.269531 C 119.007812 10.59375 118.804688 9.9375 118.539062 9.300781 C 118.273438 8.664062 117.949219 8.0625 117.5625 7.488281 C 117.179688 6.917969 116.742188 6.390625 116.253906 5.902344 C 115.761719 5.417969 115.230469 4.984375 114.65625 4.605469 C 114.082031 4.226562 113.472656 3.90625 112.835938 3.644531 C 112.199219 3.382812 111.539062 3.1875 110.863281 3.058594 C 110.1875 2.925781 109.503906 2.863281 108.8125 2.867188 Z M 74.75 117 L 45.25 117 L 48.542969 103.832031 L 71.457031 103.832031 Z M 114.871094 93.386719 C 114.871094 93.78125 114.832031 94.175781 114.753906 94.566406 C 114.671875 94.953125 114.558594 95.332031 114.40625 95.699219 C 114.253906 96.066406 114.066406 96.414062 113.84375 96.746094 C 113.625 97.074219 113.371094 97.382812 113.089844 97.660156 C 112.808594 97.941406 112.503906 98.195312 112.175781 98.414062 C 111.84375 98.636719 111.496094 98.824219 111.128906 98.976562 C 110.761719 99.128906 110.382812 99.242188 109.996094 99.324219 C 109.605469 99.402344 109.210938 99.441406 108.8125 99.441406 L 11.207031 99.441406 C 10.808594 99.441406 10.414062 99.402344 10.023438 99.328125 C 9.632812 99.25 9.253906 99.132812 8.886719 98.980469 C 8.519531 98.828125 8.167969 98.644531 7.835938 98.421875 C 7.507812 98.203125 7.199219 97.949219 6.917969 97.667969 C 6.636719 97.386719 6.382812 97.082031 6.160156 96.753906 C 5.9375 96.421875 5.75 96.074219 5.597656 95.703125 C 5.445312 95.335938 5.328125 94.957031 5.25 94.566406 C 5.171875 94.175781 5.128906 93.78125 5.128906 93.386719 L 5.128906 77.492188 L 77.558594 77.492188 L 77.558594 73.105469 L 5.128906 73.105469 L 5.128906 13.316406 C 5.128906 12.917969 5.171875 12.523438 5.25 12.132812 C 5.328125 11.742188 5.445312 11.363281 5.597656 10.996094 C 5.75 10.628906 5.9375 10.28125 6.160156 9.949219 C 6.382812 9.617188 6.636719 9.3125 6.917969 9.03125 C 7.199219 8.75 7.507812 8.5 7.835938 8.277344 C 8.167969 8.058594 8.519531 7.871094 8.886719 7.71875 C 9.253906 7.566406 9.632812 7.453125 10.023438 7.375 C 10.414062 7.296875 10.808594 7.257812 11.207031 7.257812 L 108.8125 7.257812 C 109.210938 7.257812 109.605469 7.300781 109.996094 7.378906 C 110.382812 7.457031 110.761719 7.574219 111.128906 7.726562 C 111.496094 7.878906 111.84375 8.066406 112.175781 8.285156 C 112.503906 8.507812 112.808594 8.757812 113.089844 9.039062 C 113.371094 9.320312 113.625 9.625 113.84375 9.957031 C 114.066406 10.285156 114.253906 10.632812 114.40625 11 C 114.558594 11.367188 114.671875 11.746094 114.753906 12.136719 C 114.832031 12.523438 114.871094 12.917969 114.871094 13.316406 Z M 55.609375 86.273438 L 64.390625 86.273438 L 64.390625 90.664062 L 55.609375 90.664062 Z M 39.609375 24.179688 L 23.632812 40.179688 L 39.632812 56.183594 L 36.539062 59.296875 L 18.976562 41.738281 C 18.769531 41.535156 18.609375 41.296875 18.496094 41.023438 C 18.386719 40.753906 18.328125 40.472656 18.328125 40.179688 C 18.328125 39.886719 18.386719 39.605469 18.496094 39.335938 C 18.609375 39.066406 18.769531 38.828125 18.976562 38.621094 L 36.539062 21.0625 Z M 101.066406 41.738281 L 83.507812 59.296875 L 80.414062 56.183594 L 96.414062 40.179688 L 80.414062 24.179688 L 83.507812 21.0625 L 101.066406 38.621094 C 101.273438 38.828125 101.433594 39.066406 101.546875 39.335938 C 101.660156 39.605469 101.714844 39.886719 101.714844 40.179688 C 101.714844 40.472656 101.660156 40.753906 101.546875 41.023438 C 101.433594 41.296875 101.273438 41.535156 101.066406 41.738281 Z M 66.738281 17.421875 L 70.820312 19.042969 L 53.261719 62.941406 L 49.179688 61.316406 Z M 108.289062 75.300781 C 108.289062 75.585938 108.257812 75.871094 108.203125 76.15625 C 108.148438 76.4375 108.0625 76.710938 107.953125 76.980469 C 107.84375 77.246094 107.707031 77.5 107.546875 77.738281 C 107.386719 77.976562 107.207031 78.199219 107 78.402344 C 106.796875 78.605469 106.578125 78.789062 106.335938 78.949219 C 106.097656 79.109375 105.84375 79.246094 105.578125 79.355469 C 105.3125 79.464844 105.035156 79.546875 104.753906 79.605469 C 104.472656 79.660156 104.1875 79.6875 103.898438 79.6875 C 103.609375 79.6875 103.324219 79.660156 103.042969 79.605469 C 102.757812 79.546875 102.484375 79.464844 102.21875 79.355469 C 101.953125 79.246094 101.699219 79.109375 101.460938 78.949219 C 101.21875 78.789062 100.996094 78.605469 100.792969 78.402344 C 100.589844 78.199219 100.40625 77.976562 100.246094 77.738281 C 100.085938 77.5 99.953125 77.246094 99.84375 76.980469 C 99.730469 76.710938 99.648438 76.4375 99.59375 76.15625 C 99.535156 75.871094 99.507812 75.585938 99.507812 75.300781 C 99.507812 75.011719 99.535156 74.726562 99.59375 74.441406 C 99.648438 74.160156 99.730469 73.886719 99.84375 73.621094 C 99.953125 73.351562 100.085938 73.101562 100.246094 72.859375 C 100.40625 72.621094 100.589844 72.398438 100.792969 72.195312 C 100.996094 71.992188 101.21875 71.808594 101.460938 71.648438 C 101.699219 71.488281 101.953125 71.355469 102.21875 71.242188 C 102.484375 71.132812 102.757812 71.050781 103.042969 70.992188 C 103.324219 70.9375 103.609375 70.910156 103.898438 70.910156 C 104.1875 70.910156 104.472656 70.9375 104.753906 70.992188 C 105.035156 71.050781 105.3125 71.132812 105.578125 71.242188 C 105.84375 71.355469 106.097656 71.488281 106.335938 71.648438 C 106.578125 71.808594 106.796875 71.992188 107 72.195312 C 107.207031 72.398438 107.386719 72.621094 107.546875 72.859375 C 107.707031 73.101562 107.84375 73.351562 107.953125 73.621094 C 108.0625 73.886719 108.148438 74.160156 108.203125 74.441406 C 108.257812 74.726562 108.289062 75.011719 108.289062 75.300781 Z M 95.117188 75.300781 C 95.117188 75.585938 95.089844 75.871094 95.035156 76.15625 C 94.976562 76.4375 94.894531 76.710938 94.785156 76.980469 C 94.675781 77.246094 94.539062 77.5 94.378906 77.738281 C 94.21875 77.976562 94.035156 78.199219 93.832031 78.402344 C 93.628906 78.605469 93.40625 78.789062 93.167969 78.949219 C 92.929688 79.109375 92.675781 79.246094 92.410156 79.355469 C 92.140625 79.464844 91.867188 79.546875 91.585938 79.605469 C 91.300781 79.660156 91.015625 79.6875 90.730469 79.6875 C 90.441406 79.6875 90.15625 79.660156 89.871094 79.605469 C 89.589844 79.546875 89.316406 79.464844 89.046875 79.355469 C 88.78125 79.246094 88.53125 79.109375 88.289062 78.949219 C 88.050781 78.789062 87.828125 78.605469 87.625 78.402344 C 87.421875 78.199219 87.238281 77.976562 87.078125 77.738281 C 86.917969 77.5 86.785156 77.246094 86.671875 76.980469 C 86.5625 76.710938 86.480469 76.4375 86.421875 76.15625 C 86.367188 75.871094 86.339844 75.585938 86.339844 75.300781 C 86.339844 75.011719 86.367188 74.726562 86.421875 74.441406 C 86.480469 74.160156 86.5625 73.886719 86.671875 73.621094 C 86.785156 73.351562 86.917969 73.101562 87.078125 72.859375 C 87.238281 72.621094 87.421875 72.398438 87.625 72.195312 C 87.828125 71.992188 88.050781 71.808594 88.289062 71.648438 C 88.53125 71.488281 88.78125 71.355469 89.046875 71.242188 C 89.316406 71.132812 89.589844 71.050781 89.871094 70.992188 C 90.15625 70.9375 90.441406 70.910156 90.730469 70.910156 C 91.015625 70.910156 91.300781 70.9375 91.585938 70.992188 C 91.867188 71.050781 92.140625 71.132812 92.410156 71.242188 C 92.675781 71.355469 92.929688 71.488281 93.167969 71.648438 C 93.40625 71.808594 93.628906 71.992188 93.832031 72.195312 C 94.035156 72.398438 94.21875 72.621094 94.378906 72.859375 C 94.539062 73.101562 94.675781 73.351562 94.785156 73.621094 C 94.894531 73.886719 94.976562 74.160156 95.035156 74.441406 C 95.089844 74.726562 95.117188 75.011719 95.117188 75.300781 Z M 95.117188 75.300781 " fill-opacity="1" fill-rule="nonzero"/></g><g fill="#000000" fill-opacity="1"><g transform="translate(135.16745, 47.412666)"><g><path d="M 5.625 0 C 4.882812 0 4.316406 -0.195312 3.921875 -0.59375 C 3.535156 -0.988281 3.34375 -1.550781 3.34375 -2.28125 L 3.34375 -26.421875 C 3.34375 -27.160156 3.535156 -27.722656 3.921875 -28.109375 C 4.316406 -28.503906 4.882812 -28.703125 5.625 -28.703125 L 13.484375 -28.703125 C 18.203125 -28.703125 21.84375 -27.472656 24.40625 -25.015625 C 26.976562 -22.566406 28.265625 -19.019531 28.265625 -14.375 C 28.265625 -12.0625 27.9375 -10.007812 27.28125 -8.21875 C 26.625 -6.425781 25.664062 -4.925781 24.40625 -3.71875 C 23.144531 -2.507812 21.601562 -1.585938 19.78125 -0.953125 C 17.96875 -0.316406 15.867188 0 13.484375 0 Z M 7.578125 -3.546875 L 13.234375 -3.546875 C 15.023438 -3.546875 16.578125 -3.769531 17.890625 -4.21875 C 19.210938 -4.664062 20.320312 -5.335938 21.21875 -6.234375 C 22.113281 -7.128906 22.773438 -8.253906 23.203125 -9.609375 C 23.640625 -10.960938 23.859375 -12.550781 23.859375 -14.375 C 23.859375 -17.988281 22.96875 -20.691406 21.1875 -22.484375 C 19.414062 -24.273438 16.765625 -25.171875 13.234375 -25.171875 L 7.578125 -25.171875 Z M 7.578125 -3.546875 "/></g></g></g><g fill="#000000" fill-opacity="1"><g transform="translate(165.747396, 47.412666)"><g><path d="M 9.25 0.359375 C 7.863281 0.359375 6.617188 0.0859375 5.515625 -0.453125 C 4.421875 -0.992188 3.5625 -1.722656 2.9375 -2.640625 C 2.3125 -3.566406 2 -4.613281 2 -5.78125 C 2 -7.25 2.367188 -8.410156 3.109375 -9.265625 C 3.859375 -10.117188 5.09375 -10.726562 6.8125 -11.09375 C 8.539062 -11.457031 10.867188 -11.640625 13.796875 -11.640625 L 15.71875 -11.640625 L 15.71875 -9.125 L 13.84375 -9.125 C 11.882812 -9.125 10.335938 -9.023438 9.203125 -8.828125 C 8.066406 -8.640625 7.257812 -8.320312 6.78125 -7.875 C 6.300781 -7.425781 6.0625 -6.8125 6.0625 -6.03125 C 6.0625 -5 6.414062 -4.160156 7.125 -3.515625 C 7.832031 -2.878906 8.8125 -2.5625 10.0625 -2.5625 C 11.0625 -2.5625 11.941406 -2.796875 12.703125 -3.265625 C 13.460938 -3.742188 14.066406 -4.390625 14.515625 -5.203125 C 14.960938 -6.023438 15.1875 -6.960938 15.1875 -8.015625 L 15.1875 -12.703125 C 15.1875 -14.253906 14.859375 -15.367188 14.203125 -16.046875 C 13.554688 -16.722656 12.488281 -17.0625 11 -17.0625 C 10.125 -17.0625 9.21875 -16.953125 8.28125 -16.734375 C 7.34375 -16.515625 6.375 -16.148438 5.375 -15.640625 C 4.914062 -15.421875 4.519531 -15.347656 4.1875 -15.421875 C 3.863281 -15.503906 3.609375 -15.6875 3.421875 -15.96875 C 3.234375 -16.257812 3.128906 -16.570312 3.109375 -16.90625 C 3.097656 -17.25 3.179688 -17.582031 3.359375 -17.90625 C 3.535156 -18.238281 3.84375 -18.488281 4.28125 -18.65625 C 5.46875 -19.21875 6.644531 -19.617188 7.8125 -19.859375 C 8.976562 -20.109375 10.078125 -20.234375 11.109375 -20.234375 C 12.929688 -20.234375 14.429688 -19.945312 15.609375 -19.375 C 16.796875 -18.8125 17.671875 -17.945312 18.234375 -16.78125 C 18.804688 -15.613281 19.09375 -14.101562 19.09375 -12.25 L 19.09375 -1.796875 C 19.09375 -1.140625 18.929688 -0.628906 18.609375 -0.265625 C 18.285156 0.0976562 17.8125 0.28125 17.1875 0.28125 C 16.582031 0.28125 16.101562 0.0976562 15.75 -0.265625 C 15.40625 -0.628906 15.234375 -1.140625 15.234375 -1.796875 L 15.234375 -4.4375 L 15.59375 -4.4375 C 15.375 -3.4375 14.972656 -2.578125 14.390625 -1.859375 C 13.804688 -1.140625 13.078125 -0.585938 12.203125 -0.203125 C 11.335938 0.171875 10.351562 0.359375 9.25 0.359375 Z M 9.25 0.359375 "/></g></g></g><g fill="#000000" fill-opacity="1"><g transform="translate(187.613483, 47.412666)"><g><path d="M 10.59375 0.28125 C 10.019531 0.28125 9.519531 0.132812 9.09375 -0.15625 C 8.675781 -0.457031 8.332031 -0.921875 8.0625 -1.546875 L 1.265625 -17.34375 C 1.046875 -17.832031 0.960938 -18.289062 1.015625 -18.71875 C 1.066406 -19.15625 1.269531 -19.503906 1.625 -19.765625 C 1.976562 -20.023438 2.453125 -20.15625 3.046875 -20.15625 C 3.566406 -20.15625 3.972656 -20.03125 4.265625 -19.78125 C 4.566406 -19.539062 4.84375 -19.125 5.09375 -18.53125 L 11.234375 -3.375 L 10.09375 -3.375 L 16.375 -18.53125 C 16.613281 -19.125 16.890625 -19.539062 17.203125 -19.78125 C 17.515625 -20.03125 17.957031 -20.15625 18.53125 -20.15625 C 19.019531 -20.15625 19.40625 -20.023438 19.6875 -19.765625 C 19.96875 -19.503906 20.140625 -19.164062 20.203125 -18.75 C 20.273438 -18.332031 20.207031 -17.878906 20 -17.390625 L 13.109375 -1.546875 C 12.867188 -0.921875 12.53125 -0.457031 12.09375 -0.15625 C 11.65625 0.132812 11.15625 0.28125 10.59375 0.28125 Z M 10.59375 0.28125 "/></g></g></g><g fill="#000000" fill-opacity="1"><g transform="translate(208.787341, 47.412666)"><g><path d="M 4.921875 0.25 C 4.273438 0.25 3.773438 0.0507812 3.421875 -0.34375 C 3.066406 -0.738281 2.890625 -1.289062 2.890625 -2 L 2.890625 -17.875 C 2.890625 -18.582031 3.066406 -19.125 3.421875 -19.5 C 3.773438 -19.882812 4.273438 -20.078125 4.921875 -20.078125 C 5.578125 -20.078125 6.085938 -19.882812 6.453125 -19.5 C 6.816406 -19.125 7 -18.582031 7 -17.875 L 7 -2 C 7 -1.289062 6.820312 -0.738281 6.46875 -0.34375 C 6.113281 0.0507812 5.597656 0.25 4.921875 0.25 Z M 4.921875 -24.3125 C 4.109375 -24.3125 3.476562 -24.515625 3.03125 -24.921875 C 2.582031 -25.328125 2.359375 -25.894531 2.359375 -26.625 C 2.359375 -27.382812 2.582031 -27.960938 3.03125 -28.359375 C 3.476562 -28.753906 4.109375 -28.953125 4.921875 -28.953125 C 5.742188 -28.953125 6.378906 -28.753906 6.828125 -28.359375 C 7.273438 -27.960938 7.5 -27.382812 7.5 -26.625 C 7.5 -25.894531 7.273438 -25.328125 6.828125 -24.921875 C 6.378906 -24.515625 5.742188 -24.3125 4.921875 -24.3125 Z M 4.921875 -24.3125 "/></g></g></g><g fill="#000000" fill-opacity="1"><g transform="translate(218.682046, 47.412666)"><g/></g></g><g fill="#000000" fill-opacity="1"><g transform="translate(229.431849, 47.412666)"><g><path d="M 12.90625 0.359375 C 11.65625 0.359375 10.429688 0.265625 9.234375 0.078125 C 8.046875 -0.109375 6.921875 -0.398438 5.859375 -0.796875 C 4.804688 -1.191406 3.859375 -1.671875 3.015625 -2.234375 C 2.609375 -2.535156 2.328125 -2.875 2.171875 -3.25 C 2.023438 -3.632812 1.984375 -4.007812 2.046875 -4.375 C 2.117188 -4.738281 2.273438 -5.054688 2.515625 -5.328125 C 2.765625 -5.597656 3.066406 -5.765625 3.421875 -5.828125 C 3.773438 -5.898438 4.164062 -5.789062 4.59375 -5.5 C 5.820312 -4.707031 7.113281 -4.128906 8.46875 -3.765625 C 9.820312 -3.398438 11.300781 -3.21875 12.90625 -3.21875 C 15.21875 -3.21875 16.921875 -3.628906 18.015625 -4.453125 C 19.117188 -5.285156 19.671875 -6.367188 19.671875 -7.703125 C 19.671875 -8.785156 19.273438 -9.644531 18.484375 -10.28125 C 17.703125 -10.914062 16.382812 -11.425781 14.53125 -11.8125 L 10.1875 -12.703125 C 7.601562 -13.242188 5.679688 -14.140625 4.421875 -15.390625 C 3.160156 -16.640625 2.53125 -18.320312 2.53125 -20.4375 C 2.53125 -21.71875 2.789062 -22.882812 3.3125 -23.9375 C 3.84375 -25 4.582031 -25.914062 5.53125 -26.6875 C 6.488281 -27.46875 7.628906 -28.0625 8.953125 -28.46875 C 10.285156 -28.875 11.738281 -29.078125 13.3125 -29.078125 C 15 -29.078125 16.582031 -28.859375 18.0625 -28.421875 C 19.539062 -27.984375 20.863281 -27.316406 22.03125 -26.421875 C 22.382812 -26.179688 22.617188 -25.875 22.734375 -25.5 C 22.859375 -25.132812 22.882812 -24.773438 22.8125 -24.421875 C 22.75 -24.078125 22.59375 -23.78125 22.34375 -23.53125 C 22.101562 -23.289062 21.789062 -23.148438 21.40625 -23.109375 C 21.03125 -23.066406 20.613281 -23.195312 20.15625 -23.5 C 19.09375 -24.195312 18.007812 -24.703125 16.90625 -25.015625 C 15.8125 -25.328125 14.601562 -25.484375 13.28125 -25.484375 C 11.945312 -25.484375 10.785156 -25.28125 9.796875 -24.875 C 8.804688 -24.46875 8.046875 -23.894531 7.515625 -23.15625 C 6.984375 -22.425781 6.71875 -21.5625 6.71875 -20.5625 C 6.71875 -19.425781 7.082031 -18.515625 7.8125 -17.828125 C 8.550781 -17.148438 9.773438 -16.632812 11.484375 -16.28125 L 15.796875 -15.390625 C 18.515625 -14.816406 20.535156 -13.929688 21.859375 -12.734375 C 23.191406 -11.546875 23.859375 -9.960938 23.859375 -7.984375 C 23.859375 -6.703125 23.597656 -5.550781 23.078125 -4.53125 C 22.566406 -3.519531 21.835938 -2.644531 20.890625 -1.90625 C 19.941406 -1.175781 18.796875 -0.613281 17.453125 -0.21875 C 16.109375 0.164062 14.59375 0.359375 12.90625 0.359375 Z M 12.90625 0.359375 "/></g></g></g><g fill="#000000" fill-opacity="1"><g transform="translate(254.759048, 47.412666)"><g><path d="M 9.25 0.359375 C 7.863281 0.359375 6.617188 0.0859375 5.515625 -0.453125 C 4.421875 -0.992188 3.5625 -1.722656 2.9375 -2.640625 C 2.3125 -3.566406 2 -4.613281 2 -5.78125 C 2 -7.25 2.367188 -8.410156 3.109375 -9.265625 C 3.859375 -10.117188 5.09375 -10.726562 6.8125 -11.09375 C 8.539062 -11.457031 10.867188 -11.640625 13.796875 -11.640625 L 15.71875 -11.640625 L 15.71875 -9.125 L 13.84375 -9.125 C 11.882812 -9.125 10.335938 -9.023438 9.203125 -8.828125 C 8.066406 -8.640625 7.257812 -8.320312 6.78125 -7.875 C 6.300781 -7.425781 6.0625 -6.8125 6.0625 -6.03125 C 6.0625 -5 6.414062 -4.160156 7.125 -3.515625 C 7.832031 -2.878906 8.8125 -2.5625 10.0625 -2.5625 C 11.0625 -2.5625 11.941406 -2.796875 12.703125 -3.265625 C 13.460938 -3.742188 14.066406 -4.390625 14.515625 -5.203125 C 14.960938 -6.023438 15.1875 -6.960938 15.1875 -8.015625 L 15.1875 -12.703125 C 15.1875 -14.253906 14.859375 -15.367188 14.203125 -16.046875 C 13.554688 -16.722656 12.488281 -17.0625 11 -17.0625 C 10.125 -17.0625 9.21875 -16.953125 8.28125 -16.734375 C 7.34375 -16.515625 6.375 -16.148438 5.375 -15.640625 C 4.914062 -15.421875 4.519531 -15.347656 4.1875 -15.421875 C 3.863281 -15.503906 3.609375 -15.6875 3.421875 -15.96875 C 3.234375 -16.257812 3.128906 -16.570312 3.109375 -16.90625 C 3.097656 -17.25 3.179688 -17.582031 3.359375 -17.90625 C 3.535156 -18.238281 3.84375 -18.488281 4.28125 -18.65625 C 5.46875 -19.21875 6.644531 -19.617188 7.8125 -19.859375 C 8.976562 -20.109375 10.078125 -20.234375 11.109375 -20.234375 C 12.929688 -20.234375 14.429688 -19.945312 15.609375 -19.375 C 16.796875 -18.8125 17.671875 -17.945312 18.234375 -16.78125 C 18.804688 -15.613281 19.09375 -14.101562 19.09375 -12.25 L 19.09375 -1.796875 C 19.09375 -1.140625 18.929688 -0.628906 18.609375 -0.265625 C 18.285156 0.0976562 17.8125 0.28125 17.1875 0.28125 C 16.582031 0.28125 16.101562 0.0976562 15.75 -0.265625 C 15.40625 -0.628906 15.234375 -1.140625 15.234375 -1.796875 L 15.234375 -4.4375 L 15.59375 -4.4375 C 15.375 -3.4375 14.972656 -2.578125 14.390625 -1.859375 C 13.804688 -1.140625 13.078125 -0.585938 12.203125 -0.203125 C 11.335938 0.171875 10.351562 0.359375 9.25 0.359375 Z M 9.25 0.359375 "/></g></g></g><g fill="#000000" fill-opacity="1"><g transform="translate(276.625135, 47.412666)"><g><path d="M 4.921875 0.28125 C 4.273438 0.28125 3.773438 0.0976562 3.421875 -0.265625 C 3.066406 -0.628906 2.890625 -1.140625 2.890625 -1.796875 L 2.890625 -18.078125 C 2.890625 -18.753906 3.066406 -19.269531 3.421875 -19.625 C 3.773438 -19.976562 4.265625 -20.15625 4.890625 -20.15625 C 5.535156 -20.15625 6.023438 -19.976562 6.359375 -19.625 C 6.703125 -19.269531 6.875 -18.753906 6.875 -18.078125 L 6.875 -14.90625 L 6.4375 -15.640625 C 7.03125 -17.160156 7.960938 -18.304688 9.234375 -19.078125 C 10.515625 -19.847656 11.984375 -20.234375 13.640625 -20.234375 C 15.210938 -20.234375 16.519531 -19.941406 17.5625 -19.359375 C 18.613281 -18.773438 19.394531 -17.890625 19.90625 -16.703125 C 20.425781 -15.523438 20.6875 -14.039062 20.6875 -12.25 L 20.6875 -1.796875 C 20.6875 -1.140625 20.507812 -0.628906 20.15625 -0.265625 C 19.800781 0.0976562 19.300781 0.28125 18.65625 0.28125 C 17.96875 0.28125 17.445312 0.0976562 17.09375 -0.265625 C 16.75 -0.628906 16.578125 -1.140625 16.578125 -1.796875 L 16.578125 -12.015625 C 16.578125 -13.722656 16.242188 -14.96875 15.578125 -15.75 C 14.910156 -16.539062 13.867188 -16.9375 12.453125 -16.9375 C 10.796875 -16.9375 9.472656 -16.421875 8.484375 -15.390625 C 7.492188 -14.359375 7 -12.972656 7 -11.234375 L 7 -1.796875 C 7 -0.410156 6.304688 0.28125 4.921875 0.28125 Z M 4.921875 0.28125 "/></g></g></g><g fill="#000000" fill-opacity="1"><g transform="translate(300.079257, 47.412666)"><g><path d="M 11.359375 0.359375 C 9.734375 0.359375 8.363281 0.078125 7.25 -0.484375 C 6.132812 -1.054688 5.304688 -1.898438 4.765625 -3.015625 C 4.222656 -4.128906 3.953125 -5.484375 3.953125 -7.078125 L 3.953125 -16.6875 L 1.5 -16.6875 C 0.957031 -16.6875 0.535156 -16.828125 0.234375 -17.109375 C -0.0546875 -17.398438 -0.203125 -17.789062 -0.203125 -18.28125 C -0.203125 -18.800781 -0.0546875 -19.195312 0.234375 -19.46875 C 0.535156 -19.738281 0.957031 -19.875 1.5 -19.875 L 3.953125 -19.875 L 3.953125 -24.0625 C 3.953125 -24.738281 4.132812 -25.253906 4.5 -25.609375 C 4.863281 -25.960938 5.375 -26.140625 6.03125 -26.140625 C 6.675781 -26.140625 7.175781 -25.960938 7.53125 -25.609375 C 7.882812 -25.253906 8.0625 -24.738281 8.0625 -24.0625 L 8.0625 -19.875 L 12.828125 -19.875 C 13.367188 -19.875 13.785156 -19.738281 14.078125 -19.46875 C 14.378906 -19.195312 14.53125 -18.800781 14.53125 -18.28125 C 14.53125 -17.789062 14.378906 -17.398438 14.078125 -17.109375 C 13.785156 -16.828125 13.367188 -16.6875 12.828125 -16.6875 L 8.0625 -16.6875 L 8.0625 -7.40625 C 8.0625 -5.96875 8.363281 -4.878906 8.96875 -4.140625 C 9.582031 -3.410156 10.582031 -3.046875 11.96875 -3.046875 C 12.457031 -3.046875 12.882812 -3.09375 13.25 -3.1875 C 13.613281 -3.289062 13.921875 -3.351562 14.171875 -3.375 C 14.472656 -3.375 14.71875 -3.269531 14.90625 -3.0625 C 15.09375 -2.863281 15.1875 -2.476562 15.1875 -1.90625 C 15.1875 -1.5 15.109375 -1.117188 14.953125 -0.765625 C 14.804688 -0.421875 14.546875 -0.191406 14.171875 -0.078125 C 13.847656 0.0234375 13.40625 0.125 12.84375 0.21875 C 12.289062 0.3125 11.796875 0.359375 11.359375 0.359375 Z M 11.359375 0.359375 "/></g></g></g><g fill="#000000" fill-opacity="1"><g transform="translate(314.941681, 47.412666)"><g><path d="M 11.515625 0.359375 C 9.515625 0.359375 7.785156 -0.0546875 6.328125 -0.890625 C 4.878906 -1.734375 3.742188 -2.925781 2.921875 -4.46875 C 2.109375 -6.019531 1.703125 -7.84375 1.703125 -9.9375 C 1.703125 -11.539062 1.929688 -12.960938 2.390625 -14.203125 C 2.859375 -15.453125 3.519531 -16.53125 4.375 -17.4375 C 5.226562 -18.351562 6.257812 -19.046875 7.46875 -19.515625 C 8.675781 -19.992188 10.023438 -20.234375 11.515625 -20.234375 C 13.503906 -20.234375 15.222656 -19.8125 16.671875 -18.96875 C 18.128906 -18.132812 19.265625 -16.945312 20.078125 -15.40625 C 20.890625 -13.875 21.296875 -12.050781 21.296875 -9.9375 C 21.296875 -8.363281 21.0625 -6.9375 20.59375 -5.65625 C 20.132812 -4.382812 19.476562 -3.300781 18.625 -2.40625 C 17.769531 -1.507812 16.738281 -0.820312 15.53125 -0.34375 C 14.320312 0.125 12.984375 0.359375 11.515625 0.359375 Z M 11.515625 -2.8125 C 12.628906 -2.8125 13.609375 -3.082031 14.453125 -3.625 C 15.296875 -4.164062 15.953125 -4.960938 16.421875 -6.015625 C 16.898438 -7.078125 17.140625 -8.382812 17.140625 -9.9375 C 17.140625 -12.269531 16.625 -14.03125 15.59375 -15.21875 C 14.5625 -16.414062 13.203125 -17.015625 11.515625 -17.015625 C 10.378906 -17.015625 9.390625 -16.75 8.546875 -16.21875 C 7.703125 -15.695312 7.039062 -14.90625 6.5625 -13.84375 C 6.09375 -12.78125 5.859375 -11.476562 5.859375 -9.9375 C 5.859375 -7.625 6.375 -5.859375 7.40625 -4.640625 C 8.4375 -3.421875 9.804688 -2.8125 11.515625 -2.8125 Z M 11.515625 -2.8125 "/></g></g></g><g fill="#000000" fill-opacity="1"><g transform="translate(337.947895, 47.412666)"><g><path d="M 9.859375 0.359375 C 8.660156 0.359375 7.429688 0.222656 6.171875 -0.046875 C 4.910156 -0.316406 3.75 -0.773438 2.6875 -1.421875 C 2.332031 -1.671875 2.085938 -1.941406 1.953125 -2.234375 C 1.816406 -2.535156 1.769531 -2.84375 1.8125 -3.15625 C 1.851562 -3.46875 1.972656 -3.738281 2.171875 -3.96875 C 2.378906 -4.195312 2.640625 -4.335938 2.953125 -4.390625 C 3.265625 -4.453125 3.597656 -4.382812 3.953125 -4.1875 C 5.003906 -3.59375 6.019531 -3.179688 7 -2.953125 C 7.976562 -2.722656 8.941406 -2.609375 9.890625 -2.609375 C 11.328125 -2.609375 12.410156 -2.863281 13.140625 -3.375 C 13.878906 -3.894531 14.25 -4.585938 14.25 -5.453125 C 14.25 -6.160156 14.003906 -6.710938 13.515625 -7.109375 C 13.023438 -7.503906 12.289062 -7.804688 11.3125 -8.015625 L 7.453125 -8.796875 C 5.765625 -9.148438 4.488281 -9.773438 3.625 -10.671875 C 2.757812 -11.566406 2.328125 -12.707031 2.328125 -14.09375 C 2.328125 -15.34375 2.664062 -16.425781 3.34375 -17.34375 C 4.019531 -18.269531 4.96875 -18.984375 6.1875 -19.484375 C 7.40625 -19.984375 8.816406 -20.234375 10.421875 -20.234375 C 11.617188 -20.234375 12.742188 -20.082031 13.796875 -19.78125 C 14.859375 -19.488281 15.835938 -19.046875 16.734375 -18.453125 C 17.085938 -18.253906 17.316406 -18 17.421875 -17.6875 C 17.535156 -17.375 17.554688 -17.066406 17.484375 -16.765625 C 17.421875 -16.472656 17.28125 -16.210938 17.0625 -15.984375 C 16.84375 -15.753906 16.578125 -15.617188 16.265625 -15.578125 C 15.953125 -15.535156 15.609375 -15.609375 15.234375 -15.796875 C 14.410156 -16.316406 13.597656 -16.679688 12.796875 -16.890625 C 12.003906 -17.109375 11.210938 -17.21875 10.421875 -17.21875 C 8.984375 -17.21875 7.90625 -16.953125 7.1875 -16.421875 C 6.46875 -15.898438 6.109375 -15.191406 6.109375 -14.296875 C 6.109375 -13.617188 6.320312 -13.0625 6.75 -12.625 C 7.1875 -12.1875 7.867188 -11.875 8.796875 -11.6875 L 12.65625 -10.90625 C 14.425781 -10.5625 15.765625 -9.96875 16.671875 -9.125 C 17.578125 -8.28125 18.03125 -7.140625 18.03125 -5.703125 C 18.03125 -3.828125 17.285156 -2.347656 15.796875 -1.265625 C 14.304688 -0.179688 12.328125 0.359375 9.859375 0.359375 Z M 9.859375 0.359375 "/></g></g></g><g fill="#000000" fill-opacity="1"><g transform="translate(153.337228, 90.27314)"><g><path d="M 5.125 0 C 4.695312 0 4.359375 -0.117188 4.109375 -0.359375 C 3.867188 -0.609375 3.75 -0.960938 3.75 -1.421875 L 3.75 -27.28125 C 3.75 -27.738281 3.867188 -28.085938 4.109375 -28.328125 C 4.359375 -28.578125 4.695312 -28.703125 5.125 -28.703125 L 12.984375 -28.703125 C 17.546875 -28.703125 21.066406 -27.476562 23.546875 -25.03125 C 26.035156 -22.59375 27.28125 -19.039062 27.28125 -14.375 C 27.28125 -12.039062 26.960938 -9.976562 26.328125 -8.1875 C 25.691406 -6.394531 24.757812 -4.894531 23.53125 -3.6875 C 22.3125 -2.476562 20.816406 -1.5625 19.046875 -0.9375 C 17.285156 -0.3125 15.265625 0 12.984375 0 Z M 6.234375 -2.203125 L 12.78125 -2.203125 C 14.769531 -2.203125 16.503906 -2.457031 17.984375 -2.96875 C 19.460938 -3.488281 20.6875 -4.25 21.65625 -5.25 C 22.632812 -6.257812 23.367188 -7.53125 23.859375 -9.0625 C 24.347656 -10.59375 24.59375 -12.363281 24.59375 -14.375 C 24.59375 -18.414062 23.609375 -21.445312 21.640625 -23.46875 C 19.671875 -25.5 16.71875 -26.515625 12.78125 -26.515625 L 6.234375 -26.515625 Z M 6.234375 -2.203125 "/></g></g></g><g fill="#000000" fill-opacity="1"><g transform="translate(183.184224, 90.27314)"><g><path d="M 11.84375 0.328125 C 9.8125 0.328125 8.0625 -0.078125 6.59375 -0.890625 C 5.125 -1.710938 3.992188 -2.878906 3.203125 -4.390625 C 2.421875 -5.910156 2.03125 -7.71875 2.03125 -9.8125 C 2.03125 -11.875 2.421875 -13.671875 3.203125 -15.203125 C 3.992188 -16.742188 5.085938 -17.945312 6.484375 -18.8125 C 7.890625 -19.675781 9.5 -20.109375 11.3125 -20.109375 C 12.644531 -20.109375 13.820312 -19.882812 14.84375 -19.4375 C 15.863281 -18.988281 16.734375 -18.347656 17.453125 -17.515625 C 18.171875 -16.691406 18.71875 -15.691406 19.09375 -14.515625 C 19.476562 -13.335938 19.671875 -12 19.671875 -10.5 C 19.671875 -10.125 19.566406 -9.835938 19.359375 -9.640625 C 19.160156 -9.453125 18.882812 -9.359375 18.53125 -9.359375 L 3.828125 -9.359375 L 3.828125 -11.203125 L 18.125 -11.203125 L 17.46875 -10.671875 C 17.46875 -12.242188 17.234375 -13.578125 16.765625 -14.671875 C 16.304688 -15.773438 15.625 -16.625 14.71875 -17.21875 C 13.8125 -17.820312 12.691406 -18.125 11.359375 -18.125 C 9.867188 -18.125 8.609375 -17.773438 7.578125 -17.078125 C 6.546875 -16.390625 5.769531 -15.441406 5.25 -14.234375 C 4.738281 -13.023438 4.484375 -11.632812 4.484375 -10.0625 L 4.484375 -9.859375 C 4.484375 -7.242188 5.117188 -5.238281 6.390625 -3.84375 C 7.671875 -2.445312 9.460938 -1.75 11.765625 -1.75 C 12.773438 -1.75 13.742188 -1.882812 14.671875 -2.15625 C 15.609375 -2.425781 16.523438 -2.890625 17.421875 -3.546875 C 17.691406 -3.734375 17.957031 -3.828125 18.21875 -3.828125 C 18.476562 -3.828125 18.695312 -3.757812 18.875 -3.625 C 19.050781 -3.488281 19.171875 -3.316406 19.234375 -3.109375 C 19.304688 -2.910156 19.296875 -2.695312 19.203125 -2.46875 C 19.109375 -2.238281 18.925781 -2.023438 18.65625 -1.828125 C 17.78125 -1.128906 16.734375 -0.59375 15.515625 -0.21875 C 14.296875 0.144531 13.070312 0.328125 11.84375 0.328125 Z M 11.84375 0.328125 "/></g></g></g><g fill="#000000" fill-opacity="1"><g transform="translate(204.643122, 90.27314)"><g><path d="M 10.390625 0.25 C 9.972656 0.25 9.628906 0.140625 9.359375 -0.078125 C 9.085938 -0.296875 8.84375 -0.625 8.625 -1.0625 L 1.296875 -18.15625 C 1.160156 -18.488281 1.113281 -18.796875 1.15625 -19.078125 C 1.195312 -19.359375 1.316406 -19.585938 1.515625 -19.765625 C 1.722656 -19.941406 2.019531 -20.03125 2.40625 -20.03125 C 2.757812 -20.03125 3.023438 -19.945312 3.203125 -19.78125 C 3.378906 -19.625 3.535156 -19.367188 3.671875 -19.015625 L 10.90625 -1.5 L 9.890625 -1.5 L 17.1875 -19.015625 C 17.320312 -19.367188 17.484375 -19.625 17.671875 -19.78125 C 17.859375 -19.945312 18.128906 -20.03125 18.484375 -20.03125 C 18.835938 -20.03125 19.101562 -19.941406 19.28125 -19.765625 C 19.457031 -19.585938 19.554688 -19.363281 19.578125 -19.09375 C 19.609375 -18.820312 19.554688 -18.523438 19.421875 -18.203125 L 12.09375 -1.0625 C 11.925781 -0.625 11.691406 -0.296875 11.390625 -0.078125 C 11.097656 0.140625 10.765625 0.25 10.390625 0.25 Z M 10.390625 0.25 "/></g></g></g><g fill="#000000" fill-opacity="1"><g transform="translate(225.369071, 90.27314)"><g><path d="M 11.84375 0.328125 C 9.8125 0.328125 8.0625 -0.078125 6.59375 -0.890625 C 5.125 -1.710938 3.992188 -2.878906 3.203125 -4.390625 C 2.421875 -5.910156 2.03125 -7.71875 2.03125 -9.8125 C 2.03125 -11.875 2.421875 -13.671875 3.203125 -15.203125 C 3.992188 -16.742188 5.085938 -17.945312 6.484375 -18.8125 C 7.890625 -19.675781 9.5 -20.109375 11.3125 -20.109375 C 12.644531 -20.109375 13.820312 -19.882812 14.84375 -19.4375 C 15.863281 -18.988281 16.734375 -18.347656 17.453125 -17.515625 C 18.171875 -16.691406 18.71875 -15.691406 19.09375 -14.515625 C 19.476562 -13.335938 19.671875 -12 19.671875 -10.5 C 19.671875 -10.125 19.566406 -9.835938 19.359375 -9.640625 C 19.160156 -9.453125 18.882812 -9.359375 18.53125 -9.359375 L 3.828125 -9.359375 L 3.828125 -11.203125 L 18.125 -11.203125 L 17.46875 -10.671875 C 17.46875 -12.242188 17.234375 -13.578125 16.765625 -14.671875 C 16.304688 -15.773438 15.625 -16.625 14.71875 -17.21875 C 13.8125 -17.820312 12.691406 -18.125 11.359375 -18.125 C 9.867188 -18.125 8.609375 -17.773438 7.578125 -17.078125 C 6.546875 -16.390625 5.769531 -15.441406 5.25 -14.234375 C 4.738281 -13.023438 4.484375 -11.632812 4.484375 -10.0625 L 4.484375 -9.859375 C 4.484375 -7.242188 5.117188 -5.238281 6.390625 -3.84375 C 7.671875 -2.445312 9.460938 -1.75 11.765625 -1.75 C 12.773438 -1.75 13.742188 -1.882812 14.671875 -2.15625 C 15.609375 -2.425781 16.523438 -2.890625 17.421875 -3.546875 C 17.691406 -3.734375 17.957031 -3.828125 18.21875 -3.828125 C 18.476562 -3.828125 18.695312 -3.757812 18.875 -3.625 C 19.050781 -3.488281 19.171875 -3.316406 19.234375 -3.109375 C 19.304688 -2.910156 19.296875 -2.695312 19.203125 -2.46875 C 19.109375 -2.238281 18.925781 -2.023438 18.65625 -1.828125 C 17.78125 -1.128906 16.734375 -0.59375 15.515625 -0.21875 C 14.296875 0.144531 13.070312 0.328125 11.84375 0.328125 Z M 11.84375 0.328125 "/></g></g></g><g fill="#000000" fill-opacity="1"><g transform="translate(246.827968, 90.27314)"><g><path d="M 8.953125 0.328125 C 7.140625 0.328125 5.734375 -0.238281 4.734375 -1.375 C 3.742188 -2.519531 3.25 -4.140625 3.25 -6.234375 L 3.25 -27.6875 C 3.25 -28.125 3.359375 -28.441406 3.578125 -28.640625 C 3.796875 -28.847656 4.109375 -28.953125 4.515625 -28.953125 C 4.898438 -28.953125 5.195312 -28.847656 5.40625 -28.640625 C 5.625 -28.441406 5.734375 -28.125 5.734375 -27.6875 L 5.734375 -6.515625 C 5.734375 -4.941406 6.046875 -3.765625 6.671875 -2.984375 C 7.296875 -2.210938 8.207031 -1.828125 9.40625 -1.828125 C 9.675781 -1.828125 9.90625 -1.835938 10.09375 -1.859375 C 10.289062 -1.890625 10.484375 -1.90625 10.671875 -1.90625 C 10.910156 -1.9375 11.09375 -1.890625 11.21875 -1.765625 C 11.34375 -1.648438 11.40625 -1.398438 11.40625 -1.015625 C 11.40625 -0.640625 11.304688 -0.351562 11.109375 -0.15625 C 10.921875 0.03125 10.613281 0.164062 10.1875 0.25 C 9.988281 0.269531 9.785156 0.285156 9.578125 0.296875 C 9.378906 0.316406 9.171875 0.328125 8.953125 0.328125 Z M 8.953125 0.328125 "/></g></g></g><g fill="#000000" fill-opacity="1"><g transform="translate(258.432869, 90.27314)"><g><path d="M 11.109375 0.328125 C 9.265625 0.328125 7.664062 -0.09375 6.3125 -0.9375 C 4.957031 -1.78125 3.90625 -2.960938 3.15625 -4.484375 C 2.40625 -6.003906 2.03125 -7.804688 2.03125 -9.890625 C 2.03125 -11.441406 2.238281 -12.84375 2.65625 -14.09375 C 3.082031 -15.34375 3.695312 -16.421875 4.5 -17.328125 C 5.300781 -18.234375 6.265625 -18.921875 7.390625 -19.390625 C 8.515625 -19.867188 9.753906 -20.109375 11.109375 -20.109375 C 12.984375 -20.109375 14.597656 -19.6875 15.953125 -18.84375 C 17.316406 -18.007812 18.367188 -16.820312 19.109375 -15.28125 C 19.859375 -13.75 20.234375 -11.953125 20.234375 -9.890625 C 20.234375 -8.316406 20.019531 -6.90625 19.59375 -5.65625 C 19.175781 -4.40625 18.566406 -3.332031 17.765625 -2.4375 C 16.972656 -1.539062 16.019531 -0.851562 14.90625 -0.375 C 13.789062 0.09375 12.523438 0.328125 11.109375 0.328125 Z M 11.109375 -1.75 C 12.472656 -1.75 13.648438 -2.066406 14.640625 -2.703125 C 15.628906 -3.347656 16.390625 -4.28125 16.921875 -5.5 C 17.453125 -6.71875 17.71875 -8.179688 17.71875 -9.890625 C 17.71875 -12.472656 17.125 -14.46875 15.9375 -15.875 C 14.757812 -17.289062 13.148438 -18 11.109375 -18 C 9.785156 -18 8.628906 -17.675781 7.640625 -17.03125 C 6.648438 -16.394531 5.890625 -15.472656 5.359375 -14.265625 C 4.828125 -13.054688 4.5625 -11.597656 4.5625 -9.890625 C 4.5625 -7.285156 5.15625 -5.273438 6.34375 -3.859375 C 7.539062 -2.453125 9.128906 -1.75 11.109375 -1.75 Z M 11.109375 -1.75 "/></g></g></g><g fill="#000000" fill-opacity="1"><g transform="translate(280.706145, 90.27314)"><g><path d="M 4.515625 7.578125 C 4.109375 7.578125 3.796875 7.46875 3.578125 7.25 C 3.359375 7.03125 3.25 6.71875 3.25 6.3125 L 3.25 -18.734375 C 3.25 -19.160156 3.359375 -19.484375 3.578125 -19.703125 C 3.796875 -19.921875 4.109375 -20.03125 4.515625 -20.03125 C 4.898438 -20.03125 5.195312 -19.921875 5.40625 -19.703125 C 5.625 -19.484375 5.734375 -19.160156 5.734375 -18.734375 L 5.734375 -14.578125 L 5.296875 -14.828125 C 5.753906 -16.453125 6.632812 -17.738281 7.9375 -18.6875 C 9.238281 -19.632812 10.8125 -20.109375 12.65625 -20.109375 C 14.425781 -20.109375 15.96875 -19.6875 17.28125 -18.84375 C 18.601562 -18.007812 19.625 -16.832031 20.34375 -15.3125 C 21.0625 -13.789062 21.421875 -11.984375 21.421875 -9.890625 C 21.421875 -7.804688 21.0625 -5.992188 20.34375 -4.453125 C 19.625 -2.921875 18.609375 -1.738281 17.296875 -0.90625 C 15.992188 -0.0820312 14.445312 0.328125 12.65625 0.328125 C 10.8125 0.328125 9.238281 -0.144531 7.9375 -1.09375 C 6.632812 -2.050781 5.753906 -3.316406 5.296875 -4.890625 L 5.734375 -4.890625 L 5.734375 6.3125 C 5.734375 6.71875 5.625 7.03125 5.40625 7.25 C 5.195312 7.46875 4.898438 7.578125 4.515625 7.578125 Z M 12.296875 -1.75 C 13.628906 -1.75 14.789062 -2.066406 15.78125 -2.703125 C 16.769531 -3.347656 17.535156 -4.28125 18.078125 -5.5 C 18.617188 -6.71875 18.890625 -8.179688 18.890625 -9.890625 C 18.890625 -12.472656 18.289062 -14.46875 17.09375 -15.875 C 15.90625 -17.289062 14.304688 -18 12.296875 -18 C 10.960938 -18 9.800781 -17.675781 8.8125 -17.03125 C 7.820312 -16.394531 7.054688 -15.472656 6.515625 -14.265625 C 5.972656 -13.054688 5.703125 -11.597656 5.703125 -9.890625 C 5.703125 -7.285156 6.296875 -5.273438 7.484375 -3.859375 C 8.679688 -2.453125 10.285156 -1.75 12.296875 -1.75 Z M 12.296875 -1.75 "/></g></g></g><g fill="#000000" fill-opacity="1"><g transform="translate(304.119547, 90.27314)"><g><path d="M 11.84375 0.328125 C 9.8125 0.328125 8.0625 -0.078125 6.59375 -0.890625 C 5.125 -1.710938 3.992188 -2.878906 3.203125 -4.390625 C 2.421875 -5.910156 2.03125 -7.71875 2.03125 -9.8125 C 2.03125 -11.875 2.421875 -13.671875 3.203125 -15.203125 C 3.992188 -16.742188 5.085938 -17.945312 6.484375 -18.8125 C 7.890625 -19.675781 9.5 -20.109375 11.3125 -20.109375 C 12.644531 -20.109375 13.820312 -19.882812 14.84375 -19.4375 C 15.863281 -18.988281 16.734375 -18.347656 17.453125 -17.515625 C 18.171875 -16.691406 18.71875 -15.691406 19.09375 -14.515625 C 19.476562 -13.335938 19.671875 -12 19.671875 -10.5 C 19.671875 -10.125 19.566406 -9.835938 19.359375 -9.640625 C 19.160156 -9.453125 18.882812 -9.359375 18.53125 -9.359375 L 3.828125 -9.359375 L 3.828125 -11.203125 L 18.125 -11.203125 L 17.46875 -10.671875 C 17.46875 -12.242188 17.234375 -13.578125 16.765625 -14.671875 C 16.304688 -15.773438 15.625 -16.625 14.71875 -17.21875 C 13.8125 -17.820312 12.691406 -18.125 11.359375 -18.125 C 9.867188 -18.125 8.609375 -17.773438 7.578125 -17.078125 C 6.546875 -16.390625 5.769531 -15.441406 5.25 -14.234375 C 4.738281 -13.023438 4.484375 -11.632812 4.484375 -10.0625 L 4.484375 -9.859375 C 4.484375 -7.242188 5.117188 -5.238281 6.390625 -3.84375 C 7.671875 -2.445312 9.460938 -1.75 11.765625 -1.75 C 12.773438 -1.75 13.742188 -1.882812 14.671875 -2.15625 C 15.609375 -2.425781 16.523438 -2.890625 17.421875 -3.546875 C 17.691406 -3.734375 17.957031 -3.828125 18.21875 -3.828125 C 18.476562 -3.828125 18.695312 -3.757812 18.875 -3.625 C 19.050781 -3.488281 19.171875 -3.316406 19.234375 -3.109375 C 19.304688 -2.910156 19.296875 -2.695312 19.203125 -2.46875 C 19.109375 -2.238281 18.925781 -2.023438 18.65625 -1.828125 C 17.78125 -1.128906 16.734375 -0.59375 15.515625 -0.21875 C 14.296875 0.144531 13.070312 0.328125 11.84375 0.328125 Z M 11.84375 0.328125 "/></g></g></g><g fill="#000000" fill-opacity="1"><g transform="translate(325.578445, 90.27314)"><g><path d="M 4.515625 0.25 C 4.109375 0.25 3.796875 0.140625 3.578125 -0.078125 C 3.359375 -0.296875 3.25 -0.609375 3.25 -1.015625 L 3.25 -18.734375 C 3.25 -19.160156 3.359375 -19.484375 3.578125 -19.703125 C 3.796875 -19.921875 4.109375 -20.03125 4.515625 -20.03125 C 4.898438 -20.03125 5.191406 -19.921875 5.390625 -19.703125 C 5.597656 -19.484375 5.703125 -19.160156 5.703125 -18.734375 L 5.703125 -15.109375 L 5.296875 -15.109375 C 5.785156 -16.710938 6.660156 -17.945312 7.921875 -18.8125 C 9.179688 -19.675781 10.691406 -20.125 12.453125 -20.15625 C 12.785156 -20.1875 13.054688 -20.117188 13.265625 -19.953125 C 13.484375 -19.785156 13.59375 -19.523438 13.59375 -19.171875 C 13.625 -18.796875 13.546875 -18.503906 13.359375 -18.296875 C 13.171875 -18.097656 12.859375 -17.972656 12.421875 -17.921875 L 11.84375 -17.875 C 9.914062 -17.6875 8.421875 -17.046875 7.359375 -15.953125 C 6.304688 -14.867188 5.78125 -13.40625 5.78125 -11.5625 L 5.78125 -1.015625 C 5.78125 -0.609375 5.675781 -0.296875 5.46875 -0.078125 C 5.269531 0.140625 4.953125 0.25 4.515625 0.25 Z M 4.515625 0.25 "/></g></g></g></svg>