<svg xmlns="http://www.w3.org/2000/svg" xmlns:xlink="http://www.w3.org/1999/xlink" width="473" zoomAndPan="magnify" viewBox="0 0 354.75 110.999996" height="148" preserveAspectRatio="xMidYMid meet" version="1.0"><defs><g/><clipPath id="4c32fba367"><path d="M 0 7.867188 L 102.675781 7.867188 L 102.675781 110.542969 L 0 110.542969 Z M 0 7.867188 " clip-rule="nonzero"/></clipPath></defs><g clip-path="url(#4c32fba367)"><path fill="#eceff4" d="M 93.835938 7.867188 L 9.039062 7.867188 C 8.441406 7.867188 7.851562 7.925781 7.265625 8.039062 C 6.679688 8.15625 6.113281 8.328125 5.5625 8.554688 C 5.011719 8.785156 4.488281 9.0625 3.992188 9.394531 C 3.496094 9.726562 3.035156 10.101562 2.613281 10.523438 C 2.191406 10.945312 1.8125 11.402344 1.480469 11.898438 C 1.148438 12.394531 0.871094 12.917969 0.640625 13.46875 C 0.410156 14.019531 0.238281 14.585938 0.121094 15.171875 C 0.00390625 15.753906 -0.0546875 16.347656 -0.0585938 16.941406 L -0.0585938 86.503906 C -0.0546875 87.101562 0.00390625 87.691406 0.121094 88.277344 C 0.238281 88.863281 0.410156 89.429688 0.640625 89.980469 C 0.871094 90.53125 1.148438 91.054688 1.480469 91.550781 C 1.8125 92.042969 2.191406 92.503906 2.613281 92.925781 C 3.035156 93.34375 3.496094 93.722656 3.992188 94.050781 C 4.488281 94.382812 5.011719 94.664062 5.5625 94.890625 C 6.113281 95.117188 6.679688 95.292969 7.265625 95.40625 C 7.851562 95.523438 8.441406 95.582031 9.039062 95.582031 L 37.640625 95.582031 L 34.78125 107.023438 L 28.546875 107.023438 L 28.546875 110.835938 L 74.308594 110.835938 L 74.308594 107.023438 L 68.171875 107.023438 L 65.308594 95.582031 L 93.914062 95.582031 C 94.507812 95.582031 95.097656 95.519531 95.683594 95.402344 C 96.265625 95.285156 96.832031 95.113281 97.382812 94.886719 C 97.933594 94.65625 98.457031 94.378906 98.949219 94.046875 C 99.445312 93.714844 99.902344 93.339844 100.324219 92.917969 C 100.746094 92.496094 101.121094 92.039062 101.453125 91.542969 C 101.785156 91.046875 102.066406 90.527344 102.292969 89.976562 C 102.523438 89.425781 102.695312 88.859375 102.8125 88.273438 C 102.929688 87.691406 102.988281 87.101562 102.988281 86.503906 L 102.988281 16.941406 C 102.988281 16.34375 102.929688 15.75 102.808594 15.164062 C 102.691406 14.578125 102.515625 14.007812 102.285156 13.453125 C 102.054688 12.902344 101.773438 12.378906 101.4375 11.878906 C 101.105469 11.382812 100.722656 10.925781 100.296875 10.503906 C 99.875 10.082031 99.410156 9.707031 98.910156 9.375 C 98.410156 9.042969 97.886719 8.765625 97.332031 8.539062 C 96.777344 8.3125 96.203125 8.144531 95.617188 8.03125 C 95.027344 7.917969 94.433594 7.863281 93.835938 7.867188 Z M 64.242188 107.023438 L 38.613281 107.023438 L 41.472656 95.582031 L 61.382812 95.582031 Z M 99.097656 86.503906 C 99.097656 86.851562 99.0625 87.191406 98.996094 87.53125 C 98.925781 87.867188 98.828125 88.199219 98.695312 88.515625 C 98.5625 88.835938 98.398438 89.136719 98.207031 89.425781 C 98.015625 89.710938 97.796875 89.976562 97.550781 90.222656 C 97.308594 90.464844 97.042969 90.683594 96.757812 90.875 C 96.46875 91.066406 96.167969 91.230469 95.847656 91.363281 C 95.527344 91.496094 95.199219 91.59375 94.863281 91.664062 C 94.523438 91.730469 94.183594 91.765625 93.835938 91.769531 L 9.039062 91.769531 C 8.691406 91.769531 8.351562 91.734375 8.011719 91.667969 C 7.671875 91.597656 7.339844 91.5 7.023438 91.367188 C 6.703125 91.234375 6.398438 91.074219 6.109375 90.882812 C 5.820312 90.691406 5.554688 90.472656 5.308594 90.226562 C 5.066406 89.984375 4.847656 89.71875 4.652344 89.429688 C 4.460938 89.144531 4.296875 88.839844 4.164062 88.519531 C 4.03125 88.199219 3.929688 87.871094 3.859375 87.53125 C 3.792969 87.195312 3.757812 86.851562 3.757812 86.503906 L 3.757812 72.699219 L 66.683594 72.699219 L 66.683594 68.886719 L 3.757812 68.886719 L 3.757812 16.941406 C 3.757812 16.597656 3.792969 16.253906 3.859375 15.914062 C 3.929688 15.574219 4.03125 15.246094 4.164062 14.925781 C 4.296875 14.609375 4.460938 14.304688 4.652344 14.015625 C 4.847656 13.730469 5.066406 13.464844 5.308594 13.21875 C 5.554688 12.976562 5.820312 12.757812 6.109375 12.566406 C 6.398438 12.375 6.703125 12.210938 7.023438 12.078125 C 7.339844 11.949219 7.671875 11.847656 8.011719 11.78125 C 8.351562 11.714844 8.691406 11.679688 9.039062 11.679688 L 93.835938 11.679688 C 94.183594 11.679688 94.523438 11.714844 94.863281 11.785156 C 95.199219 11.851562 95.527344 11.953125 95.847656 12.085938 C 96.167969 12.21875 96.46875 12.378906 96.757812 12.574219 C 97.042969 12.765625 97.308594 12.984375 97.550781 13.226562 C 97.796875 13.472656 98.015625 13.738281 98.207031 14.023438 C 98.398438 14.308594 98.5625 14.613281 98.695312 14.933594 C 98.828125 15.25 98.925781 15.578125 98.996094 15.917969 C 99.0625 16.253906 99.097656 16.597656 99.097656 16.941406 Z M 47.613281 80.328125 L 55.242188 80.328125 L 55.242188 84.140625 L 47.613281 84.140625 Z M 33.714844 26.382812 L 19.832031 40.28125 L 33.730469 54.183594 L 31.042969 56.890625 L 15.789062 41.636719 C 15.609375 41.457031 15.46875 41.25 15.371094 41.015625 C 15.273438 40.78125 15.226562 40.535156 15.226562 40.28125 C 15.226562 40.027344 15.273438 39.785156 15.371094 39.550781 C 15.46875 39.316406 15.609375 39.109375 15.789062 38.929688 L 31.042969 23.675781 Z M 87.105469 41.636719 L 71.851562 56.890625 L 69.160156 54.183594 L 83.0625 40.28125 L 69.160156 26.382812 L 71.851562 23.675781 L 87.105469 38.929688 C 87.285156 39.109375 87.425781 39.316406 87.523438 39.550781 C 87.621094 39.785156 87.667969 40.027344 87.667969 40.28125 C 87.667969 40.535156 87.621094 40.78125 87.523438 41.015625 C 87.425781 41.25 87.285156 41.457031 87.105469 41.636719 Z M 57.28125 20.507812 L 60.828125 21.917969 L 45.574219 60.058594 L 42.027344 58.644531 Z M 93.378906 70.792969 C 93.378906 71.296875 93.28125 71.785156 93.089844 72.25 C 92.894531 72.71875 92.621094 73.132812 92.261719 73.488281 C 91.902344 73.847656 91.492188 74.121094 91.023438 74.316406 C 90.558594 74.507812 90.070312 74.605469 89.566406 74.605469 C 89.058594 74.605469 88.574219 74.507812 88.105469 74.316406 C 87.636719 74.121094 87.226562 73.847656 86.867188 73.488281 C 86.511719 73.132812 86.234375 72.71875 86.042969 72.25 C 85.847656 71.785156 85.75 71.296875 85.75 70.792969 C 85.75 70.285156 85.847656 69.800781 86.042969 69.332031 C 86.234375 68.867188 86.511719 68.453125 86.867188 68.097656 C 87.226562 67.738281 87.636719 67.460938 88.105469 67.269531 C 88.574219 67.074219 89.058594 66.980469 89.566406 66.980469 C 90.070312 66.980469 90.558594 67.074219 91.023438 67.269531 C 91.492188 67.460938 91.902344 67.738281 92.261719 68.097656 C 92.621094 68.453125 92.894531 68.867188 93.089844 69.332031 C 93.28125 69.800781 93.378906 70.285156 93.378906 70.792969 Z M 81.9375 70.792969 C 81.9375 71.296875 81.839844 71.785156 81.648438 72.25 C 81.453125 72.71875 81.179688 73.132812 80.820312 73.488281 C 80.464844 73.847656 80.050781 74.121094 79.582031 74.316406 C 79.117188 74.507812 78.628906 74.605469 78.125 74.605469 C 77.617188 74.605469 77.132812 74.507812 76.664062 74.316406 C 76.199219 74.121094 75.785156 73.847656 75.425781 73.488281 C 75.070312 73.132812 74.792969 72.71875 74.601562 72.25 C 74.40625 71.785156 74.308594 71.296875 74.308594 70.792969 C 74.308594 70.285156 74.40625 69.800781 74.601562 69.332031 C 74.792969 68.867188 75.070312 68.453125 75.425781 68.097656 C 75.785156 67.738281 76.199219 67.460938 76.664062 67.269531 C 77.132812 67.074219 77.617188 66.980469 78.125 66.980469 C 78.628906 66.980469 79.117188 67.074219 79.582031 67.269531 C 80.050781 67.460938 80.464844 67.738281 80.820312 68.097656 C 81.179688 68.453125 81.453125 68.867188 81.648438 69.332031 C 81.839844 69.800781 81.9375 70.285156 81.9375 70.792969 Z M 81.9375 70.792969 " fill-opacity="1" fill-rule="nonzero"/></g><g fill="#eceff4" fill-opacity="1"><g transform="translate(111.300646, 47.709033)"><g><path d="M 5.65625 0 C 4.914062 0 4.347656 -0.195312 3.953125 -0.59375 C 3.554688 -0.988281 3.359375 -1.554688 3.359375 -2.296875 L 3.359375 -26.5625 C 3.359375 -27.300781 3.554688 -27.867188 3.953125 -28.265625 C 4.347656 -28.660156 4.914062 -28.859375 5.65625 -28.859375 L 13.546875 -28.859375 C 18.296875 -28.859375 21.957031 -27.625 24.53125 -25.15625 C 27.113281 -22.6875 28.40625 -19.117188 28.40625 -14.453125 C 28.40625 -12.128906 28.078125 -10.066406 27.421875 -8.265625 C 26.773438 -6.460938 25.816406 -4.953125 24.546875 -3.734375 C 23.273438 -2.523438 21.722656 -1.597656 19.890625 -0.953125 C 18.066406 -0.316406 15.953125 0 13.546875 0 Z M 7.609375 -3.5625 L 13.296875 -3.5625 C 15.097656 -3.5625 16.660156 -3.785156 17.984375 -4.234375 C 19.316406 -4.679688 20.429688 -5.351562 21.328125 -6.25 C 22.222656 -7.15625 22.890625 -8.289062 23.328125 -9.65625 C 23.765625 -11.019531 23.984375 -12.617188 23.984375 -14.453125 C 23.984375 -18.078125 23.085938 -20.789062 21.296875 -22.59375 C 19.515625 -24.394531 16.847656 -25.296875 13.296875 -25.296875 L 7.609375 -25.296875 Z M 7.609375 -3.5625 "/></g></g></g><g fill="#eceff4" fill-opacity="1"><g transform="translate(142.046533, 47.709033)"><g><path d="M 9.296875 0.375 C 7.898438 0.375 6.648438 0.101562 5.546875 -0.4375 C 4.441406 -0.988281 3.570312 -1.726562 2.9375 -2.65625 C 2.3125 -3.582031 2 -4.632812 2 -5.8125 C 2 -7.289062 2.375 -8.457031 3.125 -9.3125 C 3.875 -10.175781 5.113281 -10.789062 6.84375 -11.15625 C 8.582031 -11.519531 10.925781 -11.703125 13.875 -11.703125 L 15.796875 -11.703125 L 15.796875 -9.171875 L 13.921875 -9.171875 C 11.953125 -9.171875 10.394531 -9.070312 9.25 -8.875 C 8.101562 -8.6875 7.289062 -8.367188 6.8125 -7.921875 C 6.332031 -7.472656 6.09375 -6.851562 6.09375 -6.0625 C 6.09375 -5.019531 6.445312 -4.175781 7.15625 -3.53125 C 7.875 -2.894531 8.859375 -2.578125 10.109375 -2.578125 C 11.117188 -2.578125 12.003906 -2.816406 12.765625 -3.296875 C 13.535156 -3.773438 14.144531 -4.421875 14.59375 -5.234375 C 15.039062 -6.054688 15.265625 -7 15.265625 -8.0625 L 15.265625 -12.765625 C 15.265625 -14.328125 14.9375 -15.445312 14.28125 -16.125 C 13.625 -16.8125 12.546875 -17.15625 11.046875 -17.15625 C 10.179688 -17.15625 9.273438 -17.046875 8.328125 -16.828125 C 7.390625 -16.609375 6.414062 -16.238281 5.40625 -15.71875 C 4.9375 -15.5 4.535156 -15.429688 4.203125 -15.515625 C 3.878906 -15.597656 3.625 -15.78125 3.4375 -16.0625 C 3.25 -16.351562 3.144531 -16.664062 3.125 -17 C 3.113281 -17.34375 3.195312 -17.675781 3.375 -18 C 3.550781 -18.332031 3.859375 -18.582031 4.296875 -18.75 C 5.492188 -19.320312 6.679688 -19.726562 7.859375 -19.96875 C 9.035156 -20.21875 10.140625 -20.34375 11.171875 -20.34375 C 13.003906 -20.34375 14.515625 -20.054688 15.703125 -19.484375 C 16.890625 -18.910156 17.769531 -18.035156 18.34375 -16.859375 C 18.914062 -15.691406 19.203125 -14.179688 19.203125 -12.328125 L 19.203125 -1.796875 C 19.203125 -1.140625 19.035156 -0.628906 18.703125 -0.265625 C 18.378906 0.0976562 17.90625 0.28125 17.28125 0.28125 C 16.675781 0.28125 16.195312 0.0976562 15.84375 -0.265625 C 15.488281 -0.628906 15.3125 -1.140625 15.3125 -1.796875 L 15.3125 -4.46875 L 15.671875 -4.46875 C 15.453125 -3.457031 15.050781 -2.585938 14.46875 -1.859375 C 13.882812 -1.140625 13.15625 -0.585938 12.28125 -0.203125 C 11.40625 0.179688 10.410156 0.375 9.296875 0.375 Z M 9.296875 0.375 "/></g></g></g><g fill="#eceff4" fill-opacity="1"><g transform="translate(164.031275, 47.709033)"><g><path d="M 10.640625 0.28125 C 10.066406 0.28125 9.566406 0.132812 9.140625 -0.15625 C 8.722656 -0.457031 8.378906 -0.925781 8.109375 -1.5625 L 1.265625 -17.4375 C 1.046875 -17.925781 0.960938 -18.390625 1.015625 -18.828125 C 1.078125 -19.265625 1.285156 -19.613281 1.640625 -19.875 C 1.992188 -20.132812 2.46875 -20.265625 3.0625 -20.265625 C 3.582031 -20.265625 3.992188 -20.140625 4.296875 -19.890625 C 4.597656 -19.648438 4.867188 -19.226562 5.109375 -18.625 L 11.296875 -3.390625 L 10.15625 -3.390625 L 16.453125 -18.625 C 16.703125 -19.226562 16.984375 -19.648438 17.296875 -19.890625 C 17.609375 -20.140625 18.050781 -20.265625 18.625 -20.265625 C 19.113281 -20.265625 19.5 -20.132812 19.78125 -19.875 C 20.070312 -19.613281 20.25 -19.269531 20.3125 -18.84375 C 20.382812 -18.425781 20.3125 -17.972656 20.09375 -17.484375 L 13.1875 -1.5625 C 12.9375 -0.925781 12.59375 -0.457031 12.15625 -0.15625 C 11.71875 0.132812 11.210938 0.28125 10.640625 0.28125 Z M 10.640625 0.28125 "/></g></g></g><g fill="#eceff4" fill-opacity="1"><g transform="translate(185.320032, 47.709033)"><g><path d="M 4.953125 0.25 C 4.296875 0.25 3.789062 0.0507812 3.4375 -0.34375 C 3.082031 -0.738281 2.90625 -1.289062 2.90625 -2 L 2.90625 -17.96875 C 2.90625 -18.675781 3.082031 -19.222656 3.4375 -19.609375 C 3.789062 -19.992188 4.296875 -20.1875 4.953125 -20.1875 C 5.609375 -20.1875 6.117188 -19.992188 6.484375 -19.609375 C 6.859375 -19.222656 7.046875 -18.675781 7.046875 -17.96875 L 7.046875 -2 C 7.046875 -1.289062 6.867188 -0.738281 6.515625 -0.34375 C 6.160156 0.0507812 5.640625 0.25 4.953125 0.25 Z M 4.953125 -24.4375 C 4.128906 -24.4375 3.492188 -24.640625 3.046875 -25.046875 C 2.597656 -25.460938 2.375 -26.035156 2.375 -26.765625 C 2.375 -27.535156 2.597656 -28.117188 3.046875 -28.515625 C 3.492188 -28.910156 4.128906 -29.109375 4.953125 -29.109375 C 5.773438 -29.109375 6.410156 -28.910156 6.859375 -28.515625 C 7.304688 -28.117188 7.53125 -27.535156 7.53125 -26.765625 C 7.53125 -26.035156 7.304688 -25.460938 6.859375 -25.046875 C 6.410156 -24.640625 5.773438 -24.4375 4.953125 -24.4375 Z M 4.953125 -24.4375 "/></g></g></g><g fill="#eceff4" fill-opacity="1"><g transform="translate(195.268431, 47.709033)"><g/></g></g><g fill="#eceff4" fill-opacity="1"><g transform="translate(206.076568, 47.709033)"><g><path d="M 12.984375 0.375 C 11.722656 0.375 10.488281 0.273438 9.28125 0.078125 C 8.082031 -0.109375 6.953125 -0.398438 5.890625 -0.796875 C 4.828125 -1.191406 3.875 -1.675781 3.03125 -2.25 C 2.625 -2.550781 2.34375 -2.890625 2.1875 -3.265625 C 2.039062 -3.648438 2 -4.023438 2.0625 -4.390625 C 2.132812 -4.765625 2.289062 -5.085938 2.53125 -5.359375 C 2.78125 -5.628906 3.082031 -5.800781 3.4375 -5.875 C 3.789062 -5.945312 4.1875 -5.832031 4.625 -5.53125 C 5.851562 -4.738281 7.148438 -4.15625 8.515625 -3.78125 C 9.878906 -3.414062 11.367188 -3.234375 12.984375 -3.234375 C 15.296875 -3.234375 17.003906 -3.648438 18.109375 -4.484375 C 19.210938 -5.316406 19.765625 -6.398438 19.765625 -7.734375 C 19.765625 -8.828125 19.367188 -9.691406 18.578125 -10.328125 C 17.785156 -10.972656 16.460938 -11.488281 14.609375 -11.875 L 10.234375 -12.765625 C 7.640625 -13.316406 5.707031 -14.21875 4.4375 -15.46875 C 3.164062 -16.726562 2.53125 -18.421875 2.53125 -20.546875 C 2.53125 -21.828125 2.796875 -23 3.328125 -24.0625 C 3.867188 -25.132812 4.613281 -26.054688 5.5625 -26.828125 C 6.519531 -27.609375 7.664062 -28.203125 9 -28.609375 C 10.34375 -29.023438 11.804688 -29.234375 13.390625 -29.234375 C 15.078125 -29.234375 16.664062 -29.015625 18.15625 -28.578125 C 19.644531 -28.140625 20.972656 -27.46875 22.140625 -26.5625 C 22.492188 -26.320312 22.734375 -26.015625 22.859375 -25.640625 C 22.984375 -25.273438 23.007812 -24.914062 22.9375 -24.5625 C 22.875 -24.207031 22.71875 -23.90625 22.46875 -23.65625 C 22.226562 -23.414062 21.914062 -23.273438 21.53125 -23.234375 C 21.144531 -23.191406 20.722656 -23.320312 20.265625 -23.625 C 19.203125 -24.332031 18.113281 -24.84375 17 -25.15625 C 15.894531 -25.46875 14.675781 -25.625 13.34375 -25.625 C 12.007812 -25.625 10.84375 -25.421875 9.84375 -25.015625 C 8.84375 -24.609375 8.078125 -24.035156 7.546875 -23.296875 C 7.015625 -22.554688 6.75 -21.679688 6.75 -20.671875 C 6.75 -19.523438 7.117188 -18.609375 7.859375 -17.921875 C 8.597656 -17.242188 9.828125 -16.726562 11.546875 -16.375 L 15.890625 -15.46875 C 18.617188 -14.894531 20.648438 -14.007812 21.984375 -12.8125 C 23.316406 -11.613281 23.984375 -10.019531 23.984375 -8.03125 C 23.984375 -6.738281 23.722656 -5.582031 23.203125 -4.5625 C 22.691406 -3.539062 21.957031 -2.660156 21 -1.921875 C 20.039062 -1.179688 18.882812 -0.613281 17.53125 -0.21875 C 16.1875 0.175781 14.671875 0.375 12.984375 0.375 Z M 12.984375 0.375 "/></g></g></g><g fill="#eceff4" fill-opacity="1"><g transform="translate(231.541203, 47.709033)"><g><path d="M 9.296875 0.375 C 7.898438 0.375 6.648438 0.101562 5.546875 -0.4375 C 4.441406 -0.988281 3.570312 -1.726562 2.9375 -2.65625 C 2.3125 -3.582031 2 -4.632812 2 -5.8125 C 2 -7.289062 2.375 -8.457031 3.125 -9.3125 C 3.875 -10.175781 5.113281 -10.789062 6.84375 -11.15625 C 8.582031 -11.519531 10.925781 -11.703125 13.875 -11.703125 L 15.796875 -11.703125 L 15.796875 -9.171875 L 13.921875 -9.171875 C 11.953125 -9.171875 10.394531 -9.070312 9.25 -8.875 C 8.101562 -8.6875 7.289062 -8.367188 6.8125 -7.921875 C 6.332031 -7.472656 6.09375 -6.851562 6.09375 -6.0625 C 6.09375 -5.019531 6.445312 -4.175781 7.15625 -3.53125 C 7.875 -2.894531 8.859375 -2.578125 10.109375 -2.578125 C 11.117188 -2.578125 12.003906 -2.816406 12.765625 -3.296875 C 13.535156 -3.773438 14.144531 -4.421875 14.59375 -5.234375 C 15.039062 -6.054688 15.265625 -7 15.265625 -8.0625 L 15.265625 -12.765625 C 15.265625 -14.328125 14.9375 -15.445312 14.28125 -16.125 C 13.625 -16.8125 12.546875 -17.15625 11.046875 -17.15625 C 10.179688 -17.15625 9.273438 -17.046875 8.328125 -16.828125 C 7.390625 -16.609375 6.414062 -16.238281 5.40625 -15.71875 C 4.9375 -15.5 4.535156 -15.429688 4.203125 -15.515625 C 3.878906 -15.597656 3.625 -15.78125 3.4375 -16.0625 C 3.25 -16.351562 3.144531 -16.664062 3.125 -17 C 3.113281 -17.34375 3.195312 -17.675781 3.375 -18 C 3.550781 -18.332031 3.859375 -18.582031 4.296875 -18.75 C 5.492188 -19.320312 6.679688 -19.726562 7.859375 -19.96875 C 9.035156 -20.21875 10.140625 -20.34375 11.171875 -20.34375 C 13.003906 -20.34375 14.515625 -20.054688 15.703125 -19.484375 C 16.890625 -18.910156 17.769531 -18.035156 18.34375 -16.859375 C 18.914062 -15.691406 19.203125 -14.179688 19.203125 -12.328125 L 19.203125 -1.796875 C 19.203125 -1.140625 19.035156 -0.628906 18.703125 -0.265625 C 18.378906 0.0976562 17.90625 0.28125 17.28125 0.28125 C 16.675781 0.28125 16.195312 0.0976562 15.84375 -0.265625 C 15.488281 -0.628906 15.3125 -1.140625 15.3125 -1.796875 L 15.3125 -4.46875 L 15.671875 -4.46875 C 15.453125 -3.457031 15.050781 -2.585938 14.46875 -1.859375 C 13.882812 -1.140625 13.15625 -0.585938 12.28125 -0.203125 C 11.40625 0.179688 10.410156 0.375 9.296875 0.375 Z M 9.296875 0.375 "/></g></g></g><g fill="#eceff4" fill-opacity="1"><g transform="translate(253.525946, 47.709033)"><g><path d="M 4.953125 0.28125 C 4.296875 0.28125 3.789062 0.0976562 3.4375 -0.265625 C 3.082031 -0.628906 2.90625 -1.140625 2.90625 -1.796875 L 2.90625 -18.171875 C 2.90625 -18.859375 3.082031 -19.378906 3.4375 -19.734375 C 3.789062 -20.085938 4.28125 -20.265625 4.90625 -20.265625 C 5.5625 -20.265625 6.0625 -20.085938 6.40625 -19.734375 C 6.75 -19.378906 6.921875 -18.859375 6.921875 -18.171875 L 6.921875 -14.984375 L 6.46875 -15.71875 C 7.070312 -17.25 8.015625 -18.398438 9.296875 -19.171875 C 10.578125 -19.953125 12.050781 -20.34375 13.71875 -20.34375 C 15.300781 -20.34375 16.613281 -20.046875 17.65625 -19.453125 C 18.707031 -18.867188 19.492188 -17.984375 20.015625 -16.796875 C 20.535156 -15.617188 20.796875 -14.128906 20.796875 -12.328125 L 20.796875 -1.796875 C 20.796875 -1.140625 20.617188 -0.628906 20.265625 -0.265625 C 19.910156 0.0976562 19.40625 0.28125 18.75 0.28125 C 18.0625 0.28125 17.539062 0.0976562 17.1875 -0.265625 C 16.832031 -0.628906 16.65625 -1.140625 16.65625 -1.796875 L 16.65625 -12.078125 C 16.65625 -13.796875 16.320312 -15.050781 15.65625 -15.84375 C 14.988281 -16.632812 13.945312 -17.03125 12.53125 -17.03125 C 10.863281 -17.03125 9.53125 -16.507812 8.53125 -15.46875 C 7.539062 -14.4375 7.046875 -13.046875 7.046875 -11.296875 L 7.046875 -1.796875 C 7.046875 -0.410156 6.347656 0.28125 4.953125 0.28125 Z M 4.953125 0.28125 "/></g></g></g><g fill="#eceff4" fill-opacity="1"><g transform="translate(277.107342, 47.709033)"><g><path d="M 11.421875 0.375 C 9.785156 0.375 8.40625 0.0859375 7.28125 -0.484375 C 6.164062 -1.054688 5.332031 -1.898438 4.78125 -3.015625 C 4.238281 -4.140625 3.96875 -5.507812 3.96875 -7.125 L 3.96875 -16.78125 L 1.515625 -16.78125 C 0.972656 -16.78125 0.550781 -16.921875 0.25 -17.203125 C -0.0507812 -17.492188 -0.203125 -17.882812 -0.203125 -18.375 C -0.203125 -18.894531 -0.0507812 -19.289062 0.25 -19.5625 C 0.550781 -19.84375 0.972656 -19.984375 1.515625 -19.984375 L 3.96875 -19.984375 L 3.96875 -24.1875 C 3.96875 -24.875 4.148438 -25.394531 4.515625 -25.75 C 4.890625 -26.101562 5.40625 -26.28125 6.0625 -26.28125 C 6.71875 -26.28125 7.222656 -26.101562 7.578125 -25.75 C 7.929688 -25.394531 8.109375 -24.875 8.109375 -24.1875 L 8.109375 -19.984375 L 12.890625 -19.984375 C 13.441406 -19.984375 13.863281 -19.84375 14.15625 -19.5625 C 14.457031 -19.289062 14.609375 -18.894531 14.609375 -18.375 C 14.609375 -17.882812 14.457031 -17.492188 14.15625 -17.203125 C 13.863281 -16.921875 13.441406 -16.78125 12.890625 -16.78125 L 8.109375 -16.78125 L 8.109375 -7.453125 C 8.109375 -6.003906 8.414062 -4.910156 9.03125 -4.171875 C 9.644531 -3.429688 10.644531 -3.0625 12.03125 -3.0625 C 12.519531 -3.0625 12.945312 -3.109375 13.3125 -3.203125 C 13.6875 -3.304688 14 -3.367188 14.25 -3.390625 C 14.550781 -3.390625 14.796875 -3.285156 14.984375 -3.078125 C 15.171875 -2.878906 15.265625 -2.492188 15.265625 -1.921875 C 15.265625 -1.515625 15.1875 -1.132812 15.03125 -0.78125 C 14.882812 -0.425781 14.625 -0.191406 14.25 -0.078125 C 13.914062 0.0234375 13.46875 0.125 12.90625 0.21875 C 12.351562 0.320312 11.859375 0.375 11.421875 0.375 Z M 11.421875 0.375 "/></g></g></g><g fill="#eceff4" fill-opacity="1"><g transform="translate(292.050416, 47.709033)"><g><path d="M 11.578125 0.375 C 9.566406 0.375 7.828125 -0.046875 6.359375 -0.890625 C 4.898438 -1.742188 3.757812 -2.945312 2.9375 -4.5 C 2.125 -6.0625 1.71875 -7.890625 1.71875 -9.984375 C 1.71875 -11.597656 1.945312 -13.03125 2.40625 -14.28125 C 2.875 -15.539062 3.535156 -16.625 4.390625 -17.53125 C 5.253906 -18.445312 6.289062 -19.144531 7.5 -19.625 C 8.71875 -20.101562 10.078125 -20.34375 11.578125 -20.34375 C 13.578125 -20.34375 15.304688 -19.921875 16.765625 -19.078125 C 18.222656 -18.234375 19.359375 -17.039062 20.171875 -15.5 C 20.992188 -13.957031 21.40625 -12.117188 21.40625 -9.984375 C 21.40625 -8.398438 21.171875 -6.96875 20.703125 -5.6875 C 20.242188 -4.40625 19.582031 -3.3125 18.71875 -2.40625 C 17.863281 -1.507812 16.828125 -0.820312 15.609375 -0.34375 C 14.398438 0.132812 13.054688 0.375 11.578125 0.375 Z M 11.578125 -2.828125 C 12.703125 -2.828125 13.6875 -3.097656 14.53125 -3.640625 C 15.375 -4.191406 16.035156 -5 16.515625 -6.0625 C 16.992188 -7.125 17.234375 -8.429688 17.234375 -9.984375 C 17.234375 -12.335938 16.710938 -14.113281 15.671875 -15.3125 C 14.640625 -16.507812 13.273438 -17.109375 11.578125 -17.109375 C 10.429688 -17.109375 9.4375 -16.84375 8.59375 -16.3125 C 7.75 -15.78125 7.085938 -14.984375 6.609375 -13.921875 C 6.128906 -12.859375 5.890625 -11.546875 5.890625 -9.984375 C 5.890625 -7.671875 6.40625 -5.898438 7.4375 -4.671875 C 8.476562 -3.441406 9.859375 -2.828125 11.578125 -2.828125 Z M 11.578125 -2.828125 "/></g></g></g><g fill="#eceff4" fill-opacity="1"><g transform="translate(315.181472, 47.709033)"><g><path d="M 9.90625 0.375 C 8.707031 0.375 7.472656 0.238281 6.203125 -0.03125 C 4.929688 -0.3125 3.765625 -0.78125 2.703125 -1.4375 C 2.347656 -1.675781 2.101562 -1.945312 1.96875 -2.25 C 1.832031 -2.550781 1.785156 -2.859375 1.828125 -3.171875 C 1.867188 -3.484375 1.988281 -3.753906 2.1875 -3.984375 C 2.394531 -4.222656 2.65625 -4.367188 2.96875 -4.421875 C 3.28125 -4.472656 3.613281 -4.40625 3.96875 -4.21875 C 5.03125 -3.613281 6.050781 -3.195312 7.03125 -2.96875 C 8.019531 -2.738281 8.992188 -2.625 9.953125 -2.625 C 11.398438 -2.625 12.488281 -2.878906 13.21875 -3.390625 C 13.957031 -3.910156 14.328125 -4.609375 14.328125 -5.484375 C 14.328125 -6.191406 14.082031 -6.742188 13.59375 -7.140625 C 13.101562 -7.535156 12.363281 -7.84375 11.375 -8.0625 L 7.484375 -8.84375 C 5.796875 -9.195312 4.515625 -9.820312 3.640625 -10.71875 C 2.765625 -11.625 2.328125 -12.773438 2.328125 -14.171875 C 2.328125 -15.421875 2.664062 -16.507812 3.34375 -17.4375 C 4.03125 -18.363281 4.988281 -19.078125 6.21875 -19.578125 C 7.445312 -20.085938 8.867188 -20.34375 10.484375 -20.34375 C 11.679688 -20.34375 12.8125 -20.191406 13.875 -19.890625 C 14.9375 -19.585938 15.921875 -19.140625 16.828125 -18.546875 C 17.179688 -18.359375 17.410156 -18.101562 17.515625 -17.78125 C 17.628906 -17.46875 17.648438 -17.160156 17.578125 -16.859375 C 17.515625 -16.566406 17.375 -16.300781 17.15625 -16.0625 C 16.9375 -15.832031 16.671875 -15.695312 16.359375 -15.65625 C 16.046875 -15.613281 15.695312 -15.691406 15.3125 -15.890625 C 14.488281 -16.398438 13.675781 -16.765625 12.875 -16.984375 C 12.070312 -17.203125 11.273438 -17.3125 10.484375 -17.3125 C 9.035156 -17.3125 7.945312 -17.046875 7.21875 -16.515625 C 6.5 -15.984375 6.140625 -15.269531 6.140625 -14.375 C 6.140625 -13.6875 6.359375 -13.125 6.796875 -12.6875 C 7.234375 -12.25 7.914062 -11.9375 8.84375 -11.75 L 12.734375 -10.96875 C 14.503906 -10.613281 15.847656 -10.015625 16.765625 -9.171875 C 17.679688 -8.328125 18.140625 -7.179688 18.140625 -5.734375 C 18.140625 -3.847656 17.382812 -2.359375 15.875 -1.265625 C 14.375 -0.171875 12.382812 0.375 9.90625 0.375 Z M 9.90625 0.375 "/></g></g></g><g fill="#eceff4" fill-opacity="1"><g transform="translate(129.562295, 88.571209)"><g><path d="M 5.15625 0 C 4.71875 0 4.375 -0.117188 4.125 -0.359375 C 3.882812 -0.609375 3.765625 -0.96875 3.765625 -1.4375 L 3.765625 -27.421875 C 3.765625 -27.890625 3.882812 -28.242188 4.125 -28.484375 C 4.375 -28.734375 4.71875 -28.859375 5.15625 -28.859375 L 13.0625 -28.859375 C 17.644531 -28.859375 21.179688 -27.628906 23.671875 -25.171875 C 26.171875 -22.710938 27.421875 -19.140625 27.421875 -14.453125 C 27.421875 -12.109375 27.097656 -10.035156 26.453125 -8.234375 C 25.816406 -6.429688 24.882812 -4.921875 23.65625 -3.703125 C 22.425781 -2.492188 20.925781 -1.570312 19.15625 -0.9375 C 17.382812 -0.3125 15.351562 0 13.0625 0 Z M 6.265625 -2.203125 L 12.859375 -2.203125 C 14.847656 -2.203125 16.585938 -2.460938 18.078125 -2.984375 C 19.566406 -3.503906 20.800781 -4.269531 21.78125 -5.28125 C 22.757812 -6.289062 23.492188 -7.566406 23.984375 -9.109375 C 24.472656 -10.648438 24.71875 -12.429688 24.71875 -14.453125 C 24.71875 -18.515625 23.726562 -21.5625 21.75 -23.59375 C 19.78125 -25.632812 16.816406 -26.65625 12.859375 -26.65625 L 6.265625 -26.65625 Z M 6.265625 -2.203125 "/></g></g></g><g fill="#eceff4" fill-opacity="1"><g transform="translate(159.571255, 88.571209)"><g><path d="M 11.90625 0.328125 C 9.863281 0.328125 8.101562 -0.078125 6.625 -0.890625 C 5.15625 -1.710938 4.023438 -2.890625 3.234375 -4.421875 C 2.441406 -5.953125 2.046875 -7.765625 2.046875 -9.859375 C 2.046875 -11.941406 2.441406 -13.753906 3.234375 -15.296875 C 4.023438 -16.835938 5.125 -18.039062 6.53125 -18.90625 C 7.9375 -19.78125 9.550781 -20.21875 11.375 -20.21875 C 12.71875 -20.21875 13.898438 -19.992188 14.921875 -19.546875 C 15.941406 -19.097656 16.8125 -18.457031 17.53125 -17.625 C 18.257812 -16.789062 18.8125 -15.78125 19.1875 -14.59375 C 19.570312 -13.40625 19.765625 -12.0625 19.765625 -10.5625 C 19.765625 -10.175781 19.660156 -9.890625 19.453125 -9.703125 C 19.253906 -9.515625 18.976562 -9.421875 18.625 -9.421875 L 3.84375 -9.421875 L 3.84375 -11.25 L 18.21875 -11.25 L 17.5625 -10.71875 C 17.5625 -12.300781 17.328125 -13.644531 16.859375 -14.75 C 16.398438 -15.863281 15.710938 -16.71875 14.796875 -17.3125 C 13.878906 -17.914062 12.753906 -18.21875 11.421875 -18.21875 C 9.921875 -18.21875 8.648438 -17.867188 7.609375 -17.171875 C 6.578125 -16.472656 5.800781 -15.515625 5.28125 -14.296875 C 4.757812 -13.085938 4.5 -11.691406 4.5 -10.109375 L 4.5 -9.90625 C 4.5 -7.289062 5.140625 -5.28125 6.421875 -3.875 C 7.703125 -2.46875 9.503906 -1.765625 11.828125 -1.765625 C 12.835938 -1.765625 13.8125 -1.898438 14.75 -2.171875 C 15.695312 -2.441406 16.617188 -2.90625 17.515625 -3.5625 C 17.796875 -3.75 18.0625 -3.84375 18.3125 -3.84375 C 18.570312 -3.84375 18.789062 -3.773438 18.96875 -3.640625 C 19.144531 -3.503906 19.265625 -3.332031 19.328125 -3.125 C 19.398438 -2.925781 19.390625 -2.707031 19.296875 -2.46875 C 19.203125 -2.238281 19.019531 -2.03125 18.75 -1.84375 C 17.875 -1.132812 16.820312 -0.59375 15.59375 -0.21875 C 14.363281 0.144531 13.132812 0.328125 11.90625 0.328125 Z M 11.90625 0.328125 "/></g></g></g><g fill="#eceff4" fill-opacity="1"><g transform="translate(181.146599, 88.571209)"><g><path d="M 10.4375 0.25 C 10.03125 0.25 9.6875 0.140625 9.40625 -0.078125 C 9.132812 -0.296875 8.890625 -0.625 8.671875 -1.0625 L 1.3125 -18.265625 C 1.175781 -18.585938 1.128906 -18.890625 1.171875 -19.171875 C 1.210938 -19.460938 1.332031 -19.695312 1.53125 -19.875 C 1.738281 -20.050781 2.035156 -20.140625 2.421875 -20.140625 C 2.773438 -20.140625 3.039062 -20.054688 3.21875 -19.890625 C 3.394531 -19.734375 3.550781 -19.476562 3.6875 -19.125 L 10.96875 -1.515625 L 9.953125 -1.515625 L 17.28125 -19.125 C 17.414062 -19.476562 17.578125 -19.734375 17.765625 -19.890625 C 17.953125 -20.054688 18.222656 -20.140625 18.578125 -20.140625 C 18.941406 -20.140625 19.210938 -20.050781 19.390625 -19.875 C 19.566406 -19.695312 19.664062 -19.472656 19.6875 -19.203125 C 19.71875 -18.929688 19.664062 -18.628906 19.53125 -18.296875 L 12.15625 -1.0625 C 11.988281 -0.625 11.753906 -0.296875 11.453125 -0.078125 C 11.160156 0.140625 10.820312 0.25 10.4375 0.25 Z M 10.4375 0.25 "/></g></g></g><g fill="#eceff4" fill-opacity="1"><g transform="translate(201.985016, 88.571209)"><g><path d="M 11.90625 0.328125 C 9.863281 0.328125 8.101562 -0.078125 6.625 -0.890625 C 5.15625 -1.710938 4.023438 -2.890625 3.234375 -4.421875 C 2.441406 -5.953125 2.046875 -7.765625 2.046875 -9.859375 C 2.046875 -11.941406 2.441406 -13.753906 3.234375 -15.296875 C 4.023438 -16.835938 5.125 -18.039062 6.53125 -18.90625 C 7.9375 -19.78125 9.550781 -20.21875 11.375 -20.21875 C 12.71875 -20.21875 13.898438 -19.992188 14.921875 -19.546875 C 15.941406 -19.097656 16.8125 -18.457031 17.53125 -17.625 C 18.257812 -16.789062 18.8125 -15.78125 19.1875 -14.59375 C 19.570312 -13.40625 19.765625 -12.0625 19.765625 -10.5625 C 19.765625 -10.175781 19.660156 -9.890625 19.453125 -9.703125 C 19.253906 -9.515625 18.976562 -9.421875 18.625 -9.421875 L 3.84375 -9.421875 L 3.84375 -11.25 L 18.21875 -11.25 L 17.5625 -10.71875 C 17.5625 -12.300781 17.328125 -13.644531 16.859375 -14.75 C 16.398438 -15.863281 15.710938 -16.71875 14.796875 -17.3125 C 13.878906 -17.914062 12.753906 -18.21875 11.421875 -18.21875 C 9.921875 -18.21875 8.648438 -17.867188 7.609375 -17.171875 C 6.578125 -16.472656 5.800781 -15.515625 5.28125 -14.296875 C 4.757812 -13.085938 4.5 -11.691406 4.5 -10.109375 L 4.5 -9.90625 C 4.5 -7.289062 5.140625 -5.28125 6.421875 -3.875 C 7.703125 -2.46875 9.503906 -1.765625 11.828125 -1.765625 C 12.835938 -1.765625 13.8125 -1.898438 14.75 -2.171875 C 15.695312 -2.441406 16.617188 -2.90625 17.515625 -3.5625 C 17.796875 -3.75 18.0625 -3.84375 18.3125 -3.84375 C 18.570312 -3.84375 18.789062 -3.773438 18.96875 -3.640625 C 19.144531 -3.503906 19.265625 -3.332031 19.328125 -3.125 C 19.398438 -2.925781 19.390625 -2.707031 19.296875 -2.46875 C 19.203125 -2.238281 19.019531 -2.03125 18.75 -1.84375 C 17.875 -1.132812 16.820312 -0.59375 15.59375 -0.21875 C 14.363281 0.144531 13.132812 0.328125 11.90625 0.328125 Z M 11.90625 0.328125 "/></g></g></g><g fill="#eceff4" fill-opacity="1"><g transform="translate(223.56036, 88.571209)"><g><path d="M 9 0.328125 C 7.175781 0.328125 5.765625 -0.242188 4.765625 -1.390625 C 3.773438 -2.535156 3.28125 -4.160156 3.28125 -6.265625 L 3.28125 -27.84375 C 3.28125 -28.28125 3.390625 -28.597656 3.609375 -28.796875 C 3.828125 -29.003906 4.140625 -29.109375 4.546875 -29.109375 C 4.921875 -29.109375 5.21875 -29.003906 5.4375 -28.796875 C 5.65625 -28.597656 5.765625 -28.28125 5.765625 -27.84375 L 5.765625 -6.546875 C 5.765625 -4.960938 6.078125 -3.78125 6.703125 -3 C 7.335938 -2.226562 8.253906 -1.84375 9.453125 -1.84375 C 9.722656 -1.84375 9.953125 -1.851562 10.140625 -1.875 C 10.335938 -1.90625 10.53125 -1.921875 10.71875 -1.921875 C 10.96875 -1.953125 11.15625 -1.90625 11.28125 -1.78125 C 11.40625 -1.65625 11.46875 -1.398438 11.46875 -1.015625 C 11.46875 -0.640625 11.367188 -0.351562 11.171875 -0.15625 C 10.984375 0.03125 10.671875 0.164062 10.234375 0.25 C 10.046875 0.269531 9.847656 0.285156 9.640625 0.296875 C 9.429688 0.316406 9.21875 0.328125 9 0.328125 Z M 9 0.328125 "/></g></g></g><g fill="#eceff4" fill-opacity="1"><g transform="translate(235.228234, 88.571209)"><g><path d="M 11.171875 0.328125 C 9.316406 0.328125 7.707031 -0.09375 6.34375 -0.9375 C 4.976562 -1.78125 3.921875 -2.96875 3.171875 -4.5 C 2.421875 -6.03125 2.046875 -7.847656 2.046875 -9.953125 C 2.046875 -11.503906 2.253906 -12.90625 2.671875 -14.15625 C 3.097656 -15.414062 3.710938 -16.503906 4.515625 -17.421875 C 5.328125 -18.335938 6.296875 -19.03125 7.421875 -19.5 C 8.554688 -19.976562 9.804688 -20.21875 11.171875 -20.21875 C 13.054688 -20.21875 14.679688 -19.796875 16.046875 -18.953125 C 17.410156 -18.109375 18.46875 -16.914062 19.21875 -15.375 C 19.96875 -13.832031 20.34375 -12.023438 20.34375 -9.953125 C 20.34375 -8.367188 20.128906 -6.945312 19.703125 -5.6875 C 19.285156 -4.4375 18.671875 -3.359375 17.859375 -2.453125 C 17.054688 -1.554688 16.09375 -0.867188 14.96875 -0.390625 C 13.851562 0.0859375 12.585938 0.328125 11.171875 0.328125 Z M 11.171875 -1.765625 C 12.535156 -1.765625 13.71875 -2.082031 14.71875 -2.71875 C 15.71875 -3.363281 16.484375 -4.300781 17.015625 -5.53125 C 17.546875 -6.757812 17.8125 -8.234375 17.8125 -9.953125 C 17.8125 -12.546875 17.21875 -14.550781 16.03125 -15.96875 C 14.84375 -17.382812 13.222656 -18.09375 11.171875 -18.09375 C 9.835938 -18.09375 8.671875 -17.769531 7.671875 -17.125 C 6.679688 -16.488281 5.914062 -15.5625 5.375 -14.34375 C 4.84375 -13.132812 4.578125 -11.671875 4.578125 -9.953125 C 4.578125 -7.328125 5.175781 -5.304688 6.375 -3.890625 C 7.582031 -2.472656 9.179688 -1.765625 11.171875 -1.765625 Z M 11.171875 -1.765625 "/></g></g></g><g fill="#eceff4" fill-opacity="1"><g transform="translate(257.622375, 88.571209)"><g><path d="M 4.546875 7.609375 C 4.140625 7.609375 3.828125 7.5 3.609375 7.28125 C 3.390625 7.0625 3.28125 6.75 3.28125 6.34375 L 3.28125 -18.828125 C 3.28125 -19.265625 3.390625 -19.59375 3.609375 -19.8125 C 3.828125 -20.03125 4.140625 -20.140625 4.546875 -20.140625 C 4.921875 -20.140625 5.21875 -20.03125 5.4375 -19.8125 C 5.65625 -19.59375 5.765625 -19.265625 5.765625 -18.828125 L 5.765625 -14.65625 L 5.328125 -14.90625 C 5.785156 -16.539062 6.671875 -17.832031 7.984375 -18.78125 C 9.296875 -19.738281 10.878906 -20.21875 12.734375 -20.21875 C 14.503906 -20.21875 16.050781 -19.796875 17.375 -18.953125 C 18.695312 -18.109375 19.71875 -16.921875 20.4375 -15.390625 C 21.164062 -13.859375 21.53125 -12.046875 21.53125 -9.953125 C 21.53125 -7.847656 21.164062 -6.023438 20.4375 -4.484375 C 19.71875 -2.941406 18.703125 -1.753906 17.390625 -0.921875 C 16.085938 -0.0859375 14.535156 0.328125 12.734375 0.328125 C 10.878906 0.328125 9.296875 -0.144531 7.984375 -1.09375 C 6.671875 -2.050781 5.785156 -3.320312 5.328125 -4.90625 L 5.765625 -4.90625 L 5.765625 6.34375 C 5.765625 6.75 5.65625 7.0625 5.4375 7.28125 C 5.21875 7.5 4.921875 7.609375 4.546875 7.609375 Z M 12.359375 -1.765625 C 13.703125 -1.765625 14.867188 -2.082031 15.859375 -2.71875 C 16.859375 -3.363281 17.628906 -4.300781 18.171875 -5.53125 C 18.722656 -6.757812 19 -8.234375 19 -9.953125 C 19 -12.546875 18.394531 -14.550781 17.1875 -15.96875 C 15.988281 -17.382812 14.378906 -18.09375 12.359375 -18.09375 C 11.023438 -18.09375 9.859375 -17.769531 8.859375 -17.125 C 7.867188 -16.488281 7.097656 -15.5625 6.546875 -14.34375 C 6.003906 -13.132812 5.734375 -11.671875 5.734375 -9.953125 C 5.734375 -7.328125 6.332031 -5.304688 7.53125 -3.890625 C 8.726562 -2.472656 10.335938 -1.765625 12.359375 -1.765625 Z M 12.359375 -1.765625 "/></g></g></g><g fill="#eceff4" fill-opacity="1"><g transform="translate(281.16283, 88.571209)"><g><path d="M 11.90625 0.328125 C 9.863281 0.328125 8.101562 -0.078125 6.625 -0.890625 C 5.15625 -1.710938 4.023438 -2.890625 3.234375 -4.421875 C 2.441406 -5.953125 2.046875 -7.765625 2.046875 -9.859375 C 2.046875 -11.941406 2.441406 -13.753906 3.234375 -15.296875 C 4.023438 -16.835938 5.125 -18.039062 6.53125 -18.90625 C 7.9375 -19.78125 9.550781 -20.21875 11.375 -20.21875 C 12.71875 -20.21875 13.898438 -19.992188 14.921875 -19.546875 C 15.941406 -19.097656 16.8125 -18.457031 17.53125 -17.625 C 18.257812 -16.789062 18.8125 -15.78125 19.1875 -14.59375 C 19.570312 -13.40625 19.765625 -12.0625 19.765625 -10.5625 C 19.765625 -10.175781 19.660156 -9.890625 19.453125 -9.703125 C 19.253906 -9.515625 18.976562 -9.421875 18.625 -9.421875 L 3.84375 -9.421875 L 3.84375 -11.25 L 18.21875 -11.25 L 17.5625 -10.71875 C 17.5625 -12.300781 17.328125 -13.644531 16.859375 -14.75 C 16.398438 -15.863281 15.710938 -16.71875 14.796875 -17.3125 C 13.878906 -17.914062 12.753906 -18.21875 11.421875 -18.21875 C 9.921875 -18.21875 8.648438 -17.867188 7.609375 -17.171875 C 6.578125 -16.472656 5.800781 -15.515625 5.28125 -14.296875 C 4.757812 -13.085938 4.5 -11.691406 4.5 -10.109375 L 4.5 -9.90625 C 4.5 -7.289062 5.140625 -5.28125 6.421875 -3.875 C 7.703125 -2.46875 9.503906 -1.765625 11.828125 -1.765625 C 12.835938 -1.765625 13.8125 -1.898438 14.75 -2.171875 C 15.695312 -2.441406 16.617188 -2.90625 17.515625 -3.5625 C 17.796875 -3.75 18.0625 -3.84375 18.3125 -3.84375 C 18.570312 -3.84375 18.789062 -3.773438 18.96875 -3.640625 C 19.144531 -3.503906 19.265625 -3.332031 19.328125 -3.125 C 19.398438 -2.925781 19.390625 -2.707031 19.296875 -2.46875 C 19.203125 -2.238281 19.019531 -2.03125 18.75 -1.84375 C 17.875 -1.132812 16.820312 -0.59375 15.59375 -0.21875 C 14.363281 0.144531 13.132812 0.328125 11.90625 0.328125 Z M 11.90625 0.328125 "/></g></g></g><g fill="#eceff4" fill-opacity="1"><g transform="translate(302.738173, 88.571209)"><g><path d="M 4.546875 0.25 C 4.140625 0.25 3.828125 0.140625 3.609375 -0.078125 C 3.390625 -0.296875 3.28125 -0.609375 3.28125 -1.015625 L 3.28125 -18.828125 C 3.28125 -19.265625 3.390625 -19.59375 3.609375 -19.8125 C 3.828125 -20.03125 4.140625 -20.140625 4.546875 -20.140625 C 4.921875 -20.140625 5.210938 -20.03125 5.421875 -19.8125 C 5.628906 -19.59375 5.734375 -19.265625 5.734375 -18.828125 L 5.734375 -15.1875 L 5.328125 -15.1875 C 5.816406 -16.800781 6.691406 -18.039062 7.953125 -18.90625 C 9.222656 -19.78125 10.75 -20.234375 12.53125 -20.265625 C 12.851562 -20.296875 13.125 -20.226562 13.34375 -20.0625 C 13.5625 -19.894531 13.671875 -19.632812 13.671875 -19.28125 C 13.703125 -18.894531 13.617188 -18.597656 13.421875 -18.390625 C 13.234375 -18.191406 12.921875 -18.066406 12.484375 -18.015625 L 11.90625 -17.96875 C 9.96875 -17.78125 8.46875 -17.140625 7.40625 -16.046875 C 6.34375 -14.953125 5.8125 -13.476562 5.8125 -11.625 L 5.8125 -1.015625 C 5.8125 -0.609375 5.707031 -0.296875 5.5 -0.078125 C 5.300781 0.140625 4.984375 0.25 4.546875 0.25 Z M 4.546875 0.25 "/></g></g></g></svg>